<mxfile host="Electron" modified="2023-08-27T09:27:32.011Z" agent="Mozilla/5.0 (X11; Linux x86_64) AppleWebKit/537.36 (KHTML, like Gecko) draw.io/21.6.8 Chrome/114.0.5735.289 Electron/25.5.0 Safari/537.36" etag="vLdSU3Hu4IKBMJjpzi0u" version="21.6.8" type="device">
  <diagram name="principle" id="r_wfb3aBJIDY3oErqPMl">
    <mxGraphModel dx="1348" dy="1626" grid="1" gridSize="10" guides="1" tooltips="1" connect="1" arrows="1" fold="1" page="1" pageScale="1" pageWidth="1169" pageHeight="827" math="0" shadow="0">
      <root>
        <mxCell id="0" />
        <mxCell id="1" parent="0" />
        <mxCell id="U0mhoktrUWDnmeh3DGQz-25" style="edgeStyle=orthogonalEdgeStyle;rounded=1;jumpStyle=arc;orthogonalLoop=1;jettySize=auto;html=1;exitX=1;exitY=0.5;exitDx=0;exitDy=0;entryX=0;entryY=0.75;entryDx=0;entryDy=0;strokeColor=#EA7317;strokeWidth=2;fontFamily=Verdana;endArrow=blockThin;endFill=1;fillColor=#EA7317;" parent="1" target="U0mhoktrUWDnmeh3DGQz-22" edge="1">
          <mxGeometry relative="1" as="geometry">
            <mxPoint x="450" y="320" as="sourcePoint" />
          </mxGeometry>
        </mxCell>
        <mxCell id="U0mhoktrUWDnmeh3DGQz-24" style="edgeStyle=orthogonalEdgeStyle;rounded=1;jumpStyle=arc;orthogonalLoop=1;jettySize=auto;html=1;exitX=1;exitY=0.5;exitDx=0;exitDy=0;entryX=0;entryY=0.5;entryDx=0;entryDy=0;strokeColor=#EA7317;strokeWidth=2;fontFamily=Verdana;endArrow=blockThin;endFill=1;fillColor=#EA7317;" parent="1" target="U0mhoktrUWDnmeh3DGQz-22" edge="1">
          <mxGeometry relative="1" as="geometry">
            <mxPoint x="450" y="260" as="sourcePoint" />
          </mxGeometry>
        </mxCell>
        <mxCell id="U0mhoktrUWDnmeh3DGQz-23" style="edgeStyle=orthogonalEdgeStyle;rounded=1;jumpStyle=arc;orthogonalLoop=1;jettySize=auto;html=1;exitX=1;exitY=0.5;exitDx=0;exitDy=0;entryX=0;entryY=0.25;entryDx=0;entryDy=0;strokeColor=#EA7317;strokeWidth=2;fontFamily=Verdana;endArrow=blockThin;endFill=1;fillColor=#EA7317;" parent="1" target="U0mhoktrUWDnmeh3DGQz-22" edge="1">
          <mxGeometry relative="1" as="geometry">
            <mxPoint x="450" y="200" as="sourcePoint" />
          </mxGeometry>
        </mxCell>
        <mxCell id="U0mhoktrUWDnmeh3DGQz-1" value="" style="rounded=0;whiteSpace=wrap;html=1;strokeColor=none;strokeWidth=2;fontFamily=Verdana;fontSize=14;fontColor=#ffffff;fillColor=#EA7317;" parent="1" vertex="1">
          <mxGeometry x="160" y="190" width="40" height="20" as="geometry" />
        </mxCell>
        <mxCell id="U0mhoktrUWDnmeh3DGQz-2" value="" style="rounded=0;whiteSpace=wrap;html=1;strokeColor=none;strokeWidth=2;fontFamily=Verdana;fontSize=14;fontColor=#ffffff;fillColor=#EA7317;" parent="1" vertex="1">
          <mxGeometry x="220" y="190" width="40" height="20" as="geometry" />
        </mxCell>
        <mxCell id="U0mhoktrUWDnmeh3DGQz-3" value="" style="rounded=0;whiteSpace=wrap;html=1;strokeColor=none;strokeWidth=2;fontFamily=Verdana;fontSize=14;fontColor=#ffffff;fillColor=#EA7317;" parent="1" vertex="1">
          <mxGeometry x="280" y="190" width="40" height="20" as="geometry" />
        </mxCell>
        <mxCell id="U0mhoktrUWDnmeh3DGQz-4" value="" style="rounded=0;whiteSpace=wrap;html=1;strokeColor=none;strokeWidth=2;fontFamily=Verdana;fontSize=14;fontColor=#ffffff;fillColor=#EA7317;" parent="1" vertex="1">
          <mxGeometry x="340" y="190" width="40" height="20" as="geometry" />
        </mxCell>
        <mxCell id="U0mhoktrUWDnmeh3DGQz-5" value="" style="rounded=0;whiteSpace=wrap;html=1;strokeColor=none;strokeWidth=2;fontFamily=Verdana;fontSize=14;fontColor=#ffffff;fillColor=#EA7317;" parent="1" vertex="1">
          <mxGeometry x="400" y="190" width="40" height="20" as="geometry" />
        </mxCell>
        <mxCell id="U0mhoktrUWDnmeh3DGQz-9" value="" style="rounded=0;whiteSpace=wrap;html=1;strokeColor=none;strokeWidth=2;fontFamily=Verdana;fontSize=14;fontColor=#ffffff;fillColor=#178bea;" parent="1" vertex="1">
          <mxGeometry x="220" y="310" width="40" height="20" as="geometry" />
        </mxCell>
        <mxCell id="U0mhoktrUWDnmeh3DGQz-10" value="" style="rounded=0;whiteSpace=wrap;html=1;strokeColor=none;strokeWidth=2;fontFamily=Verdana;fontSize=14;fontColor=#ffffff;fillColor=#178bea;" parent="1" vertex="1">
          <mxGeometry x="280" y="310" width="40" height="20" as="geometry" />
        </mxCell>
        <mxCell id="U0mhoktrUWDnmeh3DGQz-11" value="" style="rounded=0;whiteSpace=wrap;html=1;strokeColor=none;strokeWidth=2;fontFamily=Verdana;fontSize=14;fontColor=#ffffff;fillColor=#178bea;" parent="1" vertex="1">
          <mxGeometry x="340" y="310" width="40" height="20" as="geometry" />
        </mxCell>
        <mxCell id="U0mhoktrUWDnmeh3DGQz-12" value="" style="rounded=0;whiteSpace=wrap;html=1;strokeColor=none;strokeWidth=2;fontFamily=Verdana;fontSize=14;fontColor=#ffffff;fillColor=#178bea;" parent="1" vertex="1">
          <mxGeometry x="400" y="310" width="40" height="20" as="geometry" />
        </mxCell>
        <mxCell id="U0mhoktrUWDnmeh3DGQz-27" style="edgeStyle=orthogonalEdgeStyle;rounded=1;jumpStyle=arc;orthogonalLoop=1;jettySize=auto;html=1;exitX=1;exitY=0.5;exitDx=0;exitDy=0;entryX=0;entryY=0.5;entryDx=0;entryDy=0;strokeColor=#EA7317;strokeWidth=2;fontFamily=Verdana;endArrow=blockThin;endFill=1;fillColor=#EA7317;" parent="1" source="U0mhoktrUWDnmeh3DGQz-22" target="U0mhoktrUWDnmeh3DGQz-26" edge="1">
          <mxGeometry relative="1" as="geometry" />
        </mxCell>
        <mxCell id="U0mhoktrUWDnmeh3DGQz-62" style="edgeStyle=orthogonalEdgeStyle;rounded=1;jumpStyle=arc;orthogonalLoop=1;jettySize=auto;html=1;exitX=0.5;exitY=0;exitDx=0;exitDy=0;entryX=0.5;entryY=1;entryDx=0;entryDy=0;dashed=1;strokeColor=#EA7317;strokeWidth=2;fontFamily=Verdana;fontColor=#1061A4;endArrow=none;endFill=0;fillColor=#EA7317;" parent="1" source="U0mhoktrUWDnmeh3DGQz-22" target="U0mhoktrUWDnmeh3DGQz-61" edge="1">
          <mxGeometry relative="1" as="geometry" />
        </mxCell>
        <mxCell id="U0mhoktrUWDnmeh3DGQz-22" value="qjoin" style="rounded=0;whiteSpace=wrap;html=1;dashed=1;strokeColor=none;strokeWidth=2;fontFamily=Verdana;fontSize=14;fontColor=#ffffff;fillColor=#EA7317;" parent="1" vertex="1">
          <mxGeometry x="510" y="215" width="130" height="90" as="geometry" />
        </mxCell>
        <mxCell id="U0mhoktrUWDnmeh3DGQz-26" value="" style="rounded=0;whiteSpace=wrap;html=1;strokeColor=#EA7317;strokeWidth=4;fontFamily=Verdana;fontSize=14;fontColor=#EA7317;fillColor=#FFFFFF;dashed=1;" parent="1" vertex="1">
          <mxGeometry x="670" y="200" width="310" height="120" as="geometry" />
        </mxCell>
        <mxCell id="U0mhoktrUWDnmeh3DGQz-28" value="" style="rounded=0;whiteSpace=wrap;html=1;strokeColor=none;strokeWidth=2;fontFamily=Verdana;fontSize=14;fontColor=#ffffff;fillColor=#EA7317;" parent="1" vertex="1">
          <mxGeometry x="690" y="230" width="40" height="20" as="geometry" />
        </mxCell>
        <mxCell id="U0mhoktrUWDnmeh3DGQz-29" value="" style="rounded=0;whiteSpace=wrap;html=1;strokeColor=none;strokeWidth=2;fontFamily=Verdana;fontSize=14;fontColor=#ffffff;fillColor=#1061a4;" parent="1" vertex="1">
          <mxGeometry x="690" y="250" width="40" height="20" as="geometry" />
        </mxCell>
        <mxCell id="U0mhoktrUWDnmeh3DGQz-30" value="" style="rounded=0;whiteSpace=wrap;html=1;strokeColor=none;strokeWidth=2;fontFamily=Verdana;fontSize=14;fontColor=#ffffff;fillColor=#178bea;" parent="1" vertex="1">
          <mxGeometry x="690" y="270" width="40" height="20" as="geometry" />
        </mxCell>
        <mxCell id="U0mhoktrUWDnmeh3DGQz-31" value="" style="rounded=0;whiteSpace=wrap;html=1;strokeColor=none;strokeWidth=2;fontFamily=Verdana;fontSize=14;fontColor=#ffffff;fillColor=#1061a4;" parent="1" vertex="1">
          <mxGeometry x="280" y="250" width="40" height="20" as="geometry" />
        </mxCell>
        <mxCell id="U0mhoktrUWDnmeh3DGQz-32" value="" style="rounded=0;whiteSpace=wrap;html=1;strokeColor=none;strokeWidth=2;fontFamily=Verdana;fontSize=14;fontColor=#ffffff;fillColor=#1061a4;" parent="1" vertex="1">
          <mxGeometry x="340" y="250" width="40" height="20" as="geometry" />
        </mxCell>
        <mxCell id="U0mhoktrUWDnmeh3DGQz-33" value="" style="rounded=0;whiteSpace=wrap;html=1;strokeColor=none;strokeWidth=2;fontFamily=Verdana;fontSize=14;fontColor=#ffffff;fillColor=#1061a4;" parent="1" vertex="1">
          <mxGeometry x="400" y="250" width="40" height="20" as="geometry" />
        </mxCell>
        <mxCell id="U0mhoktrUWDnmeh3DGQz-34" value="" style="rounded=0;whiteSpace=wrap;html=1;strokeColor=none;strokeWidth=2;fontFamily=Verdana;fontSize=14;fontColor=#ffffff;fillColor=#EA7317;" parent="1" vertex="1">
          <mxGeometry x="750" y="230" width="40" height="20" as="geometry" />
        </mxCell>
        <mxCell id="U0mhoktrUWDnmeh3DGQz-35" value="" style="rounded=0;whiteSpace=wrap;html=1;strokeColor=none;strokeWidth=2;fontFamily=Verdana;fontSize=14;fontColor=#ffffff;fillColor=#1061a4;" parent="1" vertex="1">
          <mxGeometry x="750" y="250" width="40" height="20" as="geometry" />
        </mxCell>
        <mxCell id="U0mhoktrUWDnmeh3DGQz-36" value="" style="rounded=0;whiteSpace=wrap;html=1;strokeColor=none;strokeWidth=2;fontFamily=Verdana;fontSize=14;fontColor=#ffffff;fillColor=#178bea;" parent="1" vertex="1">
          <mxGeometry x="750" y="270" width="40" height="20" as="geometry" />
        </mxCell>
        <mxCell id="U0mhoktrUWDnmeh3DGQz-37" value="" style="rounded=0;whiteSpace=wrap;html=1;strokeColor=none;strokeWidth=2;fontFamily=Verdana;fontSize=14;fontColor=#ffffff;fillColor=#EA7317;" parent="1" vertex="1">
          <mxGeometry x="805" y="230" width="40" height="20" as="geometry" />
        </mxCell>
        <mxCell id="U0mhoktrUWDnmeh3DGQz-38" value="" style="rounded=0;whiteSpace=wrap;html=1;strokeColor=none;strokeWidth=2;fontFamily=Verdana;fontSize=14;fontColor=#ffffff;fillColor=#1061a4;" parent="1" vertex="1">
          <mxGeometry x="805" y="250" width="40" height="20" as="geometry" />
        </mxCell>
        <mxCell id="U0mhoktrUWDnmeh3DGQz-39" value="" style="rounded=0;whiteSpace=wrap;html=1;strokeColor=none;strokeWidth=2;fontFamily=Verdana;fontSize=14;fontColor=#ffffff;fillColor=#178bea;" parent="1" vertex="1">
          <mxGeometry x="805" y="270" width="40" height="20" as="geometry" />
        </mxCell>
        <mxCell id="U0mhoktrUWDnmeh3DGQz-40" value="" style="rounded=0;whiteSpace=wrap;html=1;strokeColor=none;strokeWidth=2;fontFamily=Verdana;fontSize=14;fontColor=#ffffff;fillColor=#EA7317;" parent="1" vertex="1">
          <mxGeometry x="860" y="230" width="40" height="20" as="geometry" />
        </mxCell>
        <mxCell id="U0mhoktrUWDnmeh3DGQz-41" value="" style="rounded=0;whiteSpace=wrap;html=1;strokeColor=none;strokeWidth=2;fontFamily=Verdana;fontSize=14;fontColor=#ffffff;fillColor=#1061a4;" parent="1" vertex="1">
          <mxGeometry x="860" y="250" width="40" height="20" as="geometry" />
        </mxCell>
        <mxCell id="U0mhoktrUWDnmeh3DGQz-42" value="" style="rounded=0;whiteSpace=wrap;html=1;strokeColor=none;strokeWidth=2;fontFamily=Verdana;fontSize=14;fontColor=#ffffff;fillColor=#178bea;" parent="1" vertex="1">
          <mxGeometry x="860" y="270" width="40" height="20" as="geometry" />
        </mxCell>
        <mxCell id="U0mhoktrUWDnmeh3DGQz-43" value="" style="rounded=0;whiteSpace=wrap;html=1;strokeColor=none;strokeWidth=2;fontFamily=Verdana;fontSize=14;fontColor=#ffffff;fillColor=#EA7317;" parent="1" vertex="1">
          <mxGeometry x="920" y="230" width="40" height="20" as="geometry" />
        </mxCell>
        <mxCell id="U0mhoktrUWDnmeh3DGQz-44" value="" style="rounded=0;whiteSpace=wrap;html=1;strokeColor=none;strokeWidth=2;fontFamily=Verdana;fontSize=14;fontColor=#ffffff;fillColor=#1061a4;" parent="1" vertex="1">
          <mxGeometry x="920" y="250" width="40" height="20" as="geometry" />
        </mxCell>
        <mxCell id="U0mhoktrUWDnmeh3DGQz-45" value="" style="rounded=0;whiteSpace=wrap;html=1;strokeColor=none;strokeWidth=2;fontFamily=Verdana;fontSize=14;fontColor=#ffffff;fillColor=#178bea;" parent="1" vertex="1">
          <mxGeometry x="920" y="270" width="40" height="20" as="geometry" />
        </mxCell>
        <mxCell id="U0mhoktrUWDnmeh3DGQz-46" value="person" style="text;html=1;strokeColor=none;fillColor=none;align=center;verticalAlign=middle;whiteSpace=wrap;rounded=0;fontSize=14;fontFamily=Verdana;fontColor=#EA7317;" parent="1" vertex="1">
          <mxGeometry x="50" y="185" width="60" height="30" as="geometry" />
        </mxCell>
        <mxCell id="U0mhoktrUWDnmeh3DGQz-47" value="city" style="text;html=1;strokeColor=none;fillColor=none;align=center;verticalAlign=middle;whiteSpace=wrap;rounded=0;fontSize=14;fontFamily=Verdana;fontColor=#1061A4;" parent="1" vertex="1">
          <mxGeometry x="50" y="245" width="60" height="30" as="geometry" />
        </mxCell>
        <mxCell id="U0mhoktrUWDnmeh3DGQz-49" value="car" style="text;html=1;strokeColor=none;fillColor=none;align=center;verticalAlign=middle;whiteSpace=wrap;rounded=0;fontSize=14;fontFamily=Verdana;fontColor=#178BEA;" parent="1" vertex="1">
          <mxGeometry x="50" y="305" width="60" height="30" as="geometry" />
        </mxCell>
        <mxCell id="U0mhoktrUWDnmeh3DGQz-61" value="" style="shape=image;verticalLabelPosition=bottom;labelBackgroundColor=default;verticalAlign=top;aspect=fixed;imageAspect=0;image=data:image/png,iVBORw0KGgoAAAANSUhEUgAABLoAAAKeCAYAAACidXJ6AAAAAXNSR0IArs4c6QAAIABJREFUeF7snQe0JEW5gP97NydgCQtIziIIKgpiRjEHVMyAiqAoBkCi5JwlKhifT32IggEEFRUFRAUkKIhIzjlv3mV3732nuqdnOlR3VXVXz/TM/eZ4jnCnu8LX1X3p7/7/X0PCZ6wQGBqgiQ7SXAbosjAVCEAAAhCAAAQgAAEIQGAACYwO0JwGaS4DdFn8TmXowsuu5kL7ZRq0NjoK1iRWeNSwzGgSAhCAAAQgAAEIQAACEIBAHxEgZiF+sYaG4FHH4kV0eaaK4IoDRW55Xl40BwEIQAACEIAABCAAAQhAYEAIIHmiC4nw8rukEV0eeSK5EFselxNNQQACEIAABCAAAQhAAAIQGEMExrb4Qnb5W+qILk8sx5bkQmh5WjY0AwEIQAACEIAABCAAAQhAAAKFBMaOAEN2+bkVEF0eOA625EJqeVgiNAEBCEAAAhCAAAQgAAEIQAAC3ggMrvxCdlVfJIiuigwHV3IhuCouDU6HAAQgAAEIQAACEIAABCAAgVoJDKbwQnZVWzSIrgr8BlNyIbgqLAlOhQAEIAABCEAAAhCAAAQgAIGuExg84YXsKr+IEF3l2clgiS4EV4WlwKkQgAAEIAABCEAAAhCAAAQg0HMCgyO8EF3lFxOiqyS7wZFcCK6SS4DTIAABCEAAAhCAAAQgAAEIQKCRBAZDeCG7yi0uRFcJboMhuRBcJS49p0AAAhCAAAQgAAEIQAACEIBA3xDof+GF7HJfbIguR2b9L7kQXI6X3OnwUfA68eJgCEAAAhCAAAQgAAEIQEBkqP99TMMvY38DRna5LS9ElwOv/pZcGBgklMNi51AIQAACEIAABCAAAQhAYKAIINPU5exf4YXssr8dEV2WrHojuZBTlpcn9zDkVlWCnA8BCEAAAhCAAAQgAAEIDBoBpJePK9p9aYbssrtuiC4LTvVLLoSWxWWwPgS5ZY2KAyEAAQhAAAIQgAAEIACBMU4A6eV7AdQrwJBd5uuF6DIwqkdyIbbMS9PtCOSWGy+OhgAEIAABCEAAAhCAAAQgkCaA9KpjTfgXX8iu4uuE6Crg41dyIbd8PzKQW76J0h4EIAABCEAAAhCAAAQgAIGQANKrjpXgT3ohu/KvD6Irh40/yYXg8vl4QG75pElbEIAABCAAAQhAAAIQgAAEzASQXmZGbkf4EV7ILj31gRNd/gSV2zLNHj22BRdCqur64XwIQAACEIAABCAAAQhAAAKDTQCB5kd4VV0lgybMBkZ0NUdwqSU2tiQXUqvqY4XzIQABCEAAAhCAAAQgAAEIQEARGHvyqxmyK2TfnLFUuRsGQnQhuaosgXLnIrfcuDVrjbqNnaMhAAEIQAACEIAABCAAAT8EBkUk+KFhbmVAvIt5otIcwTQIa7TvRVezBMJgR3IhtyyeTyqeD1B2oDgKAhCAAAQgAAEIQAACEBiYKJq6L+XgSy9kl6811Neiq1lCYTAlF86m+FZr1hr09VigHQhAAAIQgAAEIAABCECglwQGIaqmTn6DK72QXT7WTd+KrmYJhsGTXIMquJq1bnzcwrQBAQhAAAIQgAAEIAABCECgmMCgirPBFF7Irqr3c1+KrmbJisGSXIMouJq1XqrespwPAQhAAAIQgAAEIAABCECgPIFBlF6DJ7yQXeVXuAiiqwq9AdtdcZAkF3Kr0sLmZAhAAAIQgAAEIAABCEBgDBAYJOmF7KpnwfbjGuk70dUMgTEYUVyIrXoeBLQKAQhAAAIQgAAEIAABCECgHwn0o9TI4zw44qv30V39ti76SnT1XnL1t+AaFLHV+3XQh7+yBuXi9yF6hgwBCEAAAhCAAAQg0CACg2M/uga13yTH4Iqv3gqvfloHfSO6eis3+ktwNc1p9Pbade35X9xR0y5KQ7AwDAhAAAIQgAAEIAABCIwpAog2aZow6b9L0jvh1bRrlys1L7zs6sZbnN6Jkuah6Qdf0rvr1YBfkf1wgRqAiSFAAAIQgAAEIAABCEAAAjEC/WdbvF2+fpAnzbw8vRFefXG9mi66eiNNmiO4+sGb9OYaeXuuEonVJZR0AwEIQAACEIAABCAAAQh4ItBM8+Jlcn0hUnrjmHL4dn8wTb9GjU5d7I5AaY7UilZt0+VWd66Ll2dkspGmg61hyjQJAQhAAAIQgAAEIAABCEAgINCncqzxUqX7nsliQdc/qCZfl8aKrnpkSvOkVnyFNtXD1HMtLO7NKoc0FWaVOXEuBCAAAQhAAAIQgAAEIAABnwT6UH41VbA0H6V/+dXYa9HE1EW/YqXZcks9o5rmZPzy9/kUzmmraQC7MOUyXYxK8++FMvPiHAhAAAIQgAAEIAABCNgQGBL/L/o2/fbdMc03NgmkTZMt/YHP373QNP5qcTQuosufZGn+S31T/Iw/5l14hDcFmoepIp48QKQJCEAAAhCAAAQgAAEINJTAQIm1/rA3wUpoinjpD2R+hFdTmEePgkaJLj/CBcFles774WzqpcT3AyCxkFclrjunQAACEIAABCAAAQhAAALS92KsoWan1xKmoVhSd1x14dVrzvEJNUJ0+RMvzZZcvfI4/vh6+O3TKwglhz5I4qrP0Je8YpwGAQhAAAIQgAAEIAABPYH+EA52V6/vpFiD4PdKyDQIQc4iqy67VMO94tso0eVPwjRXcvVCMPjjaveg1R7Vi4k7DheR5QiMwyEAAQhAAAIQgAAEIDCgBJovIuzB94UIawDwXkiZBky7YCENhuzqaUSXPxnTTMnVC8/jj6n9Q7R9ZC8mbDnMbgitBk/fkhKHQQACEIAABCAAAQhAAAK9ItANAdJoAdYNADkXF+EVB9P/sqtnosufkGme5OqF8PDH0+Gx3ouJWgzPp9Rq6BQtKHAIBCAAAQhAAAIQgAAEIDCoBHw6ocbKL5+TtFwICK8IVH/Lrp6ILn9SplmSqxdSxB9Lizu/FxM0DMuX1Grg1CwuCIdAAAIQgAAEIAABCEAAAhDoEPDlhhopv3xNzmLBILwUpP6VXV0XXf7ETHMkVy8kiT+OBXd5LyZWNBypfs0bNiWLRyyHQAACEIAABCAAAQhAAAIQqEbAhyNqnPzyMSkDVoRXf8quPhVd1YVHtcdEeHavpEltkqtXE9JcDB+RWg2ajo/lVr0NgFRnSAsQgAAEIAABCEAAAv1LoAtipJ/g+MDRKPnlY0KaC9gL2aWGUdN0SizR6rKr2wy7Krr8CJreS65e+QI//GLrulcTiQ+BKK0SD5qCUxpwTf1OiNYgAAEIQAACEIAABCDQBQLNsQpdmGxxFz5QNEKA+ZhIDFW3ZU3UtedplFxf/SW7uia6/Eia3kquXjkEL+x6NXgV+TYIMquH/Eo+iTgNAhCAAAQgAAEIQAACEBg0Aj22Hj6676kE8zCBsSu8+kd2dUV0eRE1HmRJ2WdcrxxHZW5dHnhVodXl4SaXQ087L7syOQ8CEIAABCAAAQhAAAIQgEAi7KhnOKo6pK4LsIoDHpvCqz9kV+2iq7KsCW7T3kRyddt9+GHVneJhZaVWt5kmnvI97bxnv2+0HZe9fs2aBaOBAAQgAAEIQAACEIBAMYGuy5MmX5CKYqfK1Mp23ZXrV3ZwKSDdFl+ehl3isjZfdtUquvyIm+5Lrm76ED+M6pVbZaRINxkis0ICZa5Tiacap0AAAhCAAAQgAAEIQGAgCXRFqjSVXI+sSZlua71OZQakuabdlF6ehuy4Mpstu2oTXX4EzuBKLj98/AuuMrJkLEmtMnwcnxgcDgEIQAACEIAABCAAAQhAIEGgVrmTx7o3BqXUboPe+Xiae7eEl6fhOt51zZVdtYguPxJn8CSXHy6xtefBMLmKGw9dOt48/mVe0QBcebhPhjMgAAEIQAACEIAABCAAAQj4JeBd9BQNrwdWxbVLLzxcOzVc0rqll+fhWi7QZsou76LLj8zpruSqW974YeJHcLmKnLrZtGfVpY5c5295d3MYBCAAAQhAAAIQgAAEIACBxhLwIn5sZtcl2+LaTaX5u3Y25oRX82SXV9HlR+gMjuTyw6O64HKRO7X6plobzz5NXOZt88xu8jHe11qTJ8vYIAABCEAAAhCAAAQgUBOBuqNuahp2qWYryZ8yPXoWRvEhuDRdet4unVjwqXOteR6qzWwsjik+xCcPb6LLz4v2YEguPyy6I7hqc0+1Nay/OfpdanlfM5UfMzQAAQhAAAIQgAAEIAABCLgS8Pmy7tq3j+NLS6CynddkZGyaLT1Xm8YdeNS1ZjwP02JGzYnsqiy6/L2g97/k8seimuQySZ9aHFQtjebfS6Y5WtyFxkNquZ7GXjkAAhCAAAQgAAEIQAACEICAmUBdgiTec2kZZB6+/oga7IypyVJzNDVaYv51XM8ahmmYWXXZpTqoyqKS6PInAvpbcvnjUJ/g8u6hvDeov1/qFFq1XLcSDzROgQAEIAABCEAAAhCAAAQg4JtAVVlQNJ5ScqjMBD2bmqLmSs3J8/h8SJ405hqG2HjZVVp0+ZMESK72Kikpj4pkUMkmc6xTPdeqTpkVTcTfei3zdK7pnHouR02DpVkIQAACEIAABCAAAQj0GQE/wSmNmnSd8iuaaClhZEPJo7HxLrxCQ2UzC6tjfF8nj0OzGr+IHxZlOZQSXf6kQXff1H1KH38MRKTCwPIkUYUmOwvXSyNhc92QWX0vtbp7O1g+oDgMAhCAAAQgAAEIQAACELAi4Ofd3qornweVlQllxuBVgnmwN3lNVBqnh3G1paHXtspcsSrn+LkhyqxPZ9HlT/B0/63el7fxxqDCgGoTXBXGFL8FBkpsdX+pGp8m3tagsScOgAAEIAABCEAAAhCAwNglUOYlu3ZafvxB7jC7OedKQik+g4pCqMnCy9f1qIio5LL2s1hdGTiJLn8v1903B578jXhhUHEwOolUqclKJ3fWe7fklpdrkLRyJW9a/6d5n5v/IdIiBCAAAQhAAAIQgAAEIJAi4PoiXitAP26hPcRuza0J0ksngyqPy4Nh8nUNPAylxNL1syBdGPRAdPWn5PImICpIJa9RXBXGkXRE9V5Pb9zVoCsM1es4SjwaOAUCEIAABCAAAQhAAAIQgIDLy36Glh/fEDRbaRwWl7GyXIr6KGF2Bj26qwQSiytmOqT64nNZc9aiy8+LfgXTYOKW870Pn+Nl7hUG4k1wVRhDhNd31JYXtnlrw3K51TqGkuuW0yAAAQhAAAIQgAAEIAABCJQhYC0EqruH3OFZj8Fygl7El6Phaarw8sHWEYXlVTIdVn3B2c7dSnRVFwGWxsHExfH7ql6n8rwrDsCL4KppDC6XojJHm84MS6wrY7AZp+MxvsWiY/ccDgEIQAACEIAABCAAAQhoCHgRLz0gaxQF1V2EcVbGMRhbUHv6VRyog+mpRXipOTqMQYekKseK3VtcpbxDql07m3kbRVd1QdB9yVXR7QRXo9K8Kw6g14KrqlypxM7mdumx1KrKx2aKHAMBCEAAAhCAAAQgAAEIQCDwIVWljgGjURxU8xLGi2js3zT+KnwcbE8ThVdVdh58m/H66g+otqhM8y4UXdWFRXclV0W/1OZfet4VBlAkT5yadTq4s+SqyJvSvPJuCYdl47vvKhxK3uGcZkug5Nq2bZ7jIAABCEAAAhCAAARMRqHayyl86yPgW4aZREJiJp6XhVPfKaSlOXgQXpWlpMMY4tOuwivZTn3rs9uyK1d0VRcIDraiIk9f77+l51xyACap4tSs08EhcFP/uR6qRF+JtkoujdLXJ9Z52TlXXKLup1dl7N4jZ0AAAhCAAAQgAAEIQAACrgRKygnXbqoeX1oAxTouLVQqirCy/Zaas8P1NB1aqv/AlpUDVpZTem2V7L7kEi0316izvDlrRVd1oVDSZDii8ekCSs255AC8RW8FtsqNdVnRU4pPaNOsP6X7yOmh7FytBuzI3apNDoIABCAAAQhAAAIQgAAEIBAnUKN1KC1icq6Qk2gp6Tec+ohLOtf0RkfuRYeX5uw4htCRlQSruaYemzLc09XGrJtzRnRVlw0OZqPkI8ynYyg93xKD6DfBVYpNj+pneZdaJa5vyeVc6bQ+GWalOXIyBCAAAQhAAAIQgAAEuk2gey/5FWfmeaClpYxJZZjGWcJ1lJE6zvMzjTs1b+/Cy7H/aDhl2ORdwpJDcFzYJRZAXGSmBpkQXaXERmL49Uou3y/1pefrOJB+ElylmBRc9lLtGW4Jb1LL8To63qmlDm/gkErNg5MgAAEIQAACEIAABCAwlgh0RwY4EvU0KGc5ZDHMQhFTwnm4ih3nOTmy9Cq8HPuuQ3apNksOw2I1tEfscGz20PgaaIsuP0KiHtHl++W/9FwdB+Jl98To+nnqW7dySvHIudSl2spZzv0gtBwvS6Ubl5MhAAEIQAACEIAABCAAgbFBoFap4KlxZ1lUcOlyRVXN0st5DiXYedutsUTfoaAqAbHwWtV1D1YfZzTXQHT5kRNIrraTyilMVUqKOJ7kIoecrnuNUVsuYzbeUo68itrz2JRx2K4HOF0718Y5HgIQgAAEIAABCEAAAhAICPiWBD6xevUXHhtzlkcpKL6ivVyunfOYS/DyIrxK9FvHOi45DIvl70d2DV3wu794MFQemkhN2bdkqCQGLAczkBFcHiO3vAottV4sr4vpbvLUjKmbwu8rrc9KPXMyBCAAAQhAAAIQgAAEIOCLgItc8dVnuh1vEsJbQ+EInWVSkWh08CEu18R5jCUYVRZeJfqM1ogLC5v1WWEoBc07XNycVjyILiRX4Fw0UVylBIrjSS7yyFqmeJJbLmMz3kSOXHTteWhCO0xrrsZJcoAbAf/PHrf+ORoCEIAABCAAAQgMOoHqL5yDTqiO+fmWER3J4WG0Hs2Gq1Sqmt7owtV1bGUKWOlQWvdb4Tq4cLBZMRWGUpvsqii6/L9o+pQRlQWE5WC8SC7LvqKV4CKRrDloLqf1ua2BuYwrxxrZ3EvGYxxxFrbnysA4uEoH+L/nKg2HkyEAAQhAAAIQgAAEIDAmCDRH+vkUFd4kRcWGrAVPa61pGVheIhd+ruNyFV69kl0KowsH0y1e8fLnNG95QTVnVxBd/l+4GyUnLAeTFjuWp3UuheMJLiLJWtBUFFwuY0qsQce5591cnpoRa16mu9zpe//3kVP3DTu4N9egYRAYDgQgAAEIQAACEOhDAj5fmvtw+rpX7a5Pw9c18CYtSjbkIpcGVXhZMyjJOFqcvtZMKM7qWPLlGi0puvy/nDdKVlgMpnIUl0Uf8WXiIpOsZUEFweUynmAejvOtU2pZ87G+T/3eD/7HZz0RDoQABCAAAQhAAAIQgAAEHAn4lAVh1+Ve7vOG7WN83iSGY0O2wmcQhFfp6C5Hprp14mONNEl2lRBdfl/qPToQPxE5FkKmkuSyaL+pgqvbcssRlfa57k8alVv3/vp3/G07Rg6H7xi50EwTAhCAAAQgAIGuE/D14tv1gfdJh+X5+pFg5fvvAK7sVxwbsJFe/S68kF25utbpznYUXeVe9otG1BiZYTmQ0pLLsv2IlYtUcnrZT11Cm3NdxlI2cssRT41Sy7zGbZg53YUVDm7SWCpMg1MhAAEIQAACEIAABCDQKAI+RJCvCdmNpboAs+uneFaO7qqUNSslvBzwuHCwGUuCmAWg0rJLdWTRvmldusw/V0s58DaNJ7ZIrA91EF1mAWDda+vARsgNh0F0Q3K5SCUnyVGn4HJgqC694+GZZeU079xFaV7Pfvqxuyu62ZfdiDgKAhCAAAQgAAEIQAACEHAl4EMS2PZp11d142DXT/6ond2L5Qk2kikzdgccLvO2GUubkMX8KskuD8LLZe5NlF2WosssBWxvxui4nssOxwGUKjrv0EctgqtEDS6rcbjMq8LS8SN/igfgp4/O6vfdnut9xfEQgAAEIAABCEAAAhCAQP8R8CEW4rM2t+dgfHJwmvvwJL9sxJChrlkjUxpt5pW6TE5CrQHCy2KKJW5W89q1EF0VTEXOkB08ibaFyjLBcQB1Si4rsRREQTlchzoEl0P/DocG19dpbvoVUXhzVG/fxxhL3L+cAgEIQAACEIAABCAAAQhAIEagilyKmjG3YRYJRRfF3H7ybCcZYjjYJIKqCK/QG9mxMY2jTcCivfQh1m13Lnile8h2znmdWEyxxPiKr4NBdDnIFcuhuUqQdLOVpEWJzp0ll2Uf3gVXCbkVSCYxXGOL+Vgc0r6Mla6fYazV2kZmWd7CPTus6vXt2cDpGAIQgAAEIAABCAwIgaovvAOCobHTqHp9zOfbSR4dIHPbnbOsxEhF4ZUrrSynaDsfayllmk/VyK5wwqXXru18myK7CkSXf8kViJUKzZZ+0S3Raal6XBb9GMVSa2VYz7WE4DKOwWYeltfReh6JO6K+dMNy4yn9PPB2Yr+O2xsAGoIABCAAAQhAAAIQgEADCFR94e/VFKqM23yuu0AxtxmSsnIzJknUgLRGK+FlmocGs1W76UVnBTW7Um2vmV501rXy9WsvR3RZWgzHsVr4k9wWS7/ol+jUOYrL0uAZBZNLGl8dxeUNrGxRul2r/LXm1k5y6VQ513FZOx3e1HE5TaIhB8OyIReCYUAAAhCAAAQgMLAEqrzYDiyUkhNrKssq4yo+115+2Y7B6GdMosggvEKxlgmdsrriNnOwklLGSWbln1W7Y0x2aUTX2JVcpaK4LCSXjeAKm7Fg31DBZTX2gtRDu/P1z5gq51o9tQwH9aL/XvTpgxVtQAACEIAABCAAAQhAoJ8I2AgM3/PpRZ/xOVTpv6r8sunb6IJ6JLxsxh7INJNwM05QH+lmbHcMya6U6LIQLSXvYhuHo2u61Au9Y2d5IsrYjPEAixpYDRVcFlOzE3MauVXqmtpyKrk+i04rO17TUOpq19Qv30MAAhCAAAQgAAEIQAAC9ROwFR+uI6mrXdM4yvarP88c8WXTX6ETarDwspJSpvHnILRqO2k2TZc+873NtdE1auHwnMfSOaEDJCa6kFxxokbRYzzALLmsREeXI7hM07Iac0pu2Z2TXM9lzqlwR1hKO7seuj32zKhMF9FuGhwFAQhAAAIQgAAEIACBsUGg3rdvI8Oy0kAvEswCyTgghwPKjD17jnnMpn76UXhZCSlkl8NqVIeGa6kluuqTXKqTMu/dpWSBQ0elo7gsJmSTqmicX98JruSAjfOLLVeXYx1XucYBVVvrtY7VYf3acqg2W9teOA4CEIAABCAAAQhAAAL9RcCsVkrMp0ZhZhI9ptFWPd/Ufvx7l75cpZep7aYJL9N4QzVjWI0W6yrvEGPbyQvncplDoWQxtnSjJU5xHNeQEl1X1fouXObdvZRMcOiodC0uD5LLam6Oksso1grYFGEzj9VdbpnbdFzDOYdX6afKuRqz5jyhWm9I59FwAgQgAAEIQAACEIAABCBQRKCUNPP4tl9GNkTzqXKuy6qw6cen9KpTeJUpWG+av1FIWa4X3WHGtgdQdjVOdJWSDN2QXBZ9mISTcW4DKriM83Z5QmqOLdN+mXO0w7RYF4EfrThHn6d7m7vPQdEWBCAAAQhAAAIQgAAEaiJgkgw1datt1lqKWYoN09jLzL3MOaZxJF1KMYVBFV4mrlZCymJd9IPsspiGy5LKHFur6LJ0AIlBOb+EO3RSOpLLog+fksvEwNRXUa6orwgu4xgtmJVZuaZ+dW2WOafdjsU86pZYlcZfBjLnQAACEIAABCAAAQhAAAK5BEzCoio6KxlWwRSUGX+Zc2w4mNpNfu8qyDoj6FqElzEL0TAHUxqjmpLFte+27DJdR91asJiGzRLSC+U6UxctHEHfSy6jdDLtFugQxWXsq5YURbf0RN9SxrU91+ODBWixUH3JrFLjK317W5xoMXeLVjgEAhCAAAQgAAEIQAACzSJQ51t0iZmWEQFaOWDTd4m5u47P9XjTsE3tuUR5FbVVl/BySWc0zTVwWSbhZXGNmy67LKZgWjb5Mrou0eX6/uwsABw6SAsi61MNBxrFk4PkMs2/sK8eCy7T2G1Xp2s7rsebhJYPmeU8Jls48eOsF3CZxjkHAhCAAAQgAAEIQAACEEgQqPONvNWRjfwwXRVjJJjjPFzH5Hp83nyKRVV6lvmzrkN4mQRUos+CC2LDytSXTWRXIM1S4zC2G78wta8Z06ou931tqYuu7+JOgsCh8VKSy6L9bkmuQRZcTtfcJA3T6z/nGjZKZlmss3K3NWdBAAIQgAAEIAABCEAAAj0n4CgJyogf2znmOheHMdrImaQjMaq3wuH3q/DqquzSmSwN1W7JLvc1YruC3Y6rRXS5vr87CQ+HxnsluQrn4ytVsUQUVzFn+xRFp+sVW48u57kcG3Sh4VFFajn3r7vvHNaq222rP9pGvvrohzYgAAEIQAACEIAABCAwiAScIl18AHCQTHVIMK2GchyTi9hwOdZWmPlIaSybzli0XnymMlqtS4vrNpZkV89Fl5NQcBAHdUguG5HgQ3J1N4qrXsFle31tj8uTWoHrcvhl49RfXrsO69E0NJu1ZWqD7yEAAQhAAAIQgAAEIACB3hKwkhK2Q7SQF6amXORSN6O+XMYVzdFHhFc30xl9yi7FwLi2LNZLE2WXxbBNyzzzvXfR5fruby0cHBruheQyziNmYYqOzRUeNUZwFY7HgXu0ukwsTN8nVmnFSC2nvuIdl5h3+u7qlrzyMFTnB4ep3pl7g5wBAQhAAAIQgAAEIAABDYE63oINoLvVpVFc2CyIkoN1EU1VI79MfZm+12Gwl17uNbzKRHhZR3fVvSujxXrohuxyvaYWw7a5G9rH9FR0OUkIy7d5Z8ll0a5JWNhGcY1VwWV9nbsptSyue9GdZFoTNndhxSFY7RZpMw6OgQAEIAABCEAAAhCAAAT8SzYfL++VZZjDIFzkRBX5ldePS//R1RpE4WXiYLUmDNe9tOyqaz1VK+eWuXm9ii6XF3dr+aGGbNmwb8llkhnGOVhEcZVJU8zDYVuSfVZ3AAAgAElEQVSDK+8443w0z/5K0WAVxJb1WC3XTnpqpmtfKMFscihLjsvXf4BY8/PVIe1AAAIQgAAEIAABCECgBwRM0qD2IVmIAYtDcodpJT10Z1t2asuvjPiyl1R2V8lOoHmM8CpgmHddbAvVqxmb2Buv/RiWXd5El+t7u/WLtmXDjZJclgXnXdMU+0FwFUe3peqB2T2vxPdaCdypU0WvzkCNy9F4gOWkHaVi+VY5EwIQgAAEIAABCEAAAhCwIWASDzZt5Bur4pAWSy+Vad4oQ+JnWHZiyyEzoyIxlPOdbV/JaehZJtuqX3hZya7AaOWvHNP8jde3x7LLNP70zC2XoPFW8yK6XN/tfYuLpkqu3MipIsmSA9NdcnWkkq8IrlLRW7GB2wQ6BRLKZkHZHNNa/q5SK7dphz7z7jyruRlvW/cDXBm498AZEIAABCAAAQhAAAIQaD4BoxioaQquL/zaYeTKILdBOzGwMA+2c0v4nBJiy7afiEaVCK/8c3NY1xjdZZq38XqOQdlVWXS5vvs7vehbNN5NyWUce5VUxT4UXLk8UnMxCS4j19B+WT29bYVOYXOWfcUHZDUHqxl0DrKdi2OzHA4BCEAAAhCAAAQgAAEIeCBgFAwl+jBJDRcBpo618FRBk9ZzsWjQNAfbSC87UWWGbNeOTRRYp69cDHkCLydsy1cqo/H61SG7LNaCSTrmXT2HpvW3xAW/u8rOIKROL+ECghashYBFB42RXF1MVczn170ILhvBVbSorNZAieufd5P4itCyGnfOIHoirUrd2eZfFBwBAQhAAAIQgAAEIACBgSDguQC2DROjkChoxCSQMqdWjACzGquFkSisxRUftGOUlysP38KrFtkVWsfcTzFL45aOhUu0VIF6i+sfTMnyuPQAS54mpSK6LByEFqCTKDB00kTJ5byropcoru4ILtvaW3luxXjtLRaVrSzKNGXRdrRgjePUrGzbcdn84itZOsyqaR8HleHjo1/agAAEIAABCEAAAhAY2wTKvih3jZpHaWYlmFITc+KTsge2MsFqXMbIoZzIKQvhlSdMnOZeIF1MNbx8pDMWMbSN7mqU7LJdPF2WXc6iy8EZJG49pxfkAZJcPgrOl43icmKeE21XJXrLVo7l/fKxEUjapWK5SF342IxFb3e79qvVPlqye0OiJwhAAAIQgAAEIAABCPQNAVdhUmliJcWYlWxqDcx6PhpZYeMvrMZSpgC9hfTSzc16vgV8TLIrX7blrIaaUhmRXcV3n5PosvQH+vd925MdJZfqrEq9pSKBUSxqOtN0LjqvGbBbsXm/UVy68dciuEpc2/hi6obUchJaHlIDXWRbpV+kFic3aSwWw+UQCEAAAhCAAAQgAAEIJAi4io468XkZi4MMs5JOLlE1JeSXcQyuqYldEF5l0xmdorv6THbphlv22qbvsSr3hY18jfqzFl22nkr3sHB6gXaUIYMquUxRXLlyzeFCWQuuWJvOqYmO1zO9fsqkIdqst7qFls0Yqv5i9dOHB1tXdSKcDwEIQAACEIAABCAAAe8EHCxRTt9VXsptp1OqD4epGQWFrfxyTHc09utZelWN8DILL/ti9dqp9bnsKns9dfdBqTXfashWdlmJLgd3kpmH08u4oxTpuuSqUnTeoR6XnllxFJcL514LruIoutQSslh8NnO3EluWzsemP9MvtmptWA7UNAi+hwAEIAABCEAAAhCAAAQsCDiYpVRrVV7qo6as27AYplFY1CC+CvvsA+FlSmfUS7Zce5r5Io9Ppt2c61tXGqNzcXpbC2W7xuwRZpmadl208AyFDwanF/qCznwWny+VrhhzCz6KzpdJVawaxdVLweVLbtmsp15KLZvxSQMqztuN0+J3PodAAAIQgAAEIAABCECgwQSsJVGtczAbKNdxWh9v7loqyy+HaK/cvhokvMpEd1VNZaxapL607DJuHpC8McpIS92tZb1+S8ouY0RXFdHl9DLtEM1lHJODMItzy69L1TmqrnpcdUZxWQsuNc0WO6cUxbxotQKhkzjFdO1N39uII4sgKJv1WnyMRScVfoHajK9C886nGu9D5xY5AQIQgAAEIAABCEAAAh0CDgEiXcFW9eXcPMh8K2XTt80x4kF8GfuJXbiia+givXJFUgTVQZQZx99q05wOmYVpHd1VQypjN2SXUYo63LS210EvyorvpkLRVeVF1vml3EFOlU1ZrCuSy2VnRd3YGyG5CgRXvgDUi508HrZyy7R2jBFbFr7J1Efo/HQNWTSec8/Z9Gn+5VfuiCr3crkeOQsCEIAABCAAAQhAAALNI+DwHu598FVe7EVjqGzasznGJL9McqOwDwvp5SK81EXRyqQC4WUWVvmX2nzu4MsupxRGxxvMan3mXJ5CiZqXulj1xdjppd4hYqerkiuwHSHVXkRyOUVipS6+9bk1Cy4fcqt3Ysteajmtd8tfmVXvQctuLA6z52DRGIdAAAIQgAAEIAABCECgIgGLsKSKPdic7vhOb9OkVuIUaJjEVzbSwOaYKuKrivTqX+HVA9lVcAvUEdkVX+sm8SkON4bVeiy4c/K60kZ0VX3Bdnrpd5BcoXDKmaVDRFi8hcKxdl1y+Sk4n56Tdo4xXtq4JX3oWQZ+legt51pnUe8W3sW0BrPfmxs1tZl3/1W9n6x+IyYOMs/FvU3OgAAEIAABCEAAAhCAwKAS6K44c/AAziIrHfllEgmm74MBFEmVgi9z2y4b5aUBVxjdFYzdLKGsGORFkiXaT/ZVexpjF2WXU1RXDve8p4ct//zzs994F11OMsCX5CowYKXSFYP2QlhOkVya+bimKlpHYmmustW5BYLLJMQSglBTF8smesuJp6XYMq25OqSWH3nVDCFl4jeo/znDvCAAAQhAAAIQgAAEBpNA1Rdnf1SqCzSTFLObq1nAxOdsbLOE+CorvVyivNJ9JIaZKZhvFmAuYqbTt1272uuqk3I5IrHdn2/ZVbDgmiq7dEPOiK4qL/BOL8wWHcUlVZmUxbEiudLc/3XjdXLbrTfLQ/fdJ7Off1ZGRkb8PatpCQIQgAAEIAABCEAAAhCAAAQg0KcEhoeHZfkVVpS11ltPXrL5lvKyrbZJzMQo+ozRXWNDdhlTGBVVk6mNkbfhni8fk9/0RnR1QXKpaean1eVE0sR+7BR5VDqSKz9V0UYa6gTX7y+5SJ579uk+feQwbAhAAAIQgAAEIAABCEAAAhCAQPcIzFxxZXn7e9/vRXglZY05ks5bZFcglfTM8gRSoaiyjOzyKbtqE10W/il3tdmImeBki06qRnI1TXIV7d5nlW6ooZ4+7ze/ulCuvuIP3Xsa0BMEIAABCEAAAhCAAAQgAAEIQGBACLx+u7fJuz/w4cRsbORL8c6M5uguZFcHuQ3vvOWWKJgf33XRwkFp26xLchV6sRLF53PHWSaSq3QUV6jhwrklI8tsOOqOQXINyJOVaUAAAhCAAAQgAAEIQAACEIBAzwjoZJcajI2AydQIa5sXs+wK+9BMO11bzFSzK2hIj89nZJdzva7cCWbHasNaN0Ot6CoruXTCJseGGRdrOtXQZ12uZkguveCyZagTYzff+A/56Y++Z2TLARCAAAQgAAEIQAACEIAABCAAAQgUE/jYJ3eXLbfaOiO3bASMS3RX2V0Z89IFE+35kl2WKYyhX7PYfMGiZpcN57wrGDXfrtFVVnTZRCEFg+jCDotBN5rdAAtFkuvuiqUjucpLrqL0xpOPOpiaXDypIQABCEAAAhCAAAQgAAEIQAACHgioml0HHHF80FKxuNJ31gjZ5Ut0hRByqTpHdlmIrjzuNpc2IbqQXPri9BlpZiG5XOpx2UjCovRGorlsljrHQAACEIAABCAAAQhAAAIQgAAE7AlEUV3RGflpifltVkll9JLGOIZlVxDRVUZ0WZ/U8EgutSy1EVPpyLCGSS417vN/9F255cbr7e9WjoQABCAAAQhAAAIQgAAEIAABCECgkMAWW71KPv7JzyaO6RfZVUsKoyLRJ5FdaphDP/vtVfpwJsPCtxJdFgbNui5XF4vPa9MfM4Xjk4B8RnJZFakfHZWTjz6EtEUe0BCAAAQgAAEIQAACEIAABCAAAY8EgvTFw4/Tyh1X4eU1sksjm3S1sbotu5xTGA3iLLqUZet1lRJdVpJLjawL0Vx5NbnC7jUOz7DDYuMlV2tOahqHfvULMjIy4vF2pikIQAACEIAABCAAAQhAAAIQgMDYJjA8PCzHnnZup7x6evdDw7+n6TVRdhVJpNzC8v0S1eUa0dUkyRXILJfi812RXJ1OrCKzYneA8fiY5FKnHbz3HmP76cPsIQABCEAAAhCAAAQgAAEIQAACNRA4/oxvB622S13VJrsSvYR9ZvpKTdBTZFee7CrcQbEPZJdzRJcP0WWdrhiYrPzMSifJFVqx4GNVk0vTd3oo2Xb87KyYaTcluKIljuiq4WlGkxCAAAQgAAEIQAACEIAABCAw5glEoisCYSO8TKl2VXZkzPglV9nVxOL0Ne3C6CS6+kFy5YmsIskVOrCUUHOuyaWXXCZmrlFc0U2mzjtkn8+P+YcPACAAAQhAAAIQgAAEIAABCEAAAr4JHHf6t7KRVW3rlbRGddXtco3syovEarejkV2lUhgVB1+RXTXIrp6KrsISXiUiuUySK+9717pctpFcdUouNRdEl+9HGe1BAAIQgAAEIAABCEAAAhCAAARElOgKfU5KavVQdlWO6gomlL26dcuusqmQ8ZGaouUSx9rW6DJJm3ajDoKqjOhqZvH50Uw6pIlXmUiu9DmILh6/EIAABCAAAQhAAAIQgAAEIAAB/wQi0dXxWh1DZJPGqJNk6VHqI8FM0WKpVlxTGH3KroZGdVlHdJnEjavoKiO5VB9lRVc363KZWBVKrpx6XLq6XYd89Qv+72ZahAAEIAABCEAAAhCAAAQgAAEIjHECx512biY9zya6q0oaY+fcmmXXgEd1WYkuk7hBcuXvtJh+NviSXKpdRNcYf/IyfQhAAAIQgAAEIAABCEAAAhCohUAgutTHtNti1HvsOGRX55LE8XUrhbFvRFfZSC6FNyOX0oXnw4MSN0eZHRZNQjD+ve3OionjUoNCdNXyPKNRCEAAAhCAAAQgAAEIQAACEBjjBNqiy0ZkaY4JHVks3dFQdF1/rP/IroSE8xXZZZnC2BjRZZI3hXao9WVcUpVJWXSWXIG4Cju3SlnUDCr+Ix/F531LLsXk0K/uOcYfPUwfAhCAAAQgAAEIQAACEIAABCDgn8Cxp50jGTFTFLVVUXblR4Hlyy6tX8oUz8/arKJdGNOCLk02V1ZVlV2Wuy+axhd8bypGby26LIvQ5x5meX4ccu7YPEqurCwLGzcWk48N1FVy5UV7RU1G4g/R5f9hRosQgAAEIAABCEAAAhCAAAQgAAElugJpkt6msCCV0aZIfeEOh7lt50eGdVt2lYnK6nb6YqHospZcofnR3gl1RXN5kVyacRenLPZWcqUj2xBdPHwhAAEIQAACEIAABCAAAQhAAAL+CUSiK2o5IXiaLrtcd2LUpDAGki8nyqrpUV1+RJdlNJZrNFdeyqJJcoX+KlVzy1Ndrl5FcqVZqOkdti+pi/4fZ7QIAQhAAAIQgAAEIAABCEAAAmOdwDFfPyddhz4Z3dV12dX9el0+ZVc3o7qqi66qkiu0Utp7qKzoGmTJ1UY1OiqH7ffFsf7sYf4QgAAEIAABCEAAAhCAAAQgAAHvBI459ZvtHRdzJc0gya6mRHWFds14PQtTQPNqdFmnLVYVXZ4lV+jNDNFchh0Ws21kUxaL+FSqyVUw9rjkUmNEdBnXPgdAAAIQgAAEIAABCEAAAhCAAAScCQSiKyZdCiOScorU+6zZ1RE7xTs5ZhyRoTi9aRfGEIFePLmmMHYrqis3ostKdFlKrlAc5awrB9HlJWXRsMOiT8mVaavVdxxFYk4OkgvR5fyc4gQIQAACEIAABCAAAQhAAAIQgIAVgbboqkF25e+wmB1a/Fgb2VWmOH1Z2VVFdAVY04X+49OvENWlFV1WkqvQXolYFaF3kFxZAdUiELNGxkguzZiLi88HJ1jvsFhYv8uz5FJ9Hb7/l6xuUA6CAAQgAAEIQAACEIAABCAAAQhAwJ7A0ad8IxnJ1BIvviK7bGWX/rju1+vqp6iu8qKrIJqrpYfaK6gb0Vw6OZep8WVIWcy24SllsQbJpeAiuuwfUhwJAQhAAAIQgAAEIAABCEAAAhCwJaBEl/oko51CwVSH7CqsOaVNjawmu3TRVO0xONTrqhLVVRjRlQadc+F03GoRXd2O5hqLkgvRZft44jgIQAACEIAABCAAAQhAAAIQgIAbgUh0Ibs63JoY1WUluqzSFpsQzVWQsqguQ7VormZHckXzO2L/L7vdqRwNAQhAAAIQgAAEIAABCEAAAhCAgJHAUaecnagh1Q+RXdk0x9Q0DYXps1Ivi0krlvJqbeUVsY9FjNUR1ZWJ6PIpuvo5ZbGw3lbsWufusFhTumJc4iG6jM8mDoAABCAAAQhAAAIQgAAEIAABCDgTUKIrED8xidNr2VVHva5epzD2hejynbaoFW+taK5epyzmSq7ARiVjyjJjjVlALbP4921pFg9jEzniACK6nJ9WnAABCEAAAhCAAAQgAAEIQAACEDAQOOrks5Xlan8iIeMku9IRVPFaW4FFy6+zlZsm2IB6XV2N6iqx+6J7RFfVtEWHnRaLJFfokmLip7X8XFIW6yw+nx5Zoq8SkiuYr0SGL5xsU0XX+KEhednUKbLO5Akyc9y4YKzPLVsm9y9aIjcvWChLDWuo7ifu+HFDsuW6w7LOrCGZOS18sDw3f1QeeHJUbr5/RJYuy66ruseUaH/ckAyvP05ktXEyND0c3+i8UZHHl8nIvctEej2+rsKgMwhAAAIQgAAEIAABCEAAAt0nEIiuQEZF/9eRUmVlVyYiK2hf367P4vQZV9SAFMbCgv7py22QXRmuP/vtVe23+qppi/0dzZWtyxUIhjwxp4m4Co1Eq53YhalDcqnmmya6Xjltquwya0V59fSp8sLQsEyfPEGmjp8QkFiwdInMW7REJo6OyLXzFsiPn3xWbpi/oKtPq602GCe7vGmCbLPxOFmybEimTxmWqZOHgzHMXzQi8xaOyKRxo3Ltncvkx1cukRvvWdbV8Q1vNF6Gt58iQ5uOl+Fl42Tc1PEyNCUUhaMLl8myBUtkZPyIjN62VEYuXygjdy3t6vjoDAIQgAAEIAABCEAAAhCAwFgh0BZdNcqutuJylF36FMbYQNO7RWaDx7LRZJo6W0W7MDY5qisR0WUUXVWjuWIiKH5zZKKw8gRTQQF6l0guvcCyL0Dvoy6XbbpiMNZUJFc0/iMP/EojnjErTxgvh625mmw1fZqsvsIMmTZ1sgwPhQIp/RkZHZH5CxbJY8/PlRvnzZejH3pcnllar7BZacaQHPqRSbLV+uPlRatMlOlTx8nwsH6/1JGRUZm3YJk8+tQLctO9S+XYCxfL03NqjvBabljG7zRNhjeZIBNXmSYTpk2RoZzxjY6MypL5C+WFp+bLyJ1LZOl580VmjzRiHTAICEAAAhCAAAQgAAEIQAACg0LgyJPOkmTkVjiz0jW78mRWBKyC7OqMMz8VMhh7+jXYENmlm3/8+lrLri4UpY+PpS26jJIrR1LlCSutE/OUttjLlMWmSC7FvQmiS0VxnbruGrL68jNk5nLTnZ5pz82ZJ4/Nniv73v+I3FhTdNdW64+TUz49KRBcKy4/0Wl8z85+IRBe+/9wcW3RXUMbjZfxe8yQibOmyqQV3Pgtfn6evPDEAln2nblEdzldWQ6GAAQgAAEIQAACEIAABCBQTECJrlAOJQp19bXschVdiflrYkWsRZfWsiXFm8+i9PaiqyHRXFUlV+jr4hE6/lIWE63G+/BUkys99l6LLiW5vrn+mrLqiivI1CmTSz0nFyxcJE88+7zsee/D3mWXklzf2GOyrLrSJJk+dXyp8c1fuEyeeHqRfPE7i7zLrkByfXmGTFlleRk/bVKp8S1dsFgWPjVblp2F7CoFkJMgAAEIQAACEIAABCAAAQhoCESiq6uyq0JUV3KcOfXESkR1eZNdXYzqCkRXP0dz6dIeozpZoRhKrlhdAfr0z8rU5fIpuRJzyknXVGM86qC9evZAUumKP994PVl35ZmlJVc0+PkLF8kDTz8nO95xn7c0RpWueOH+U2S9NabItFadq7KwlOy675GF8uFTF8ozvtIYlxuWCYcvL1PWXF7GTy0nuaL5BLLrodmy5JjZInNIYyx7nTkPAhCAAAQgAAEIQAACEIBAROCIE89MRHPlpfFV3Y0xkXIXWqX2RUh8lyuKdOmKDimMmnbT0VV11uryWZQ+knJ2ostilzxjIXqbHRJblzMjmqLNBm3aSB2TDKzK7IUY9Jibjhi7x32mLLbHlFPQPq8mVzSccCxKdO3ds6fQmeutKe9YfZZzumLegFUa42WPPSl73fewlzmdvttkeecrJzunK+Z1rtIYL7thkez9/UVexjf+CzNk0rbLOacr5nWu0hgXXzNHlp4718v4aAQCEIAABCAAAQhAAAIQgMBYJnDEiWeEFblyxJPrbowJedTjel0+UxjzdofUpiLqpFoiM1RfSzuxDi12YBz66W+uNFfabmjaYrVorh6nLFaUXOpC90p0qZTFM9ZfSzZeY1Wvz707H3lC9rr3ocopjGp3xdM/M0VevN5Ur+O7/b4Fss//LKycwqh2Vxz/xeVk+vqreB3fvHufkqXfnEO9Lq9UaQwCEIAABCAAAQhAAAIQGIsEQtGlPtVkV27EUpHs8hLVFY49+mR3aoxd1W5FdXUhfTGYtVF0DXA0V89SFj1Irl6KLhXN9Z41V5MZ0/yKpLnzF8ilDz9eOarrjN0my3u2mSrLTS9XlyvvIT5n3lK59LoFlaO6VDTX5NetIBNn+OX3wtwFsuivzxPVNRZ/CzNnCEAAAhCAAAQgAAEIQMArgY7o6mfZlZ/CONBRXVVFVzqqyna3RV00lrY2Vk7aYub8gpRFtSxNBejL1OUK2m3dSonzi4rPe5Jcqr+jv7aP1xvZprHxQ0Pyt803knVeNEuGh4ZtTrE+ZmR0RB549El57a13yVILwaprePy4Ibn6+Kmy3hpTZXjYIuzRenQiIyOjct8jC+T1By+QpcvMgZDapscNyYTTV5Dpa68iQ57HNzoyKvMefEqW7PO8SNnxOfDgUAhAAAIQgAAEIAABCEAAAoNK4PATTk/uuNjFyK72m2yFyK5OBJdlVFfg81JiLBYRFn7d+r7KDoyG9MWWVixeVqb0xULRZSEbytTmCgVRVhR0pzZX91IWM2xMkitmzrI1wTq8ou96Ibq2UmmLG6wtm7xoVi3PszsefVL2vufB0umLQdriblPkxev6jZaKJnv7/Qtkn++XT19UaYsT9lxepm2wci385t/zjCw553nSF2uhS6MQgAAEIAABCEAAAhCAwFghoERXQu6E/6av2ZVTZypZwF6d26HXrmHVwxTGuqO6tHW6NEIt/aPc8+KLr0B2FacuOtTmChyNLsjFpoB8a7C2osslmku3y2I41qw4St+wRQXoXXZZTBefT7QbF36a6LWo8Hw0tvi5vRBdO660vBy6wdqyxooza3m+PfLsc3LsPQ/KL56ZXar9D247Xg75yFRZa9XJpc43nfTwE4vk2AsWyC+vWWo6VPv98OsnyeSdZ8rk1Zcvdb7ppEWPzZZF//ecjFy92HQo30MAAhCAAAQgAAEIQAACEIBADoFIdIUSJh7CVFJ2tdroBEXFrVfOTospA+S6C6Muqis9H1fZlRfV5bMofTDGVDRZ5jKVEl2O0VyhPNKsEEvRZSu5gn7S0WDWOy1mo7nyUhbD+Wiiv6KftaZaJWUxMQ9HyaWGcczB3U9d3H3WirL/hut6220xvWLU7oun3H2/fO/JZ0s9cHfbfoLsv+M0b7stpgehdl885Rfz5fuXLyk1vnHvnCyTP76St90W04NQuy8uOv8ZWfY7P7tDlpokJ0EAAhCAAAQgAAEIQAACEOhzAocdr1IXO5MoK7usorpyhFZRCmOeWMqKrKiVHJmWTkM0pC8m2k+dqxtTmd0XrURXill8ueVHdA1oNFdtBegd63LpJFdWrumjzqKuEF3ZJyeiC9HV579PGT4EIAABCEAAAhCAAAQg0AACSnSlXUqe7ErKrJgca0UlucquRORWjgRLC62E6EnLquDf/RWmb3pUl1509TqaKzA+4WXKiKkeR3M5pyya6nLFGsxGkOki0KLlOyrHHPzVrt/+Yz118aEnFslxpC52fd3RIQQgAAEIQAACEIAABCAAgW4SOOz409pySB/ZFYqjSProZFc8milPdiUinhzrdfUqqqsxRenTJrK1QEqJLqudFkNLlVmHVYrQl09ZDM1ZpWiuiimL2rpcFSSXmlEvRNcrp02V02suRr/PPQ/KDfMXlHqGqWL0p+02RTatqRj9f+9fIF9tdDH6p2XJObMpRl9q9XASBCAAAQhAAAIQgAAEIACBkEAougKT0hJaHTLp2lfOsmsopzB9Sty02426btf5yt9JsXOoLoKrN1FdtumLOm9VplZXVnT1aTRXethJqWVfm8u5AL2HlMW8HRaTP4+Wa8eO9UJ0jR8akr9tvpGs86JZMjw07PUZODI6Ig8++qS85ta7ZKnFOtR1Pn7ckPz1+Kmy7hpTZXhYs+dphRGPjIzK/Y8skNcdvECWLtMVpLNofNyQTDhjBZm+1ioy5Hl8oyOjMu+hp2TJ3s+LlB2fxRQ4BAIQgAAEIAABCEAAAhCAwKAT6Igus+zSFonX7LDYyxRGXWH6dERYsuZ+SorlpT5qXrt7XavLWXQNQjSXTQF6tZTbxzlGcwWHa1IWyxaf7zSVrNl17CH79uTZcuZ6a8p71lxNZkyb6rX/ufMXyKUPPy573XZSc1AAACAASURBVPdwpXbP2G2yvGebqbLc9PGV2kmfPGfeUrn0ugWy9/erFXof/4UZMvl1K8jEGX75vTB3gSz66/Oy9Ny5XudNYxCAAAQgAAEIQAACEIAABMYagUOP+3pmt8VAebXEju/i9KYUxnRhepsdGMPxpqO/Bj+qKym6LKJomii6mhTN1R6LZsfGNrvclMVs8fnk3JKRab0SXSp98Yz115KN11jV67PuzkeekL3vfah02mI0GJW+ePpnpsiL1/Mrkm6/b4Hs8z8L5cZ7llWa9/BG42X8F5eT6euvUqmd9Mnz7n1Kln5zDmmLXqnSGAQgAAEIQAACEIAABCAwFgko0ZUURXFhFBJxKU6vrdfVTkVstRePmtKlKcZNm1ZiZa+UXojlpz76iOqqEtGVmmLIORVNpl2PcaH3099cGbcrheu3dsmletcUoXepzRU0kbBDydpcedFczimLYUcBr/j4jNFcniSXGu9xh+7Xs+eNiup6x+qzZOZy072M4bk58+Syx56sHM0VDUZFdb3jlZNlxeUnehnfs7NfkMtuWFQ5misajIrqmrTtcjJpBT/8Fj8/TxZfO0eWnkM0l5cLTiMQgAAEIAABCEAAAhCAwJgmcMixp2oKzfuRXVYpjI6F6bPirXP5iqK6CtMXNdZJL+yKBVv0bbdqdTlFdNUuukrstFhrNFcXUhY7gi0ZrVUUyRXJvF6KrpUnjJefb7yerLvyTJk6ZXKlB+CChYvk/qefkw/deZ88vWRppbaik1dabkgu3G+KrLfGFJk2ZVylNucvXCb3PbJQPnLqQnl6TsnaXOkRLD8sEw5dXqastbyMnzqp0viWLlgsCx+aLUuOnS0ye6RSW5wMAQhAAAIQgAAEIAABCEAAAiJx0ZWUSEWyK2cnRod6XXWkMI6JqC5tRFeNaYtWOy0G9ia8nbQ7FEZ3Wmqc8X/NRmvVFM2lKUDvkrJYpvh85pxRkeMO611El7ocKoXxnPXXlFkrrlBadinJ9eSzz8ue9z5cOWUx/TBWKYzf+NxkWW3lyaVll5JcTzy9SL74nUWVUxbT41MpjOO+PEOmzCovuwLJ9dRsWXbWXFIW+W0MAQhAAAIQgAAEIAABCEDAE4FDjjk12HCxSBLF0/zixd6LitM3J4XRT62u9lzLFqVP5Ep2Ll76xy7pi52ILoPoIporkXMYCrnIzEVZjEUF6A0pi0U7LOokl+q/16Irkl2nrruGrL78DOc0RpWu+NjsubLf/Y94l1zR7aFk1ymfmiQvWmWicxqjSld89KkXZP8fLvYuuaLxBbJrjxkycdZU5zRGla74whMLZNl3kFyefpfRDAQgAAEIQAACEIAABCAAgYBAILrUp6LsSqYpRk0mI7/Cfobahe7DbttV79tXJGqrTGH6sRTV1RPRpa2T1e/RXI67LIYMiorP674b7US9yagcf9j+jXgEqTTGw9ZcTbaaPk1WX2GGTJs6WYaHhrVjGxkdkfkLFsljz8+VG+fNl2MeftxbumIejJVmDMmhH5kkW60/PhBe06eOk+FhjW4WkZGRUZm3YFkguG66d6kce+Fif+mKeQNcbljG7zRNhjeZIBNXmSYTpk2RoZzxjY6MypL5C+WFp+bLyJ1LZOl580lXbMRdwCAgAAEIQAACEIAABCAAgUEicPAxp8RkUyeyK12AvuWoWq4q/p6pxFVKaFVMYUzIqnjHpQvTdz+qqxt1uqxEl3U0lwKdTi2MyZxo0WdEVwNqcyXGZFGbKy+aS5t2qZN4MdEVnVNUlys4Jh4V1iDRFV1Xlcq4y6wVZdvpU2Xx0LBMnzxBpo6fEHy9YOkSmbdoiUwcHZFr5y2QHz/5bG1RXHkPVxXdtcubJsg2G4+TJcuGZNqUYZk2ORRy8xeNyLyFIzJp3Khce+cy+fGVS2qL4sobn4ruGt5+igxtOl6Glw3LuKkTZKhVX2x04TJZtmCJjIwfkdHblsrI5QtJVRyk36LMBQIQgAAEIAABCEAAAhBoFIGE6Aqkkk52FdfrKpPCmEiHdIjqCr2XJlIsRrWxUV056YsplxfKxKIdGKP5B7su+kpbtBBdttFcQVMJs5MsAt6o2lw1pyzqJJfi05SIrvTTaPzQkLxs6hRZZ/IEmTkuLAT/3LJlcv+iJXLzgoWy1KIeXJ1PuPHjhmTLdYdlnVlDMnNa+CB4bv6oPPDkqNx8/4gsXeap4HzZSYwbkuH1x4msNk6GpofjG503KvL4Mhm5d5lIr8dXdl6cBwEIQAACEIAABCAAAQhAoE8IKNGVESsFsstUr6tMCqOuMH1TorrSwsmlVldGVvkSXS0zFkZ0+RJdmnay0WApidAv0VyeCtDbpix2orwiQOHTIOKpvj/h8AP65BHBMCEAAQhAAAIQgAAEIAABCEAAAv1D4GtHn9yJkGpHVoXjz0ZORZFUye9b/5abwli1MH26Vpd+bEnmTYjqqjt90Si6GpG22KCdFutNWQylVl7x+bjkUschuvrnIclIIQABCEAAAhCAAAQgAAEIQKB/CCjRlRBHMdllsxNj1V0Yi1IY+y2qK1nXrK3/0gYud3E47cCoivqbIrp8iq5+qM0VjzdrjzcvmqtCAXrXulxpyYXo6p8HJCOFAAQgAAEIQAACEIAABCAAgf4iEIkuk+yKC61ohpGY0ckuXYpfFOGUTG/s7MJYNoVRJ5ji80n+c7zeWLpIfezapayTbQpjeiy1pS8GouvSKwoLElmLrrrSFh2juRT+TNpf6n7KRExF3492ZqsvTh/fCbFTeN+mAH2plMV21qJ+B8YTjziwv54UjBYCEIAABCAAAQhAAAIQgAAEINAHBA466iRtcfe2oLGo15XeoTFvF8a8FEanwvSxg/URZ0noeemXHVmXLbTfbiHeV6o4fF6tLqPoCq2bdmU4RXSpZlxEV2EpL8Nui7ZF6NNiLV4/LN1/ss2ctD8NJq0Ii0muuCxL9N8qjh9umKiRT1Hx/PjuiNEOjoW7LCbHnld8Pj1uRFcfPB0ZIgQgAAEIQAACEIAABCAAAQj0HQElukL3ktzJMBld5VKvS0VoaXZFbLmdQYnq6kZR+sKdF02iyzqaKzRDiYXrpQh9hWiuhKyKjUwbzRXJKN1x7e+Ko7mSO0SGDSXFVFpmxXHli650ymJ8/IiuvntWMmAIQAACEIAABCAAAQhAAAIQ6AMCkegqlF0FUV3heeFES6cwqjS8WJBTJ5osK8zShelNUV2movTJcWuCreqI6vK0+2JhRFeTRFe/RXNlhVqe6ConudSiQ3T1wdORIUIAAhCAAAQgAAEIQAACEIBA3xGIi66ysqtIdCVEUp9HdTWtTpe16PKathjVnjJEgeWlLWbTIO3SFm2iucrU5iofzWWWXGrx61It1c9OOvKgvntYMGAIQAACEIAABCAAAQhAAAIQgEDTCRx45ImxSCxdiqJIuXpdmhRGTdRWJwWwOKorIeEiqJoUSe3Oh9q6XulC9Dm1unpclL4ofTFXdDUpmiuUPZ3boAm1ubpVgD5PcikaiK6mPxoZHwQgAAEIQAACEIAABCAAAQj0IwEluuISKSGUIpEUFWLvYmH6Xu7AmMksbGj6YnXRVXK3xXRUVt1F6GuP5vJYgL6oLld8HoiufnxcMmYIQAACEIAABCAAAQhAAAIQaDqBSHTVI7scC9MbanUlJFwE1lNUV2a3xHjAl01UV2ojxW7svmglulzSFhXTwkL0NmmLjkXoM9JMJ98Sux+2rnzeTovBJFpphZqdFstGc3WGZU5Z1O4MmUpjPPmorzX92cD4IAABCEAAAhCAAAQgAAEIQAACfUfggCNO0O+SWLQToyGyKyl58lMY41FbuhTGdFH6jIwLf9Bmrt3tsfVtVmSp8yzTF9P95J0XT800yLFgWJZF6fPSF72LLt+7LfooQq+N5mrJrPheke3jXHda7HI0VzRORFffPSsZMAQgAAEIQAACEIAABCAAAQj0AQEluuICSbdLYVsglUph9BvVlRhfjuhKC7HoMph2YLSN6up2UXon0WVdn6tk2mLomDp2qOlpi8FQ4+NNi7BUlFpnbrqdFstFc+kivBBdffB0ZIgQgAAEIAABCEAAAhCAAAQg0HcEItHlS3bpdmDUtu26A6MucqtjsBKyrm7RFbQfi+rqRKMlL3/d6YvaiK64eOp62mJowdoUXIrQpwVa1Ig2DTAvbVEj4OKiq91WK6Ux6EMrunSSq3NwYkzR+e00yfxdJONRZycffXDfPSwYMAQgAAEIQAACEIAABCAAAQhAoOkEDjj8+HYKnS71L/2zbu/A6LMovT59MdRWHWfmb/fFKqIrlHWd1aOL6mqe6LKuz5Uvg+I3jE3aYqLGl642V0y+ZURXL6K5WmNEdDX90cj4IAABCEAAAhCAAAQgAAEIQKAfCQSiK2ZVfMiuylFd7QLzraG1UyY19bhSRkifnhgTRprIMCvRle6nAXW6youunFCvZDRYvAJWNvIp8EfxyKiYUEr9YyLVMbwUo5mfpYvSh23Eo8PaVirRa7o2V3xcTY3mUmNEdPXj45IxQwACEIAABCAAAQhAAAIQgEDTCdQhuuJOqCOe8ovSB8e3xFFhUXqNkAvP7YQ/uYiu8DSHovQFBeZt0hfzam3lFaV3juiquz5XZofEUqLLLporLrrSUVuR/iqK5mrLttSOjW1GTtFcSTkX9FsyZTFsSeQUUheb/mxkfBCAAAQgAAEIQAACEIAABCDQhwT2P/z4TmxSO5IqjJwqV5g+OjeEERdd8X9Pi6Ei0RUXYdpdFuNmTbNbZPqyuBSlT7gtw06KQbvJjRwTDBPziA8qZ/fF9I8zRfB/eukVibCrntbn6kbaYjs1MaRnTFtMSa6WrmqdnGwjbKtabS5dBFp2N8iwX0RXHz4tGTIEIAABCEAAAhCAAAQgAAEINJ6AEl2hgGl9DLLL+w6MqaL0obOKfqiiwMJxdWqD5aQvhieGx2rTEzuXorToivWRGFMbXXuw7c7qrNOVSV20El0WaYtq9EmJFM7H126Lmcgw3Q6QdaYt9jiaS7FEdDX+2cgAIQABCEAAAhCAAAQgAAEIQKAPCbiKrrhIyi9M7z+qy6UovYvo6sxHX5A+5baSFeItdl+0El2ZTuJSLvbP6bpgpSK6LERXpl5WSgwF0qvBaYvx2lxxQVectti9aC7F99RjDunDxwVDhgAEIAABCEAAAhCAAAQgAAEINJvAfocd146AakpUV0IODTlEdWkiudKiKboapaO6GlSny1tEV7a2V7YQfWF9Ls9piwk5FbWdl7YYj/xqpx4G4WfBtTbttNg5xiy6StXmyhk3oqvZD0ZGBwEIQAACEIAABCAAAQhAAAL9SUCJLvXppCS25hEIJvdaXdmaXGF7uqL0iZ+nUhRdi9LbSLr4FSotusJBt5vK1M2qsU5XYY2ubqYtBnIoHtGVSDNM3ghJQVbfbouZ+VuKrm7X5op4ILr684HJqCEAAQhAAAIQgAAEIAABCECg2QSKRFdCgKWipequ1aUTXcF4ovQ9nYSLSahupS9qRVc40I4MMxSxjx2oXSx5uy8mIrq6Kbr6JW0xE80VGrrg0/7Osgi9z2guFW126rGHNvvJwOggAAEIQAACEIAABCAAAQhAAAJ9SGC/Q4/NFHGPR0fVHdWV3n0xLrNKFaVvYPpiXXW6ahFdjazPVVPaYjejueK7L6p//vpxh/Xh44IhQwACEIAABCAAAQhAAAIQgAAEmk1g30OOCdMKYxFSNmmA6pxeRHUVFaW3GXf8apROX2xInS4voqub9bnq2m2xK2mLI60aXu06YMmaXmphqfnFhVbws9aKQ3Q1+0HI6CAAAQhAAAIQgAAEIAABCEBgMAjoRJeamU4a6cRQWnYNDafreuXvwJiJFrOo0xWOLTpQU0MsOCC/tlie6ApPU+fpd19Mua1G1OlyE10Wuy1GsqYNSbPbYihvYsXqc+pzpWtzpdvORI6lhFDieyWQNMIoGmf0bXy3RVMR+l5Gc6lxE9E1GA9QZgEBCEAAAhCAAAQgAAEIQAACzSKgRFdb8gxKVFeX0xfrrtNlrNE10PW5DGmLXYnmUmMI/pfembEj/GyiuUZHRoKbTbVz2nGHN+tJwGggAAEIQAACEIAABCAAAQhAAAIDQOCrhxzdjpAaGh7uSK+yUV1BFmTvorqamr5YR52udkRXWdGVKSofK9LeMjLh/8WjtnKiucLjOndEmd0W430lUv1iN1o2NTCST62DPO22mChWH0W2xURXgkmqzwiEOi2dsojoGoCnJlOAAAQgAAEIQAACEIAABCAAgcYSSIiu2mp1+UlfVBCj6CbX9MW0aIouSEZAeUhf1BbYz+Q+xlIw46tDc1x83sE/t9Ir7UVXmbTF0MgkJFckadrjtUpbbJ2VODZmxHQSKy2I2g6rnUvZGUJbPnVMW51pi8ndGsNhJKVYVMsr+Z2SX0HUV2u8RHQ19pnIwCAAAQhAAAIQgAAEIAABCECgjwko0RXJk3RR+vDnrU+8+HxOamBHPtUf1WUsSm9ZpyuYY2Y+nTpd2e9jFzt+Xqy2V/ucZDOJfiLm2qWjk2KxtrojujT1uTIRYFaiS1+0XTdxnUQKBFHr4HQ0VyCZahRdQX+aaK6M3EqJuXBc+dFc6ntEVx8/NRk6BCAAAQhAAAIQgAAEIAABCDSWQFx0dQRNJ/XQlAqYTlNMy66ORPIT1ZWJ6AoHHfDtFMaPhX7Ff54bLaUrQG9RlN5x98Uq6Yu6Ol2VIroqpy2Gtqe9sPsrbbFVK6udchhNQ1ODq0TaYt5Oi23moyKnHU+NrsY+FRkYBCAAAQhAAAIQgAAEIAABCPQtga8efHQ7bEtJqtyorrRMSkVBpXdfVAFOtrW6hoaStcHamypGKXptu5WSZY67L3pPX6wougI5l4oEaxm7zHqyEl05GYrJ4lmtpiuLrlRntqLLtNti6M86KYoZaRQTbHVGc7XHUbUIfStlMWivEx6G6OrbRyYDhwAEIAABCEAAAhCAAAQgAIEmE0iLrkC+tGp1JSKkwi9aHqYlxFoT00Z1OYiuQPekUw1bAVXtNL2Y7Mqr09Uee5Ry6Sl9MZnamLqaOemLddbpSqQuGgvR97Q+19hLW8yL5mqLrtYBRHQ1+bHI2CAAAQhAAAIQgAAEIAABCECgXwkEoiswRLEi56mi9K2vsymCOVFeYzV9MR2dFQrD5Mrwmb4YpC52S3R1vT5XlFbY4udvt8VyaYtli9CPjrT6i0VzqSkhuvr1kcm4IQABCEAAAhCAAAQgAAEIQKDJBOKiKxRarait4WQ6Yd1F6X2nL5pqi6WvSbYgfVvvhR4wkaoZO9uUvthE0UXaYnynxOhi6utzddIjNd+7FqGPFfg//YQjmvxcYGwQgAAEIAABCEAAAhCAAAQgAIG+JLDP147qSJyCqC6TOCJ9Mbz88agu3+mL6TpdpSO6fIqudGZkpwaXe9qiAlhYnyte/L6G3RYTUVs1FaGP5ojo6svnJYOGAAQgAAEIQAACEIAABCAAgYYTSIuuSNbUV5S+N7sv6iO2khenKKork3IYj9TqUp2uQtHVq0L0RUXoE+IqLrFSN4UuLVDt6KirdxW02f6mVWe/vXtiS66l0gQ77ftNW8ymU4YTC36eU4Q+OgfR1fAnI8ODAAQgAAEIQAACEIAABCAAgb4koERXILdi9aQSBeCHYoXioxlaFKVP1+lq9xH21uozbLATDWa/+6JuF8J4sfx2L6ndIZPjSF4yH+mLdUZ0hWNvMVOxY+df+ufIBSmvkv1ofmiM5lKtBJ6m02DZ+lyJNvKK4sf70ey2GAwn9vNweFG0WPBle95toRUTXUmJlk4/jE5N/XwkKczSIi4j5nKknDouvtNifC6Irr58XjJoCEAAAhCAAAQgAAEIQAACEGg4gYToatuhMAXPNapLm76o5MxwZ7fGSNMkpE1bRqV2X8zbebF1ct7uiwlhFeuoXFRXJ3SrrjpdIfZUMa84oNgaSgi+WkRXrI5URwPFLFpKWBVFdPkQXfE2IqmlE106yRUXS+H3OtGlr82VFGqjSfEXjyDLKZqvK0IfH+MZJxzZ8EcDw4MABCAAAQhAAAIQgAAEIAABCPQfgb2/dmSnAL0uqqtEUfq28Irkjar9ldqhMVA7kcjKE10p8Ra6n/ZJieimgLwueqsboivdd0xa1Vqnq9eiqxdpi0kB1YnoshVdnWisjsbLCDEV0ZaRYsnIMV3aYqK+WFuABY0FH0RX/z0gGTEEIAABCEAAAhCAAAQgAAEI9BeBjOhqyaV0+mIkmXRF6XWRUgnZlSO64n4oPD4V0eUqujRSKxjvAKUvNiqiq6royo34sqjPFQZo+U1bDGtrtaRUjuiqmrYYCLTRUTnjxDBnmA8EIAABCEAAAhCAAAQgAAEIQAAC/gjsfdARgQhqpyqm5JKv9EUV5KTa6kgxy6L0FdMX80RXJO7SJJtep6uS6NLV51IAkumBqX9PFX9PyqUOvkQbKh5KV3srRVt7TExyJcYWj5CKHJd1EfpyaYu6IvnJnRmjWl4tOWZRhB7R5e/hRUsQgAAEIAABCEAAAhCAAAQgAIE0gbjoassfnVzKKUqfTUlMpimaitLXlb7Yyzpd6Xpb8UL/eYIt9IupOl1xq9W6cFrR1bVC9DXV50rX4crbbTEQX5pC9N1KW9RFc4VjShbMT4wnlrYYSS51DhFdPIwhAAEIQAACEIAABCAAAQhAAAL+CQSiK7Qvmagul/TFuMDRFqXv6/RFi4L0LYbRFcrsvphxWNni864F6du7LnoTXQ6F6HuethgYplQh+dhui+HXUWSZebfFvLRFXdRZeKwmmkv1OTISrIH4botJ8aXGJHLmSaQu+n+c0SIEIAABCEAAAhCAAAQgAAEIjHUCex14RFjCqiW62sIqHdXlsSi9bfpiupB7QrzFxJJp98VBTV/sC9GVTGns3G6+6nMl2omJrmT0lftui3lpi7oi9JFUUwYrL5orPKYlwRBdY/25y/whAAEIQAACEIAABCAAAQhAoCYCbdEVuK7hoJe4YEpHdXWKzLcGFNtNMa8ofeX0xZR0S44xtntje5fHqP5X6/9jUixxbnyuKb66XSKjQ5LzjJ0YL3rfhZ0XGyu6mlyfqxOJlpZfYSH6vN0WXdIW49FckQSLpy0S0VXT04xmIQABCEAAAhCAAAQgAAEIQGDME4iLLpei9LrdF+MSqUz6YjzSKyOa8orSB7XDwsvYEWpJ0RV+19l9UV9wPrkUssdYpC8iugKt41SIvjH1uUaiVESNAIvV4IpHdKVridmmLSpKpC6O+WcvACAAAQhAAAIQgAAEIAABCECgBgJKdLUdUJn0xVhEl1F0Kdc0nJZQut0XO7sz2qQvZkSXRmrlpS/GhVYc78CJLt2Oi5m0Qk81ukwRXVXSFgOVFlZ/D66XuRB9lC4YHR9d5s75XupzOaQtIrpqeJLRJAQgAAEIQAACEIAABCAAAQhAQEQSoqtC+mLe7oudVMd22FWQGmmq06VLowz8VSslsCPAOhFd8e+jMK9EqmU84irnn6NFUbfoikvBhGBz2HkxP3VRU53eVnRpa1617VJnqPpi9En5FBdR8UlWEV1xyWUSXWE/+YXoE+mIkeSLRaSlx6mrz5WI8FKyS1cQP8iJ7Ig2dc5ZJx/NAwgCEIAABCAAAQhAAAIQgAAEIAABzwS+csDhLfHUaliz+2IkkAL5E6/J1bFCwT8lBVan1lfw83b9rOTPW0mFnfTDtoAKZZgxoivs2Ji+6LMgfW6NrtZY2ljSdbo87bzYjmA7/9I/62u91yy6bHdcdCpEn7OLYWd3w1hElnU0V57oql6fq0raIqLL81OM5iAAAQhAAAIQgAAEIAABCEAAAi0CkehqO5q60xcDV5ZNX2zLm5ToigRaaNLCQRdFdeXV6cqrKZZoP7UqvBek9yS6omsVRHRpnFY7eig+H58RXUWiy5S2qMakPaYLoiu3EL1LfS7dOB3TFhFdPH8hAAEIQAACEIAABCAAAQhAAAL1EMiILo/pi9qC9IY6XXUVpK8iujoyrGJBekRXuIgzOxiGP4yS/joiLGbUOrshutTnCiO6Ov1FN5F7fS6faYtqFKQu1vNAo1UIQAACEIAABCAAAQhAAAIQGNsElOiKRE4nmCpMNdSlDZZJXyxXp2sAC9IjunKiuQyiKx6NZluIvs76XOm0xUDSpepzJYrkB98nJR+ia2w/eJk9BCAAAQhAAAIQgAAEIAABCNRDIC66QuHVqnkVL/oeSxlMi67gnPaJParTFavRFY4nGnAyRbJ6na5Bjujqgx0XbSRX6MyiKC5dIXrP9blKpC2qKLOzTj6mnjuaViGQQ2C7zT8g73r5TsG35/z+MLnvyf/2jNXma28tr93kXbLGiuvL5AlT2n9V+cV135Fr7/xDz8ZFx9UJHPfx82Ti+ElyzxO3ybf+EP4lrVsf9R8oqv8J4ybK3Y/dIt++nE0/fLA/5NCD5Y1vfKP84he/lG9/69s+mqSNASBwzLFHyzbbbCPnnfcT+eH//nAAZsQUIAABCEBgkAh85YDDQjXUrpsVzk6362GiNlasUHxadIXnpyRT9O9KQjnW6YoXf69cp6tBOy8m5tVaVG1JF19ksTFHPw72BbCt0WVbn0s1brProvcdF/uwPlfZ3RbDC4joGqSHaL/M5R0v+7i85aU7BsP93p+PlTse+VdPhv7aF79L3v+qz2j7RnT15JJ47fSUXX4etPfws/fKmb85wGvbpsaGh8fJSTv9LDjswafvkrN/9zXTKXxvILDFFlvIqV8/RRYsWCC77PIpmTtnDswgEBBYd7315NvfPleWLl0qu31md3n88ccLyZxxxmnyks02kwceeEA+99k9Ev+9CVIIQAACEICAbwKR6FLthrsctnoouftiruCKi64+qdOV3F2xDSYAlLvzYlykpXddDE5MXkEr2ZUnEpqTvgAAIABJREFUun5yyZ+jLLpOqxV2XFSNmESXrx0XE1X0Y/W5EmNoC7DyOy72oj5XcdpiOBciunw/ymjPRODtW35Mtt/iQ8Fh3/3TMXLnozebTvH+/YTxk+TwHb8jkydOkyfnPCKX3PBDeWbuY+3U3nmLZsuiJQu890uD3SNw8s4XBr8gH3rmbjnrtwd1r2MRGR4alpN2viDo84Gn7pBvXHZIV/sfxM7OPOsM2XTTTeXCCy+U737ne4M4ReZUgcDRxxwtr371NnL5Hy+Xk08+pbCl17z2NXLkkUcExxx26GFy3XX/qNAzp0IAAhCAAASKCYSiS31SUV0Fuy/2TZ2uzO6OyTTLYNaaY+LEnHderEN0hQPNXMihromueFH4mFpLbvnYKfquRqrfDrKbhehHAmA60ZUohh+lbCaK1ncm2UmD1BfMHx1p9ROV0h+N9xmNIbx28bphiC4ezd0mMH3yCrLq8muolS4PPX23LFn2QreHIOuv+hL5wtvCdLL/vfJk+c9DvOh0/SLU3OHaK28oE8ZNEiUtn5j9cM29ZZtfa+WNZOK4iTJ34fOBTOVTnsDLXv5yOfnkE4PfXbvs/El58sknyzfGmQNJ4BVbbSUnnni8jIyMyK677iaPPfpo7jyHh4fle9//nqy55hpyyy23yH777j+QTJgUBCAAAQg0g0Cu6EqnL8bqdAXeZXg4mECn0HxHxoSRYdl6VsHPO7mHKckUpTqGXDqCKdmPU+pi2FDuOJP9ZEVS/PvOP9vX6YqnIaYL+0dX3yqiKzaP+KqpVXQl0h09ia5EtFgyNCx3x0XdbosKQiJqKvhBiKYp9bmCcUcRaTH5Fe0CefYpxzbjCcAoINBFAi9f93XyidfvHfR46q/37okI6eJ06QoCfU3g0MMOkTe84Q3y71tvlX332bev58Lg6yGg5NX5558nM1dcUS761UVyzjnnFnb07ne/S/bae6/gmC9/6ctyxx131jMwWoUABCAAgTFP4Mv7H9qSSh0hVJS+2PM6XWnhFo90iqVeNq0gfV+ILlPaYiiSOveMa0SXVnR1oT5XZ9wVCtHHxllUn8smbVEdg+ga88/eMQnglRtsJx99zReDuZ900Zfl6bmPjUkOTBoCTSew/PLLy09++hOZMH68nHXmmXLppb9t+pAZX48IfP4Ln5cPfvADMnfePPnYhz8qS5YuzR3JhAkT5P/O+7HMnDlT/vKXv8ixxxzXo1HTLQQgAAEIDDqBjuhSM/WTvmhVp8uxIH0wukhq5ckuW9EVNhZcWn0drs5Vz35vH9HVItpuLEz5TK6oRkV0Daro6si5jugK5hpLWwxlWDb9Mi61gmPi0WQl0xabJrp2ev0+8rJ1Xyv/fuBa+dFfTpXN1nyVvGGz98qLZq4bhGA+Mfsh+cfdf5Z/3PWnIO2t6DN+3ATZZqO3ykvX3kZWW2FtmTRhiixcPDcoDH3dXX+S/z5yY+H5H33tl+SV678pSGlTqW3jhsfL1hu+Rbbe6C2y8ozVAtE6e8FTctdjt8rlt1woC16Yp23vxS96uWyz0fay5sobyvTJywf33dxFs+Xx5x+Uux69Wf55/1+D1Ka8j6r186oN3ywvW/d1svrMdYKdARcsnisPPXOv3HDvFQGrvM8Wa28ru7xxX1k2slS+dt7HAwZv2mwHeek628qK01aRF5Ytlnsfv00uu/l8eeL5h2r9HfOBrXeX12zyjkwftsXo93vv6bLqCmvJZf86X/7071/IRqtvIW/c9H2y5krrB/N6Zt4Tcv3df5Kr//sbGRkNU3Xjn/hOjzYTNRWj32j1LeXVG28v6668iUydvJy8sHSRPDX7Ybn5gWvk73f8PmBe9FHrSV3XLdd5jay+wtpBrbCRkaXy/IJn5ZFn75H/PnJTcG17kdZpw8f3MSqV9A2bvlfWXWWT9vX8531Xy5X/uTi47z64zWeDdX/EBbvmdn3UR34gUyfNyHy/6IX5ctjPPmU15CrXddqkGXLkR36Q6ce2GH2T7lc1iRnTJ8jO799QtttmdVlj9akyccI4efrZRXL9v5+S8y++V/57T/5z65fnvkU2WGc5+caPbpPv/vQO2ebls+RTH9hQXrLRCjJt6gR56LH5cvEf7pf/u+geWTZS/CxX4kIJDPX5yIc/Ks8/n99vHP6s5daQ/Xc4M/jR1y/5qsxZ+Jy8dYsPyeZrbS0zpswMnsN3PXaz/Onfv5Rn5hYXL1dtLDdlZvAM23SNrWTFGbNk/PCEoM27H79Vrv7vpcEzvehzyAfPlRWmrSK/vuEHwXNK/T54w0veK5ut9SqZOW0VWbxkgTwz9wm59aHr5cr/XKRtysdzY8rEqfL6Td8b/H6N5jF34XNyzxP/kb/e/lt55Nn7cqcRPcfveuwW+c7lR8sqy60ub978g7Lh6lsE81Fpwup35h/+9bPc34lR4+p5/roXv1vWX3VTmTl1ZRkeHi/qXn1yzqNy7xP/kX/d/zcj0/RAN998Mznt9NOCHx9+2OFy7bXXFV6TT3zi4/LpXT8tI8tUuuNn5LHH+IOH1YOSgyAAAQhAwIlAoehySF9s+5uYQEpLok6aY9tUtQrgpwu9xwVUXL51zlOTTESXBT/oFNMvjOhqHRv+n15cRRARXYqEMXUxGSkVnqKrk589TrUdPzIrlrpTiD5Rt6t19Qvrc8WkWJimGJ4UnGNIW1THNSmiKxJdDz59p9zywHXynq120T5Ebnv4RvnRVafkyoTVZ64rn9nuwOClIu9z4z1XyQXXniMjI8u0h0Si674nb5fv/elY2XW7g2TD1TbXHnv27w4WNeb0Z8dtPiev3vhthQ/Cq267RC69Ub8d+tSJ02S3txwia6+8cW4btz74Dznv6tNkqUasRC/O6uRTLt5LPvmm/WXV5dfMtLV4ycKgWLbpRc3piZ462Jfo+tsdv5On5jwmO7xy18RDM+ru+nv+LBf8/ZzMUH2JLvVAV9Kl6LqqF7Xv/vHIQFrpPkpqffYth8raK29UiPQHV5wgaq0P+ueNm71P3v3yXbTXU4mIh5+9T7bb7P21ii4f19WX6GrC/brJBsvLuUe/VlaaOUm7/EZGRuWsH94mP7hQn+4Via6fXnKv3P/IPDlwjy109T3l4j8+IIefflPhEj/ppBPk5a94RbCT3id3sROWqsG46Dr/b2fJO7b8mMycPivT15Kli+V/rjhR7n7837njeMV6r5cPvfrzojax0H2UXL/o+u/LNXf8PreNSHRd/u9fyE33XiWfe+sRssLUlTLHK0l+0Hkfy/zcx3PjRSuuGzx7VJ1E3Wd0dER+98+fyBU5oi16jqvfFT+/9juy+1sOlskTpmaaUn84OfN3B4liq/u8Yv03yEe23TP4A1Lep8xuqRMnTpSLf32RjBs3Ti655BI5+6xvFK6tGdOny3nnnyeTJ0+WX//61/KNs7856I9b5gcBCEAAAj0goESX+oRCx2/6om2drs5xujpdfkVXMNdwwm3aRQXpve+82O2ILl0EjrZQfKKOVFBJqrMcHUVX2UL0qkM/oqt6IfqM+IoJuTAaLIz+anPSiK4IW4dHJ2KsiaLrhaWLRUVkPTvvieCv7aqQ9ArTVpI3bvoeWWeVFwfrQf3F+zc3/V/mUbXi9FVln3efHETIqGiYv99+mdz31O0yf/FsWXn66kGU17qzNgnO+/Otvwz+o173iUSX6vuex28N/pKvBMa/H7hGnp//lEwcP1nWmbVJ8Ffxc35/eEZ0bb721vKpNx4QNP3oc/cHf8FXbS0bWRK83Ky18say1Xqvl1sevC5XdO3+5kNlkzVeFrSh/oL+9zsvk9kLnpNVZqwmb3jJ+2SNFdcLvlPy56J/fD8zjbjoUn+lX2nGqvKX2y6R+5+6U2ZMWV5etcF2suFqLw3Ou/3Rf8r3/1Rf6kZYMDEsdKiidqJC8K4RXY8//4Csstwact+T/w0i8xYumSdrrriBvGXzD7ZfQs/+3UHy4NN3F/4aK5u6GBdmT895TP78n1/J488/JNMnLRfwfOk6rw6v+bP3y5m/O1ArUnd41a5BJIP6qOiH6++5Qp6f/7SMGx4nav2uv+rm8vJ1XyPq5XzQRZdaf3u8Ndz9TEWV/OHmnwURJVMnz5BtN3qbbLbW1qJErIraM0V0pS949FJuE9Hl47qq/oeHx7WHoYSCmp9rRJdqoJf3q4rk+tW3tpdVVpwc/G3p57+7X/74t0dk4aKl8tKNV5TdP7qxrLhCKHz2Pf46ufyv2aLfkei66/7Zsu6aM+Sm/zwjv7zsfpk7f4m8ZMMVZPePbiKTJ4Wsdt77Svn3nc9p71dVd0mJi0mTJsmVV14lxx93fOF9Hf8yLrrUDqqTxk+R6+76YxB1uXTkBdlotS3lzZt/IPhdo9bIyb/eSxtdq56jO7/hq8F/nM5Z8Kz85fZL5bHnHgju7dVWWCeIypo5beXg9/D3rzhO7njkX9oxRqLrmjv/KOuusnEQoXvPE7fJnY/+S+YvnhNERG3yopfLWittIF/7ycczbVR9bqhIrv3ed2YQmabGeu1dl8u/H7xG1O/btVfaUN780g8GY1AfFVGtixaO7qmFLyyQhS/Mk5HRZaL+WKMi4laasVogpFdsyUT1+1kXmbb81BXlwPd/QyaMmyjzF82RK/5zcfD7U12jaZOWkxfNXEe2XPe1wb105m/C36Eun2996xxZf4MN5IEHHpDP7v4546l77vkFef8H3i+LFy+WT3xiZ5k7Z47xHA6AAAQgAAEIuBDIE12qjdB9hQXkdWmD0e6LeQXpwzZSxeC7XZC+xp0XkxIsRr1o50VNzXur9EWrXRd1UVSaVDMfoitdn0tNXxcVFWEpU4g+aLM1/mBq7eLurSiv2E6HUf9hP+laXGFLmTEGgVian6fn4rk+l2ruG6c2pxh9FNGl+Mxe8Kycfum+Mn/x3PaKVn/93fPtRwcRTiqC6fhffj7zYqJemtXLpfoPcSU8npqTfQn74NaflW03eXtuG6rDSHSpv0irlAqV0vHbm36cSYtbZbkXBX+1fn7BM4nnXTQX9ZJ+3C/3CMaT/qi0RBVhoEubUYJLiS71ufXB6+RHV52akL7q5WzPtx8bvBSpv8Kf8uu9gkin+CcuulSUwDcvO0Qeeuae9iGqfxVVsMGqmwXzOuqCXWXBC/Ndntuljl1v1ouDsauPq+jK4xEXJkVRctGAy4guFWF36Ie+G7ygPTv3CTnztwdkeL1/693ktZu8M+jm59d8S667+/IMoyM+/L0gouLeJ2+Tb/3+CG0arhK1E8ZNKExrLQN/4uRxcuyFry1zqvzynLvk2t/5Te35yrtOlLVW2jB42T79N/uJkofxzy5v2Fe2WGfb4Ed1iS5f1zUNdY/tDw9SusqIrl7er3vvupns+uEwivSkb90iP/l155mhfrbW6tPk/LO2kxnTJshjTy2Ud+36e1ERXvFPJLrUz/70t0cDIRb/z4KtXzZLvnt8uA5/9Mu75evf00dTrbPOOvLd730nfFZ89/tywQUXWK/duOhSJ6k/aqg/bsQ/L1nzlUG0rvr87fbfykXX/0/ie3Uffu0D54haI+rZ+a0/HB6s1fhHRXnt+fZjZM0V1w8E2GmX6ovlR6JLSTV1zvl/PUtufuDvmfmotGz1h430p+pz412v2DkQUepz8fU/kL/e/ptEF0pU7f2uk4I/Ej03/2k54VdfyETExyNzdc/AaZOXkwN2OEumTpweyNozfpPdzVBFw6poZ/X59h+Pyo2kU79bdb+/TQtg3/2+Km9/+9uDdMT3vW8HeeGF4l19Z606S374w/8NosB+9KMfyf/9+DxTF3wPAQhAAAIQcCLwpf1UMfq8VMGO6FKNxmtMteVXPFUx6jm262JuvS4VV+VYp6tUja5w4MHIdEIu/vP0P3emk67npYsGi2GvQ3TF5tEe108u+XPyv3IHTHS5Si4Fxlp0tV4Q4qIrLeN81OfSRXM1WXSpFw714pH+qJeAz21/ePDjX1//A7k69h/rKsJp73efEnx34TXnyj/u/pP2IaTq+Bzx4e+LEj15tZgi0aUaKBISeU+5z7/taNlg1ZcE0VynX7qf08NQHRyJMnXdjv/VnkEUWfoTlzuqbpWqXxX/xEXXDfdeKT/7WzaNQ6WQfPy1XwlOO/f3hwdzrftTRXQpHide9EV5dt6TmWEe9P5vBFEFqmbOt/94ZOE0yoiu+Auaira66d6/ZPpQaTyHfei7MnH8JLn/yTvkm78/JHGMeviftNMFwS8BFeWn6vV089Mk0bXycqvLgTucHUw/LyoxfkxdosvHddVdwyqiq5f365/Oe6esPHOyPPjoPNnhc5dnJJaa6547byp7fCKMrv3cIX+T6/6ZvB8j0aV+x7x7tz/II49nBfql339bIM3+cctT8tmD/qq9DbZ9zWvkqKPCiL9TTj5V/vjHP1rfLnHRpaIFj/vlF7Tp7l98+3FBlK/6o8rRF+6W+GOGitZ671ZhumTRphWqztan33RgOM6L95In5zySGWckutQXl9/yc/n9zT+1nouP58bhH/puUJtMbbxx8sVf0ZZ1ePuWH5Ptt/hQMC5Vgyst3OKi62d//6bccM8VmTl8eNsvBHX11B+jDjl/p0xU61u3+Ii8bcuPBOcd/rNPav8IZA1Gc+BnPrOrfOzjYern7rt9Vh58sLh2mjruawcfJNttt53Mnj1bdvrEzkY5VmV8nAsBCEAAAmOPQCS61Mzz0hejzJe06ArOGQ6zYoIMmQifQ52uoeGsRGrXnO9s/5iJDIs6K12nK6c2lza6KhMVNkZFVz/uuOirEH1kFONpi2q9l6nP1WTRpeTOcxqZodIZjv3oj4K/iN/ywDXy4798vf20fOsWH5a3bfnRIMLpyAt3CyJA8j4H7HB2UEhXyTAlxdKfuOhSxehVipnLJzpfRWacdsm+2hefovYO2fHbQYpj3l/Fo4fd0R/53+Av8Dq5Exdd5119hvzr/uzLpIoI+8q7TgqGolgqpnV/qogulT56ysWhmEt/PvPmrwWFolWK6Km/3rtwGmVElxKCSgyqe+/wCz4dpDvpPipCREWKqBe9Q8/fOfNyHb3wqnGq1JxuFpwfHjckr3hTtk6RzTV/4PY58tQjC20OtTrmVRu8WT7ymj2DY1XarEqf1X2UDFPCqy7R5eu6psdeRXT16n5V4kkJqOB58Ku75dTv6iOtNt1gBfnp2dsFx537f/+Vb/3k9sT0I9Gl6nPt8Fm9nDr7qG3lDa9aTe55cK588PPZyEfV4Hve8y75yl57BW0fcdgRcs21+ZtvpPnHRVeeOFTnvGXzHeUdLw9TBdVzQ92X0WePtx4Z1GY0/cFCpQMqwa0+eRI8uu+XjSyTY36+eyJa2eaGqfLcUH8AUH8IUJ+//PdSueSG/9V2Gf9jkUoj/uMtFyaOi4uuo3++uzbiVNXce88rPhmcd+SFnwnSE+Of+LM3T5bZ8Mg75kMf3lE+97kwYuyA/Q6Qf918s7G5DTfcQM45N6zteNZZZ8ull1xqPIcDIAABCEAAArYEbESXLn0xIZjiEVyqYwfRFUV16ep0xX+WqaPV5J0X+y6iK1ZfKlo4uhpdgyq6yhait6/PFd/tUREelW+cWl9dJtubPzouimJSqYAHn79T7un7vvfrQW2U9MvHp990QFDTx+Xzn4eul/+9MhQ98U9cdJX5q7Pave1z2x8WNLl46SK55YG/y12P/VseevruIFWxaNdIlRp3/CfC2mEqaki9OOV9vvzOE4Ki5qp2zDG/SNYjiYuuvIL58ZdBFfGlXgjr/lQRXXc8+q9gcwDdJ1o/SpAqUVr0KSO6ItYqTfW4X+yR23w8Reiki7+cScd7x8s+Lm956Y7B+aqtm+//q9z7xG1BalTRDpx1X5dutx/ndMKv9tRG6akxReKwLtHl67qm+VURXb26X1/3ylXlm0e/JpjKEWfcJBf94QHtspg4YViuv3iH4LvfXvmQfO3kGxLHRaLr7zc+KV847G/aNk466FXyjjesKY8+sUDeuau+iPuOO35Q9vh8eK99dZ995dZbb7VepvFnW169KNXY5mtvI596Y5hip34XqN8J0efoj/5IVG0rl4+SSEompT+RqFL1+1SaruunynND7f6rNjZRnwuuOUeuv/vP2u5VSvwJnwgjg2+672o5/6/hrpXRJxJdeQXz1XHxCEkVRZeORlZ1wPYP0hunBX+U+u8j/5TbH71JHnzqzqDeoWnHWhM3lbao0hfVx2bnxai9aNODRx95RD7zmd1lpLWbtak/vocABCAAAQiYCHxpP/U7ONytUC+WqtXpqlKQfiBFl7ogngrSD3lLXSwSXcZC9GpGnSLrwb8V7LiY+L7LOy4mhFYP63M1VXTppE38AaLqoaw3a9PgP6DVf0hHH1X3SUkUl0+eOIlEl6qxdehP9bs/mvpRBcff9YqdgppO8Y+q13XP4/8WlW6odpZKf+LRAaqOiqqnkvdRLy/qJUbVjVFpIvFPXHSpFyv1gpX+JERXTiqKaZ6u31cRXSqyTkXY6T6R6EqvC92xZURXFAVYVIdH9fWmzd4v737FzkG3Z/32wERdNPUz9TL5ga0/K1tv+ObM0FRtnNsfvlH+cMuFMm/R865o++r4D26zh2y78VuDMR/xs0/l1oeLIq7qEl2+rmsafhXR1av79Z1vWktOPOCVwVT2OfZa+fPf82uy/eOi98mkiePkL9c/Ll8+IhkJGomuK695VPY65jrtuoxE12NPLpB3fFovunbY4X3yxS99MTj/oIMOlptutN+FNP5s+/m135Lr7tJHjcVTwOMRRiq1/cSdfqbdDbToRvvtP8+TK279VeaQSHTd9vAN8oMrTnS+V6s8N16+7uvkE68Po1x/eNXJonbrzfuoP7Ko31n/feRG+Z8/n5A4zGaDh7joyovMVlFyH33tlzO7TirJ9cDTdwabyOjql9lAe+973ytf/sqXgkMP/trBcsMNdmtmq1e+Qk44IZzv0UcfI3+9Wp9OazMGjoEABCAAAQjECbiILnVe/XW6ur/zon5nxQ6l7PfZ1MWQTYxsFNUWs1rpGmPR0VbF6DMdiPSl6EpIsD4VXaOtvzim0xbVNVJ/KQ3/Py78OiIwdIDNjOiqKrpUQWsVSVPlE4kuJRuOunD30k2pHaY2X2ubYPdEVUR/2qQZ7bZUapv6i3k6XbCM6FJRYypNLv5BdOVftm6JLpWaqJOZamRq17WXrr1NsHnCmittkBCiqqbQuX84olQx5qLFqlIXt37baqXW8323zpYnHspuqlCqMRHZ8dWfl1dvtH1welHUZBNFV9F1jXiMFdF11T8el68cWY/oesv2b5YDDwxrXx137HFy1VXZunh566+y6BoeJyft9LOgeSXJlCyr8olE17/u/5ucd/XppZsq89woI7rUjq8/uKIe0aUmr3Yu3mzNV8qL13iFrDvrxe3dGiMwZWsY7vT/7F0HeBRV2z0mISEhpAGhJRCalNBBEBAQqQpIly5SBRT4FBSlCahIEQSUDkrvIEiR3nvvhl4CAUILoafxPe+dnd07s7N9N417n///JDu3npm9O3PmvOdt1wYdOki+ar179UFEhDKs1hzwcsZGakNtRREICAQEAgIBgYAzEOCJLurPKp8uVpHpwNgUTPl0mTSi50kgI0P65Ce6DOvmVW0GdNMs0aUVpmUq4yItV6944jM1OlnR5Uqiy1VG9M7155J6S8uhi2pljRy6SGnKhyzuYDY80NKm5Syiix+HNqqQLPlZaAf5E9EXmvxLRvzdQ5HJy57QRcpS+ZOZ0MWUUoho4ZxWFV12hbit6sXMny0VUmsUyBGOGuFNWRIDKuRZRd5VziypyYyefHzIz4dKmgtdtOK8pkWiy57QxXXbIzFgjHbooqOKruLFi2Pcb5IP44SJE7FujTJToLnvhj2hi2q1048t5zAPRHtVWPz8nEV08X1au284O3SR/AkHL5HIJHWxRtGl1S7INzvK5q+K6sU+BiX1oEKZk2/cv2TTFti9R3c0bdqEtWnVqjUePnhodXueWLU1VNbqQURFgYBAQCAgEHjjEJCILi4jISOhDAbxBj94lmfRoCbniS4p7lEzqyEzqVcZvxuyH8pEmfWG9HZlXjQyk9etUMOQ3pwZvQEn6xVdrA2HpwS28WVmlapLIRlTK7oczLhIU0orRJeWN5Zh/gY/LOkz9r8McVqfZCYvnQDqJyX8uWjs1Eh00bysMqO/sR/zdvJm9IZsTmPX9MWdGG1/GWt2V1cQXfy4fHYrrZv5Qc2mg9RgzjKjT01EV2jWQuj9oaQUmL19FM7eNHjimDo3/Rr+huwBoSwpQEqFLrZ+rw/K5qtqhRn99ygWUo55zQzUMKM3d/3RBkwG2AWyh4O86qi9OT83a65lvk5qIroobJHCF6mkqBm9i85rlw8GMSWnue8wf25SgwIzNJcv1s6UwknNmdEXKxiARRMtm9E7SnT5Zc6M5SuXs/msWLES06ZOs/qSt8uMfs1XuBsTqR9Dzp779OVj/Li8qyIjo9UT0VV0BdElz8HSvpE1c070byxlODVnRh8SlB996kuh4ebM6F1BdMlr4UNJzXmrmcL/x5+Go2LFioh98gTNm0oZJK0t7u7umDN3NoKDg1niA0qAIIpAQCAgEBAICAQcRUAmulKbT5etmRcNBJjkN0ZFnwcyvRBdbFEcyabw6HKQ6OKVVlpG9DS2M8zoTSm69J/rBpHnwP6UP1Md0xNWiuNq43c2c3ZBWEN0KX28dO143zEdWcaTbQqCkB2XLkC1wkwm3ejzSWNHOPrddVp72WOJOlx1+E/sjVhv1HehnCXRrdYQ9rna9JcnUBwNNXE10cXfzJMPCvmh8KV9tb4ombcSO3e/rPpCMwMl3wf5fW04IZkIyyU1PDhrXRz8Q9eKg9Nx4MImi9dQaiC6Kr1dF00rdmVzXbzvdxy9vNNo3qT+GNxsOjw9vHDhsR4CAAAgAElEQVT9XgT+2DDI4trUFeqWbo1aOrN68l0j/7X0WCihBCWWoLL3/L9YdWiW0TIpMyp5aFFxlUeXq86rTIxaG/7siu+rh5sHqoc3Qq7AMEYSk8G4uUK/61vnf4QsgV64EfUUjbptQVKSrCU2tPyifTF0a12YffD5wL04cDxa0a2zPLqo09mz/0Su3Llx9sw5fPXVV1Z/FXiii0KBR6zswTKhqssXdX9GWHBhPI97imFLOynIrBrhjUFJE6gs3DMBxy3gZ25yriS6aFxz+wbdhA5pMQO+GQOYwnT06t6aHqZ8H9O3/IiLt5UZC53l0WUOJ3c3D/zSZiEozfrOs/9g7bG5Vp9zqrhs+VL4+/vjyOEjGDBAeoNuS5ETINBvb9cu3XDjxg1bmou6AgGBgEBAICAQML7X6DtAH65ojSE9deAsny4DESX1meyZF5NZ0aXGjj8ZVim6pA70zZQeXWmN6NKTVtJ6XE10OcuI3hn+XKmZ6CKfrnHr+ilSk9MNcM+6w5nXFall6MEl9sUjxWbSo+5w5A8uxs4jkRGUtVCrZMrohxrhjbDrv3UsY6G6OEp0USav87eOIz4xTnP8BuU6oHqxhuzY6NW9cC9WGd5WNHc5dPrge3acHlDn7BijUPZQyMoX9X4GvYGntY4lJcLjm4qxXPHg7IzfLtpkhn8ym4UEmcuiyI+VGoguH6/MjMQi7B8+jcaEdd8YGag3qdgFld+ux6a+8uA07L+wWQGZVwZvFpr4381jmkotMsCm88oyab54xFQk6bn8r/4Y5A7Kx8i839b2Mwrz/LRaP5TI+y6DwFVElzPOq9Y5qlasIRqWk8K7TGVR5Nu54vv6YZk2+KB4U/0w5pRzcqWvOxdHh2aF2J9jpp/C/FWXFcsLzZkJi3+vAV+fDIi+/xL1PtuARBUZ5kyiq3fvXmjQsAHi4uLQ6OPGSExMtOorwRNd1GDD8UXYemaFoi0pLzvWkPZZLbKVMgN+32Qy26vo+pu6eRhuPzJO6kHtcwTkwTsFP2AvYLSKI0SXM/YNPlT4nyN/gTyw+JIlcw78r/5oFjZIofAjVnY3UrA5g+iiFzTRj28a/XbLcykWUp5lWqWy4sBUHDCRREAL4xw5cmDuvDns0PRp07B8+UqrrhW+kre3NxYsXABf30zY8O8GjBtnv5+azYOLBgIBgYBAQCCQLhH4QkV00SJTk09XcmdedGXooh5be0MXpQ7012EqIbrUoYLGb6EVajGD3IktROF/xT6QVVRyv85RdJkjutTz40k3W/25TKm5pKUZsEqNiq6ExHi4u7njwZO72Hx6GQslCfDJyvx8KNsile1nV2H9sflGmyG7Wf9oFHswoXLqxn4cv7oHMU/vwd3dE9n9c7NwomIh74DUDqZCJB0luih9euaMATgXeRiX7pzG3dhboHUFZsqKsvmroVTeymx+l++exdRN2uER3WoNRqGcpVi9C1En2YPY4+cPkM0vF8vsRwQBFVJEkTJKXVzx4OysXx+eENp3YQOOXdmDV/GS0Tn9l7IP8iU1EF00n5olmqFe6dZsakRObj2zHHcfRYKI0woFazIVHhUKmx2/rj8jZPmS2TsAQ5rPZAq905GHcDX6HB49vQciuLL550aVwh8ykovK5lNLsenkUmdBnir7eTtXKXStOZjNjYg9Cpe69eAKMnn7McKQHnop8yk96LuK6HLGedUCN8AnCP2bTGb7DF3Pa4/OQfTjKP2vDSlraE+Qiyu+r7KvnDzGznNr2DzMFX/fDPh7Wm2m6iI11/J/r2HTrpt48SoRxQsH4vPWRRAU4MW6+HbkYWzcpSTY6XNnEl0lS5bEr2PHsPH6ft0Pp0+ftupa5okuIlLJ+3D/xY04eXUf4pPiUThnSXxQohn7nELxRv/TB09eGGc6pfPSrtrX7IaUzte+CxtxPuo4ewlDpBD5LoaHVtDMBMxP1BGiyxn7ho+nL75pNJ6puihZzYELm1lmQ8KG9pxaJZvDN6M/mzKZ5ZNpvro4g+iicOUKBWvg4u1TiIg6gaiHV0GZiH0z+rEMwpUL10UGDy/2fR+1qhdT2llb6tf/CH3+J5nId/j0M9y+bdkfUavvzp07oWWrloiPj0f79p/a5PNl7VxFPYGAQEAgIBB4cxAwEF1qny7CgPPdYtZdLvLpMmNIn9xEF1u1yguL/8xYdcb7dXHXDU9IqTMvCqJLIq94SsyZii4DoSSfEM6LS/cG3BAaaThGtfXhjdIfSiLOCWGL8hipkeiKeXYPBy5sQb0yEqGgLpQNau7OMUYkglyPQqI6vv8tgjJnN7uD0kMLhQW6QtFFRFewXy6z4xMZMmPrz5rjU0N6MOlSaxBCsxQ02c/ZyMOYt2usJhaueHB21k8SqWj6fDhS8xxp+XClFqKLNt5mFT9HRV22QC08KOvn9C3DjMg6qis/sFrC8cS1PVi89w+T17il9mnpOJG29XXhYep5k+Iv9sVDlrzBlUSXo+fVFN5Vi9bHx+U7ah5W++a54vsqh0/KE7A2VLhogQBM+akyAv0lQktd6F3JH3PPYeaS85rHnUl00QB//vUnQkJyY+3a9Zg4YYJVlzdPdK0/vgCVC9dDgE8Wo7bkhffn9pHshYSpUjqsCppX6gEvj4xmx1YnSOErO4PosrRwS/sGvRwhYpmIee3z+hobTyw2Ur7JdZ1FdJE/n7lC5NacHaNx5e45S0tWHB877leUKFHC5jBX9SCBQUGYP38uMmTIgCWLl2DWrD9tmoeoLBAQCAgEBAICAR4Bnuiy1qeL2psKXzQYzRvUR7Yb0id/5kXjzIrK60SdQZI37JdrKvixNEN0KfykpKVY8uhSZm60X9HlTKLLnoyLaiN6I2N6HdGlUHixz/Ru9pxKK0nCjrzu9WGkvNm9DlndsdRKdP28sgcLWapetCELCSF2m5Rdhy9txcGLWy0adJOKonyB9xGepyLzp8nklZnhQYqomw+vsJC5MzcOsDfJWsVRRVegbzDCQ95hpuI5A/PAzzsQbm4eTDlAoS+kNDt8abumZww/Hzc3d6YUKh32HnIGhDJly4u4p7j54AoOX96OU9f3m/wlccWDszN/tkhZUK90KxTNXZYRQOTJQiU1E13y+kkV+G7BOsiTrRC7tl4lvMK9xzdx+sYB7Du/0WTIKrUPzVIARUPKISxbEQT7h+gfOsnw+sb9C+y6iLh1zJlQp/q+KJypWrEGyJv1bXh6ZMSDp3cZDrsj1qJZxW7sO+BKossZ59UUyESSVC3aADkD8jClilySg+giYqdN1a+QK4g8ug5j2b5JFvcceX6k7GrftBCqV8iB3DkywTODG+4/eomjpx9g4T+XcPaisfpJbutsoqtFixbo2q0LnsTGomXL1khIMPbaUuPPE11L9k1iPoh1S7ZE0dDyTLlEiqwLt09g6+mVePDkjsXvCJFDVQrXw9s5SzFVLamGKTT94ZO7uH7/IiJuHmWZUtUqTrljR4guZ+4b9AKFwmppD8rim52FYpOH2ZW7/2FPxDpEPlCGqvLAOIPo8vb0AYXmk98mqeECMmVj3/m4hJdMJUt7377zG0D7oS0lOFs2zFswjz0UjPh5BHbsMPZQtKW/r7/+CvU+rIenT5+hbZu2ePHihS3NRV2BgEBAICAQEAjoESCii4ocrqg0gTfOvig/E1nl06UygVeTRYwAkzMSuqVs5kV7iS4DdoqoQmWIoVrRxRopL0Kne3RpZQxTElS6CaRxoktJTjmWcdGSEb3Cn4vg05FaDGt9WKIpoktpiD95nJT9LjUU2YyeFF1EdIkiEBAICARaVOphF9HV/N3uTHn37NUTDF2qraoS6KYNBDL7+WHevDnw8fHB8GHDsWePcVideiVqouvI5e1pY7FilnYh0P7Tdmjfvj0LV+zUsbPVXm6mBgsNDcXMWTPYQwll+6Ssn6IIBAQCAgGBgEDAHgR6fv29wgheSUYZE12K8EVVdsO33CRhgERg6QpnMm+O6KIGakN6i5kX1eMbGticeTGliS4ZN/U55JCUDml6dDloRE/9Knyq+KBCjsCRJ2evokvRzs7QRV5Nxc9bO8Mhq8GmrQ9JJE6K+8y4Dx0WnFm+ngBL0qm2GLElocH61RFdlrIt8vMQRJc925VoIxAQCCQXAvYSXZ0/GIAiucsiOvYWxqyWfHtESbsIdOjQAW3btUFERAR697J8PgXRlXbPta0zJwKU1FyZfX0xevQYbNm8xdYuNOsPGz4UlSpVQnR0NPP8sjYRglMGF50IBAQCAgGBQLpBQE10WRu+qCeGiKDSq7JsJ7oISNZeg+hixzj/LqVnmJ7lYueCacMcILqksdSqMsNpNhW6yLeT5ytNiPPuskLRpe5HHtmI6OL6NpjRpzDRpWk2z31FjEIC6Zja/0qurzajlz21VJ/zRJPUHTFPPKml71BhAi9xVCryS1fVGn8uNpadRBePgyC60s0e6vSFtHnvf8xI29ZCiQIiH1yytZmoLxDQRMAeoovCyihDpqeHF45d3Y1Fe6zzdRKnIPUiQNnw/vprFoKyZMGggYNx6NAhs5MVRFfqPZfOnlmbNq3xWcfPcPHiRfT6sjeSdC8DHR0nLCwMVatWZd1s3LQR0XejHe1StBcICAQEAgKBNxABmeiS+BPmOG+GXEo7hvRvyaGQMsnEE08yocWRRob1mzej53GSLxelGkz3abogujgCjefS1IouVxFdEnelCkfk/LEY6aQ47nqiS9Ofy4SiS2mKz/t1vYYgut7A3dbKJY9suxjudhBds3eMYn5AoggEnIGAJaKLyKwgX0PiCf9MQahZvDnyBRdhw8/aNuKN8zxzBu6psY/SpUqhRMmSiIyMxI4dOwTRlRpPUgrMqVGjj+Hn5489e/fi6pUrKTADMaRAQCAgEBAICARMI2CK6FISX5w5PO+rxeRWUt96RRUfqsgRSRYN6V2UeVGviEpuootfe5pVdCU30aVWczmb6DKTcdGUEb2eTDOXcfG1bUb0NJYgusS2LBAQCKRmBCwRXZTwoXudYZpLoKQP83aOTc3LE3NzEQJC0eUiYEW3AgGBgEBAICAQEAjYhIA1RJdMehkiAw0hirYQXQbyTOnHpW1IbyDXDIopQ3giHzopE218/8xLTOXhJX+glRlSPTc1iMYeXlxoooJE41rqlWMadVVm9Iq5812oXet5Am3hmm2yhMnopNtrRm8p46Ke+NGPaFAqGR+TKmmRSOxzXR98VkPpc25ZViu6ZLKJh0SlBuOILrMZFzX8uViopd0ZF41DJQXRZdM+JSoLBAQCyYyArURXQlICy6J39PIO7PpvrckseMm8DDFcMiMgiK5kBlwMJxAQCAgEBAICAYGAJgJEdMkki5ZZvCzZkhRZUhc2ZV6UGhj5X/Fj2ZJ5UTE261s3J9knzAafLt4wX8aA/y8PmCNElzRNlf9XqiC6ZKaJJ6M0jOgZ+aRRVwLIPNGlGdZopxG9bjR5WGl0HQHF+3MZ5mtsRC/3YSvRpci4qGFEL49pWK8yVFE5V6QqRZfYGwUCAgGBgEBAICAQEAgIBAQCAgGBgEBAIJBeELCH6FJkXpRYHIcM6Q3hhdZnXnSGoks3db1xvLnMi04nuvSDG64kfgz5U9ea0XOEjTygsxVdLiG6VPNWG9GnPNGl9gpL3Yqu9LKZiXUIBAQCAgGBgEBAICAQEAgIBAQCAgGBgEBAi+gyZUivj9DT+XQ5K/OiPUQX44kMsYkaiinLoYspQXSp581fgYLostajywGii8+4KBFiGhkY1aGLetWY/RkX5bHYeK+Byb/9InYfgYBAQCAgEBAICAQEAgIBgYBAQCAgEBAICAScjEDPr76XFFlceKGzMi9qhQZqh0fqFGEm5qEgh1hWSOMwQOPQQEF0KS4VZaZE3SGHFV0qDyw+vlEeQmForx/Q2J9LYoJYK7VHl56MSuGMi/q5aYQuystUq8ukz1VhjILocvI2JroTCAgEBAICAYGAQEAgIBAQCAgEBAICAYGAhABPdBkIJYkk0jaB13lucYSTInRRamggo6RO2VjJmnnRjBk9T5yxmamJM14txl0oRgSb2nfL0JXUijeptzPzotNCF1Oa6FKMz3l0qT9XEF2yebyKANPzXQqjenW4oDbBxCu61GGVvCm+wijfnBE9TYYdl865ILrE1ioQEAgIBAQCAgGBgEBAICAQEAgIBAQCAoGUQ8ARoktPGHGG8IwMSg1EF/FMbjqCTe9Yb5z9kCe6FAQYR1LJZ0cQXVyon47W4cgdQxggfzkbZVyU2CCLii5GHFmdcZFV5sIQ5RkYK6lcSXRpG9FrE24idDHlNj0xskBAICAQEAgIBAQCAgGBgEBAICAQEAikXwTMEV0G4odXZBkUXclJdPFz0QpdZMdNZF40eIC5huhSEmTctZIeFV1KZZj1oYsWFV3W+nNJvJGeYDNtRK8imGR1mDqMUOXTZQif5Ig7c4qu10m6ufBEn5p0k/42KMaER1f63VLFygQCAgGBgEBAICAQEAgIBAQCAgGBgEAgJRGQiS6ZrJFIJM7fSve34bg027fectP9l6VclP4thzPyoYry4niVlypUkIU0yiSVrMJSjCuPKRNVUmikMzIvOkPRJWMj/Zc7m+mF6OKttxwmujijd0ZFGWL+JMJIx2JZUnQplWJqwk3qSe5fNoCX+1erzBR/q43opU4koorzCDO0sUR0aZndC6IrJTc9MbZAQCAgEBAICAQEAgIBgYBAQCAgEBAIpF8EtIkugz+XTHzJZI4+0aGLiC5Txvg8mSQRcZwhPUe0KeqZ8enSt+eIOCVhxTNWSqKN9y4zNOfVYrpP3wSiS+1zpf6qGIUupkGi63WSjsxiflzSCvXElz680pSiSxBd6Xf7tG1l1ZqGoEHH/KzR9AGncOl0jG0dOFi7RvNQfNghH+tlSv+TuHrusYM92t984KABqF69OlasWIlpU6fZ35GdLWkT/7n1AmRw98Sl26cwbctwO3sC6yM+Mc6u9jWKN8FHZdqytpM3DsbV6P/s6udNbVQ4d2l0+WCQ5vKnbxmOi7dPpRloWlTqgQoFa+LpyxgMW9bFZfP+ou7PCAsujMt3z2HqpiEuG0d0nL4RIG+Qn5ZVQQZPN1w6+QjTB522e8EZvNwQ/0q6z3qTSq8Pf0GerIWMlnwt+jwmbRyYZqAI8AnCwGbT2XxXHJyOAxc2uWTuhXKWRLda0p41ddMPuHz3rEvGEZ2mfwTyZiuML+r+xMiEjScWYcvpFXYt2s3NnSl1EpMS7GrvjEY//jQcFStWxIIFCzFn9hxndJmu+rCX6GI+XKYM6d0Mai8+86LJjIucoistEF10AfAEoOFv6dLQ81spRXQZHLAM16qRGb3stq7y3TKolgwVzCm67CG6uKFtV3SpMkWaDl10nqLLEtFlyYiezoI+dFE3f+HRla72UasWU7t1XtRuk5fV/Wv4Wfx3+IFV7ZxVqW77fKj5SSjrbtbQ0zh/9JGzurapn5IlS+LXsWPw/PlztG/fAU9iY21q74zKdHMyqu0S1tWN+xfx+7/f29St21tuKBVWBVWLNsDBC5tx8NIWm9rLleuVbo2aJZqxP2du+wnnb52wq583tZEgumw/84Losh0z0cIYATf3tzByVVV2IPJ8LH7vZ/veFRbuh2qNQvHqeQKWjD//xsEsiC7bTrkgumzDS9Q2jQB/LW0/uwrrj823Ca6MnpnwbqHaqFLkQ0zbNBT3n9y2qb0zK4fly4dp06YgISEBnTt1wZ07d8x2P378OBQLD8f169fRrevnhudwZ04qFfXFiC4quiyLykyLdmZeTG6iS56/CY8u6bAs++KUYLrzoJV50YCD4WTxn1lFdLGBVYb46oyOKuGY5rhcxkbpXOn6XLhmm8zmKC4pW4guNQGWWokuPmyQFmsqdNFAyhkTXY4Y0bMxTSi6LBFdytBI6VQJoisV7YLJNJXarfOgdpswNtqfw84g4sjDZBpZGqZO2zDUapWH/XvmkNO4cDxliK4JE8ejaNGiWLZsGWZMn5msGMiDEVE1qt1S9uf1e+fxxwbb3p4H+gZjQJPJrP3y/VPtJrrqlmqFWiWbs35mbP0RF6JOpggeaXVQ9rZNd8NBa8gfXAyf1/6BLUcourTPqiC60urVnrrm7eb2Fkauloiu6xGxmPSN7UTXgFkVERDshWM7orF4bETqWmAyzIZ+h3jDE9q7aA8Tii5t8AXRlQwX5RsyRMEcJfT3CtvOrMS/xxfatPLyBWqgZeUvWJtRq3qlKNFFcxj+43C8+25FbNm8BaNHjzG7lspVKmPoUOk+afCgwTh48JBNa09rldVEF82f9+lSEl8ySWQwpOd9shRm8A5mXlSHB0rJHJUeXYa5SkQd+1uhMuO8xlIR0aU1b/m6SVGiS0GQcTIuexVdmmovKzIuEhiyR5eeJOL8saTjvC+X6zMusjEF0ZXW9rdUNV9f/wzInicTu3YjLzxBfFzyhmr4Bngie6hPio1PJ6N0mTIYPXokm0P7dp8iOjo6xc5RaNZC8HT3xJMXMYiOvWXTPJxFdPlmDEB2/9xsb4m8f8nuEEibJp+OKxfIHo7udYaxFQqiS/tEC6IrHX8BknlpoYUzw9PTHU8evUL0zRc2j/6mE11qwLrXGY4C2QXRZepCEkSXzV8x0cAEAh7uGVjYMJEGdP9H94G2lNRGdJUtVw4jR45AUlISOnbsjNtRUSaX4+bmhpmzZiIkJDdOnTqFfn2/sWXpaa5uaiW6DGQQR64pSDiVMkvLp8uMRxdPNmkpuhRklO6sOqLoYv1xyiy1kb4gukxkXbRMdMlm8GpxG09+Sd5ajii6NI3oWac0jnT61GGU0ufa85jy28g0t1mICQsEHEVg0OCBqFatGk6fOYO+X/V1tLsUa+8soivFFpBOBxZEl+UTK4guyxiJGsmDgCC6lDgLosv8dSeIruT5XopRLCOQ2oguIq8WLVqAwKAgrPp7FSZPnmJ2EfXrf4Q+/+vD6vT6shfOn79gedFptEaPr76TCBhOMWWLoktPCGlkXlQYvvOZGHnvKoXyS3se0hgSwAafLy7rIzugO86HLwqiy3BVmvLoUqiuZNWUxNroG6eIoitJlUlRQ9Fl2p+LLcCg+pL7UmdiNFKG6TIs6lYuZWt0JOOiYR6G7JIS4SaIrjS6Y4pp242Av78/Fi5eiAweHpg4YQLWrl1vd18p3VAQXSl9BrTHF0SX5fMiiC7LGIkayYOAILqUOAuiy/x1J4iu5PleilEsI5DaiC6acfce3dG0aRM8efoUrVq0RHyCaYP8DBkyYP6CeQgMDMSuXbvw048/W150Gq3BE10ykcQTXQZyyaCgsjbzoimiS0lYcRkUZZLKjVdraSm6JGaL+lcroxThk1RL7ksVuqiYg/QHO4PGqi3DiRWKLpVxPU8mMUqHZ8S0SCSpkp5OM5A/HKnGCCoD0WZO0WWNET0bkiO61Fkglf5ZOnKNX4tDRJd2xkVBdKXR3dLGaVdukAuNPy+o2WrNzMvYvdpyuJy3rzve+zgE4RWzIiiHFzwyuOHJozhcPv0Ye9fcwq3LT83OqnH3gqhcP5dRHWvN6PtOKsfCLTfOu4qtSyNRsHQgqjcOQUhBX3j5uOPBnZc4svkOW0uS7ntmakL0A0w/xFQ+adESMTG2ScXlfslboVyB6sifrSgyewfgrbfc8OjZfZaB6dDFzYh8cFlzCpm8MmPoJ38ZHbPGjD40SwH0/miUTVfAzyu6Iea5sQ9bkwpdULlwPaO+7DGjL56nAsrlq84k+D4Z/RCX8BJ3YyJx/OoeHL60FQkWMgFlDwjFe0XqI3/2ogj0yQo3Nw+8jHuG6NgoXLl7Fieu7cWdmBs2rTslK9tLdNF1VDxPRbydoxRyBYVJ1xXeYhkQI+9fxvHre3D6+gHNpcnE0ZJ9k+Dt6YPqxRrB2zMTLt89g2X7pyAxMR5NKnZF0dzlkPg6Ecev7sbaI3OMzo0662KRXGVQPfxj5A4qAHpbG/34Fo5e3oH9FzYi6bX5sOeSeSuh0tt1kCsoPzzcPHD38U3W7vClbbBEdNGNDuFYJHc55Asugqx+OeHl4Y1X8c/Z9+x81HHsPb8BsRrXtrPOvU+OPKgwYgHr7vDgDngVcx9hjToiW5n34OmfBXFPYvDo7GFcXzsXL6It76PUj1/mzPju++8QXjwcJ06cwKiRo1lCDFeXYt2HIrhCTdw7shNnJw9C1tLvIaReK/iGFmQ3nM9uXcWdPesQtWut4gWjK+eVLbc33q2XCwVL+yMgqzc8M76Fp48TcCMiFsd23MW5gw/4d536qfj4ZcDQBZWMpmatGT1lafTM6G710haNi8Dx7Ybw9gp1cqJ5LylL4Ywhp3HRjM9k5kBPDJxdEeQltm9tFFZNu2T1uClV0R6iy5HvK5+U5dd//of3ijZA6bDKbH85enkn1h6bi+z+IWhSoSvoN5D2w61n/jbKqqjOunjy2h7ULN4cJfK+C3+fIDx7GYtLd86AvJBoLzJXaO/9oHgTFMtdHv6ZsuDZqye4EHUCm04tQ9bMOSxmXXRkL3fFefch0/K366JI7rII9ssFMjGnvTTq0TWcun4AR6/sQFzCK4tD16z1Abp17YrEpNeYMnkKdu/ebbGNsyvYe+/lzHnQNVs2rCq7tkKC8rP7HvqNvffkNiJuHcfBCxs177toDiXzVEL76saRBNaY0dNvcYOyn1q9lAdP7mDkqi/19el7OqDpVAT4ZMH1exH4Y4N2tmi5QdMKXVGpcF32XfxxeTf23bNUihcPx7jfxrFqQwYPwYEDB802adOmNT7r+BmSEincsRNu3045Q31La3PkuGmii1dPEQlkO9FF82JklDxBXr2lIpakeroxFEQX68VI0WUt0cWyQzKhGOf6rh5bmqjiepTnzmMriC4FmaVUXBFQyUV0mTKil+bA/pedN309QXQ5skeItnYi4EsszE0AACAASURBVCjRlSt/JnQZVgLkraVViMD9d+417FgRaXKGziK66EHh3q0X+LhbAX6v1I97eMsdLJtgXvo8atQvKFO2LMsI82n7Djaj6pXBG62r9EZ46Dtm287a+jMioo4b1UlPRBfdPLev/g0K5ihuEotbD69i5tafTd4glc1fDZ9U6gl3Nw+Tfdx8eAUT1n1r87lKqQb2EF1kCD2y7WJGmJor56NOYM6O0UY+ajJxRA9w9FDIlyvR59hNeKGcpRSfbz61FJtOSskQ5MITXdtO/42P3+moOR0idOkaj0+MMzpONzqfVO4JetusVfad34BcgfkQFlwYl++ew9RNQ4yq1S75CeqU+sQsFq8SXmLR7gk4e/OwS041T3T9N/Mn5GvcGRmz5jQaKynuJU5N/B4x545YnEe3zz9H8+ZN9fXmzZ2PefPmWWznaAWZ6Iq9fBb3ju5EgU96anb54OQ+nJ00EElm3sI7Ohe6z63VOi9qtszDCCBTZcfKSKz/66rR4ZQmury83TFkXiVk8HLDsW3RWPybaQP7ao1zo0HnAmwNE786hpuXzL8UchRbZ7S3h+hy5PvKE11a+9feiPUsu7BvRn/F8qZu+oG9WJILT3RtOLEI5Qu8j6yZjb+v9OJl/q6xOBupvW8QcdG19g+g3zd1ef7qCTaeXAJ6UURFPQf6zNG93BnnkO8jPOQdtKryJSO3TBVrXrRl9vPD4iWLmBqeysuXL9nLQvpvchRH772cNcdsfrnwWY3+CPbLbbLLxKQEDFvWCS/ijF9ipCTRRRPms2wTCUZkmFahe7IhzWfAxysz/rt1FH9u+8UqCD09PbH6n1Vwd3fHmjVr8PvEP8y2y+zriwWLFiBjxoz4559/8Mfvk6waJ61VSutEF+HNCCit0EXpoAuJLjYAO+VKEoy7CngCLX15dKUNoksKP5ROCCmpnKXokozpDb5gBpJPewz1PEToYlrbKh2fL/+QYEnRRUquvpPegV+QJ7vMDm64jVP77iPuZSLyvJ0ZH3ySB2RuT2XeyHM4vfe+5gRJ0irvQWFF/dD9F+mB21ZF151rz5AtxBtXz8Xi0MY7ePEsHiEFfPHBJ3nZQweVP/oex40LTzTnQYoU+gH28vLCjh07MeLnETYBSjfk3WsPYwoTKrcfXcf+i5tw59ENJCYlIotvMFPklMjzLubvGodTN/abmIdBTdC15iDQG0prbjTVnTkSuihJkSXMwrIVRo86w9m/rVV0kULniw9HsLeZVE5e34ezNw7h4bP78PcJZG/CicSica5GR2DKpsFGLyHoLXv/xn8gg7sne9u+/exq3Lh/AS/jnyOTlx9yBeZlDziEe7onutzcMartEjx+/hBnbhzA9XsXEPP8Pvu9CPTJhqIh5VEm33sMa1LKLdwzXnE5yEQXfbj26Bxcu3cRNUs0YQouKnTj/fehmYh6eBX1y3VgZtPqt71UTya6qD4Vms+W08txJyaSndeqRRuwjGxUDl7cguUHphpd46Qma1CuPfv8Tsx1bDuzCvef3EEW3+x4P7wRcgflA5FUXh4ZTRJddDNeo3gTXL5zhqm3bsfcwItXz5Apox+yB4QwBSC9laaHVro2XKH444muhBfP4JHRB1E7/sG9I9uRlBCHwGLvIM9HbeGWwRMJz5/i0MB2iHv8wOyeMmzYD6hUubK+ztat2zBqpG0qTZs2LV1lmehKfPWCzfflvdtMifbs9nVkDMqG0Dot4VewBKsd+e9CXF5m3lvFnjnIbT76LB/ebxbK/nz2OB771t3C1XNP8Op5AkgBVbBUACrUyYEjW+9i1VRtBZSbu4Eg6zK8BAqWDIC1ii713O0JXWz9dRGUqRHMfguHtz/A/qtV+owvi9wFfHE38jnG9rRMhDqCq7Pa2kN0OfJ95Ymu53HPsHTfH4hLiEOzil2RJXMO/T607MBkJCTEo23V/yGzdyAOXdrK1Kpy4Yku2l883b1YHVIEJyTFoWD24vigeFNk8PBCQmI8xvzzPzx8elcBW8YMPvim0QT4eQcyFcueiPU4G3mI/XYVCymHqkUbIiEpnu1dVDSJLgf3cmedR+qHFFydanzHfutprzx8cSsioo7hyYvHyOjpgzxZCuHdwnXwKu45fl3zldmhCxTIjylTlfvCZ591RNQt04bjzlqLs+69HJ0PXWP/azAW9MKSyrmbR3Hi6m48eBrNVMvBASF4p8D7yJP1bQxd2pEpAdVFnaX5lzaLGDlqjaJL3Zc9oYtE/vZv/DvrSutllzxGsZDy6FjjO/bnvF1jceq69v2sFqZTp05G/gIFcP36dXTt0s0i7D179kDjJo3x6tUrtGnTDk9iYy22SWsV9EQXTVzn02XwwdIKITQ8NzESSc5yqOHRxbq0Q9Glnoc5RZc8hiC6uCtPkT1RQ2nFqioM1KXGtmVdVKmmVGGLrD9FZkTdBM2ELhrM4s2HLtqi6HIq0cVhpk108aGKBpBpDoLoSmtbo/PnawvRxT+Q/DP9MvasUYbnZMnpjT6/lUHGTB54dO8VRnY5pA/RNTXzsHA/9BxZmh22leiiNmf23WekGv9VL1gqEN1+kh7Sdq26hbWztMMG8+bNixkzp7N6M2fMwtKlSjWLJbTfD2+M+mXbsWrHru7Gkr2/a4Zv5QsuynYyIngslc9rDUHBnCWTneji50XEXc+6P0m4bPsJ52+dsDRt1CrZHHVLtWL1Fuz+jT1MqEvpsCpoW1W6eZ6zczTO3FCmj3737TpoVlG6CZq2eRgu3TmtOS69Qb0X6/qbaYuLtrKCPYouukkpk68qTlzdYzIksEWlnqhQ8AO2j/+y6gs8emoIp5KJrsgHlzBxvXRzSrh922gi+zedHzpPVEiB93ntoezfg5d0YGGicpGJLvo79sUj/Lb2G4Uaj27IP68zlJFdr18nYdTq3oo3wp4eGdlbYHr7fv/JbYxf9y1exRsy4RGp2fujkcgRkIcNaUrRlT97McQ8u4+H3Bp5+CmUsW+DcaCsVUcubweFbDq78EQX9X1lxXTcWKdUX2UtXQXFe0tJXW5tXY6LCyaYnQbdzNNNvVzG/joOGzdudPbUjfqTiS468OrRfRz54TPEP32sr+fm4YHS/f+AX4FwJCUm4EC/5hZJO3smTRkSvxxThr34oBcX0wadYmSXugRk9UL+kv5MMWWp0N5PvwHJSXTxvznq0EZ5vsEh3ug3RVL+kjKNFGppodhDdDnyfeWJrp3nVmPtUek7Vunt2mha8XP27xUHp+tDFeuUaonaJVuA1MLj1xkytfFEF7XZdHIJNp9apoCcVK3dag1mn1FY5OJ90gO/XEhFSuo09ZjycXp5Q4puuWgRXY7u5c66Rjw9vDCgyRT2coBeHs3YMhw37hsTx7QnU4j5rv/Wmh2alDpz5s5GlixZWD0KMevUsTMSE7VJXmetg/pxxb2XPfPrXHMgKJyfysqD07D/wmbNbijcjwgwLUWXusGodkuTleii8el+j+776Dd61KpemmtoV+1rlMpbGUQ+D1/Wmb0ss7b07fc16taty8IRP/64EeLijJXffF/B2YMxZ85spgKbO3cu5s+TLAPSUzFHdMkEk0GtJPti6RDgiS76SBciKCmsuFBHGTArQxddQXRJ09M72rMZaXmIKT7n1FiGJagVXM5VdPHj68fkwy6lCtL8F67Zpk41yA64iuhShibaQXTpMytKS1N7dKVGout1ki6ro5S2UT9vmeiyNeOifH6Eois9baPWrcUWomvw3HfZG/YHUS8wuscRTRKrTtsw1GolPbROH3wal048MjsRR4guus5HdT2Eh3eNpfL9p78DIt4unYrB9IGnNOdASgpSVFAZM/pXbN6sfZOi1Zge8Ac3nw7fjAGIeXYPo1f30Qzbsu4sGGqlRaKL3lwOaj6DvdU8dmUXFu2VyBSt8lWDX5ErMExBtMj1+HCXIUs+teqm0FZ8U6K+PUSXNfPMGRiGrxv8yqrSAxo9qMlFJroOX96Gpfsms4+lEJol7CZj48nF2HJqOfs8MFNW5tNBhTxxeL8anugiZdjOc2uMpkZEbs+6P7LPN55YhC2nV+jrEFnX5j0pi9KSvX/gyJUdRu1J9dihuvSAaorosgaPz97/FuGhFRgZ9svf2qF41vRjqg5PdJFS68A3zTVD+sp8Pxn+hUow4mjf/xrhdZLpBz9SlTb8uCHCw8Nx8tRJrF+73kjp6MicTbXliS4i44iUU5fAYuVRqp9Ehl5aNBE3NytJAmfMq/13xVCiSlb2omLcl0dw94bj/mQpQXTR/e/3MysiINgLF449wswfjEn6uu3zoeYnocw3ckSnQ4h9YNkDyRkYO9qHPUSXNWOa+r7yRBe/r5HS+fPa0u/15I2DcTX6P/Zv8sZsVbkXnr58jGHLOuuH5okuUtL8uJy8pIwfzqlP6ptUX6S6IXWXXPo3+p35AT58chcjV3+p+d38usFY5AzMy5poEV3WYGFuL7emvTV1qhT+EI0rSPisPDQD+887TqiHhoaiRYvmSExKwtKly3A7yvUvoFx172UNhnwdejnTt6HkPUUKdlLtO6OkBNH1TsEPmGUElT82DMT1e+cVS6EXVT+0mMXU9nTd0PVjS+nUqSNatZZehHbp3BU3blj2WP1+wHeoUaMGHj9+jLZt2lkkx2yZT2qoq0V00bxsybzIG8IbfLYMWRFt9ehKEaJLWjQ7JWpFG3+ejI9peXtxLWwMXeTHl3tR+Ivx82REl5aSis+e6ERFV4oTXSoVmjVm9I4qugTRlRq2qfQxB2uJLiKNiDyisnvVLawxoZKisAwKz6CyeeE1bF5k/gfNEaKL/LnGdNf21ej4Q3EULR9kNkSkQYOP0LuP9BD+w+AfsP+AtrG31pkOzVKQKVGo8KSBo1dFWiS6SM3To64U6jh7xyiTXid0vNm73fFuoVqaYXK87J4UOaTMSQ/FmUQXH2JKaqkfW85hEK0/Np+FOshFJrqImCKCSi7DW85l5vSrDs3C3vP/so8pPOfHVnPZv8mMlkxp5cITXaNX98K9WGNjWJrT8E9mM88X8qEjry658EkOfljaEeRpoy508/xjq3lwd3O3meiihx75JumjMu1QvVhD9qD6/cLWTr90eKLrzr5/ETFTO9Q5b4NPka9pVzb+4UHt8SzqmtPn4miHPNF14NsWeHnf2JflLXd3VJ20AW6eGVl45tnJxt5pjsyD/LiGLqqEjD4eZl9I2DpGShBdNEf5JQ8jsjoeROxDpWrhu5kVEJQ9I84ffcTUy2mlOJPosub7yhNdf20fiXM3pRBPngwau+ZrfXgyeU6RRxKRWN8tkB6mqfBEl1Z4t1yvWrGGaFhO8uf8/d/v9Con3j+TfMFWHf5T85TxHke2EF3W7uXOuk46fzCAhS6SyTwRelp+is4ay5X9uOrey9Y58yH5PPFqaz/q+ilBdNG9BBFZpPrbd2ED/j44UzEt/t5s4r/fI/L+RZuW2bxFM3TrJqn1v+33LU6cPGmxfcGCBTB5ivSSbuLE37F2jXmFocUOU1mFdEN0Ea6c6byBfOOM7M0pulj7NEJ06eYqKbrSGNFlyK9oh6IrHRBdsmpNKLpS2U6YDNOxlugqUi4InYZKJuPLJl7A4c3ahpWUgXHESp130M5oLPrVfLieI0SXqTfnNMe23xZFqarZ8Cj6JX7prAyRk2Ft1qwpPu8uhUJ8/VVfnDlzxmrEKxasheaVpGyN5sLsrO5QVzEtEl1Vi9Q3aVJuav0UOjF4sTJbEJkLf9NoIjP9pTC4/24dZ/4hN+5dYJ5QtkjlbcXdlfUdIbrI24PCE8k3jTzY6EZUq1BIDoXmyEUmunacXYV1x+brP6ebWcJ5xYGpOHBxC/ucPGpGtJZCA9QPagaPrkQMWNjaZBglkb70AELKBwqjlAuFBVF4EHmuDV3WySTM5BFCXiHmFF10M16xYE3mjZMjMA+8PTMzckyrfDuvhZGK3NFzzBNd5FlF3lVaJWu5aij+hUT2nfljAO4fS/5MZJbWKhNdZJy/q3ttk9XfGT4bmUIK4GnkJRz5QTsRgaWxTB3Pkssb/adJL0+2LrmBjfOdQwimFNEVlCMj+k+vwO7ZKVyewublElbMDz1HSSH6C8dE4MQuyyGY9uLq7Hb2El32fl95ootP4kJJNfp9LHkR8qQ7kTdE4lDhv/c80aUVtijjxLcnNTKpkqnkzVYEX9aTQvhXHpzBMsRqlbL5qqK1TrVqjuiydy931vkc1Gw6yzZJFgqTN5rPruesMV3Rj6vuvWydK51zOvfk3TZgYRun3Z+kBNFFaydVJKkj6WXUcJX6sVutISiUsySiY29hzGrp5bAthcIWKXyRijWZF+W+5WRRUbduoVOnLkjSRTPZMnZqrUtEFxWmGtJ5dLG/GemjM3LXq5Kk0EXpuM7oXfbokjrhMicms6JLPb48Z50ZvX6N+smrDOQ1PucN5uXzlyoUXbq5pjjRxSu81BkXaY5GHl2cPxd/XG/qrs+WaMKjKw0QXYY1sxUyDAwhmoawUkF0pdYt0XXzspboKl0tGG2+kUzX54w4i7P7TZss/7ziPWTwdMN/Rx7ir2HmySNHiK5zB+5j9s/nNMGRia6Y6FcY0Vk7nXGjRh/jiy+lh/LvvhuAY0ePWg10jfDG+Ejnz0WmrXdjnOO3khaJrrqlW6NWiWZWY0cV1W/f5cbkF9WySi9mLM4Xqn/9/gXsi9jAwgTSUrGH6KKbn0YVOoHCTawpFC5IYYNykYkutaHtDy1msnDb5fun4uAliegiXysywKUyfctwXLxtCPWVia7ncU/xw5LPTE5FJrToJpmUW3Lp9eEvyJO1EFOC0cOpqSITZaaIrlxBYehUYwB7ULOm9J//iUlSzpr2WnV4ouvCnNGI2mkcxkntAouWQ6lvpAfyiFkjcGevpJxLTUUmusifa3/fJianVub7SfAvVBKvHtzB/m9aOHUJ5M/V61fJ34ZM5vetc07YU0oRXbSO7iNLIX+4P6KuPMP4Pobfk6Y9C+HdD3Pi5bMEZlafEC/ZT6SFYg/R5cj3lSe6eI9IympHxvBUyEeI/ISoFM5dGl0+kIib/gtaIkkXKswTXaTGIlWWVuEJLV7pSt5L5MFEZeHu8Th+bY9me54o0/TocnAvd9Y1Qns87fWUFGfezrHO6jbZ+3HVvZetC6Frjq49CoslhZyzSkoRXbxX5+wdo1nSBSqUiGFQs2ksgcH64wuw/czfNi+1YcOG6NX7S9ZuwPcDcOSIdffa5cqXxS+/SNkdhw//EXt2a38HbZ5QKmigJrpoSpLK00B0yZ9JxJcguuTTJmOk/FsvDJM+dkXooq7fN4bo0nuOWSC6DOI23hTesayL1oQuWpVxkU4am4o0N0F0pYLdL5mn4FKi6/AD/DXckO5ba2kpSXTVrPUB+vfvz6b1808/Y+dO6U2uNYUywH1Upi2rKoguA9H144puiH3+0BoITdYhJUB4SHkWZhEWXARBvsGKurv/W4d/jvzl0BjJ2dgeoosPp6FQwu1n/2EZKOmmWn6Qo3TfI9suZkvZenoFNqQCokt90+8Moouuh/6NJsLPJ4iF2+w4uxqnbxxgmRvjEww+R3wIEf/A66xzLYgu5xJdeQr74ctfJZVTeiG6ytfMjk/+V5itaeyXR3H3+jO4e7iB/C19MnvgwIY7WDnpgrMuyWTpx1aiy9Hva0oSXZSJdt/5DQxXZxFdju7lzjrJ6YboctG9l604d6k5CIVzpR+ii16ufddkErvfOn39AObukvw/5euXVPYjVnZHjB33d23btUGHDlJ4cO9efRARYTkxk3w+5IyN1IbappdinuhS+1VxBvPJrOgivCWPe9kTiyfd9Ckf2WnRZ4LUNdKLu0yELkptbAtdlKpLZKBcFCSg4UPDcY26ap95Q7+GK8zIo0tel1bootqInupqqa3sybqo9uhKLkWXM4gug9G9sYm+sSm+DjNOjSWZz3MqNekPJkazleii+lPHuz6teXrZpNLLOqwluuwJXTy2IxqLx7oudNFRRVfx4sUx7jfpzeaEiROxbs06q08rL59Xq2Cs7kSjYlpUdFUtWh8fl5feaFLWK8p+5cwS5JsdZfNXRfViHzM/KSq8l4ozx3JFX/YQXQObTWOqNiK3Jm0crCe3+PlRCCKFIlJxNdGVmGRd6KI6a5P+YcCB0MUKBWuClGVU/tr+C0vhrlWaVugKym5FxdVEl/WhiwNx/5j1BLorrj+tPm0NXXwWeQmHXRm6uDQSG+c5Z99ISUWXZ0Z3DJn3Lui/lFWRsiuGV8yCDoPC2WmY9O1JXP/PkN0yuc63I+PYSnQ5+n11BdFldejingksgzIVCjXs9aHkw+dI6KKje7kj545vK4cuXos+j0kbJaVaWiyuuveyFQs+dHHgoraKJAa29sXXTylFF81BTghECvphyzqxhED/qz8GuYPy4eLtk5i+RUo6Y2vp3qM7mjaVlMOtWrXGwwfWvwzlX0jbajFi6zyTs373//WXFFy60EUa26Doso7oktsYeWTplGG8Gb35/pUhlDypJbV7M4kutnaNzIuaii5nE128BZgziS5FX/psjFwSSfkzFu4oS7mkr4YyJJJXb8lfHWNFl9OJrte6bIzWEl36JUihjILoSs5tLnWMZS3RxfupmDOjDyngi942mNHz4StzfjqLswdNh0TKiPWdVA7Z82SCo0SXX+bMWL5Syja2YsVKTJs6zeqTkidrQfT6UDKjN3cTbXWHuoqyHF6dKt2afgIyZcPAplNYVT40zZq2fJ3QrIXQ+0NJLj57+yicvalt+C+34YkccyEits5DXZ/PukW+U+Q/ZU0JDg5mGXtiYmKsqe70OpS2m9J3U+E9Z0wNROnfh7aQjI//OfwXdkdoE7DkfUUhg1RcTXTRGKNX98a9WOPwMoUZ/a1jmLXNYNLe+J1OqFLkIzZHe83om1Tsgspv12NpzX9YIr0V1irkp0NhSFTIlNrZnm72mNEfGvwpnt8yTeDQHvTd998hvHg4Tpw4gVEjR+P5c8czD1q6iG03o9+Bs5Ola81Zhczohy2uDC9vd6ea0XceWgKFywXi1uWnmPC/YzZP9/tZFRAYnBHWvKjR6rzlV4VR7oPsePwgDiM6HWQh/6Xey4b7Uc8x+nPJWN3a4unpieDgbIiKup1i/jS2vnxx9PvqCqLrxLU9WLBbCidWF15xNXH9d4h8cIlV8fH0xbCWs9m/7TWjd8Zebu21YqkehWGSSs2ZZvREQnTrStksX2PK5CnYvdv1foSuuveyhJ/6+PvhjVFfZ18xZeMQXInWttGwtV9Zebfrv7VYc0S6/qwt5fO/j5ZVpBBBPrzX2vak5vqu8SRGuCw/MBXXoiP0vngL90zAcR0JbG1/cr0ffxqOihUrIvbJEzRv2tym5u7u7pgzdzboPo4SRlHiqPRQFEQXLUhHJqm9qHj1kkSESaunUFLpvzqPLx0hI/0tqa5SK9Gln7eTFV1Sv7qrwwmhi9JpMSjHdIDjrYX/bOW93dnnqYXo0lR7cR5dKUl0qefGK7pkQKVsjTqPLY5oM5BspokuiaMzHz4piK60sX16eLyF6k1DkDO/L84deMBuyO0t1hJdtGdQ+IVvgCceRL3A6B5H8DrJ6KuOuu3CULNlHjadGUNO4+LxR2anxhNoKydfxIF/jbO6qTtwFtFF/c6e/Sdy5c6Ns2fO4auvvrIaRgobI98CUtXEPLuH0av7OCWLkfyW8OnLGAxb1sXq+VBFXuFjjiCx1CmZgpM5OJUVB6fjwIVNZpuQ78fg5jOZifzdxzfx29p+TicZaAKE+S9tFrIf+J1n/8HaY1KmQHNFTlFNdebNnY958+ZZauL049kDQtGv4W+s32X7p+DQpa1mx+C9ZcwRevK1Qp2psys626OLxqDsjTSOuuQLLoqedaU3vRuOL8LWMyv0VUrlrYx21SQT2sX7fsfRyzuN2pfI+y4+rdaPfa7l0SX7hNED2qBF7TTvJ7L55cI3H0/Qy+sHLW6PV/EvnHoueaIr7vEDHOjXHEmJCUZjlPl+MvwLlUD8syfY16chXus8g7Qm0+3zz9G8eVP9oeS6Rnmi6+KCCbi1VSL8+RJYrDxK9ZOu28uLf0fkpqVm8cwc6Mn2/oyZPLBvzS3cuGCcYVPdwacDwlG8Uhb2WzKu11HcveE4ydeqbxGUfT8YT2PimB+WraXv5PLIHuqDswceYM7P5kPvtfrOX9wf3X8pxQ5R+zbfFGWelRvmXcO2peazEPP9FSlaFD+P+AmZfX1x9+5d9O3bD9F37f+ttxUHuX776n1RMk8lxDx/gJ9XSMlbzBVHv6+uILq0DLblNXxe+wfQSxTaL4iM5wlyMr8nE/wHT+5g1OpempEofRuORY6AvKw7tUeXM/ZyS3hbe/y9IvXR6B1Jeb3y0AzsP69trm9tf5n9/LB4ySJk8PBgTV6+fIlPWrRk/3VlcdW9V5mw91A8T0XcfnQN28+utngPkzMwL75uIEUEkG/o/F3jnLJsWXl34tpeLNgt7b/WFv73dtzafmwttpbudYaBXl5ejf4PV+6eQ80SzUDJg4Yv62L3Pe6y5Uvh7++PI4ePYMAA29WEcuIoetbt2qUbbtywfh+1df3JVd8S0aU0pFeFLmoQXTRvfeig3uvLODSQN3pXKMg4U3xXK7rYXGXPMekPBrt6bvy5MD5mHLrIdeUUjy4ZU/U1ke6JLj2pZEHRpTSAJ5gMBvASYWUgABXm8Dp1mHOILrWyzHgOupkJRVdy7W5OGOfDT8NQo4VEJlH5c+gZRBy1XgrMT8FaoovaNOiYH9WahrDma2Zexu7VhqxS9FmWnN7oM74MSxdPb7N/6XQQlGrdXHmL3uovrMQejsxlUeT7cCbR1bt3LzRo2IApfhp93BiJiYlWn6EPijfFh2XasPoU7rBk7++aBth0Q+Th7mlVSmZlqvMBLHTN2kI/BD+3ms+y3Q/u7wAAIABJREFU6NF8Fu2RjHttLbxC53zUCczcKqmRzJU6pVqidknJw+fgxS1YcXCa5kMB3aRWKFQTj55EIyLquKJLetiIfnwTsS+0ydFiIeXRsYaUqYbPGmhqXnny5MHMWTP0h5MSk9C+XXvcu3/f0nKcepwe3H5qOZedl/9uHcWf2yS1nKlCGA1vOYdlWLxx/yImbRhodF0ROdS+al/9jcGhS9uwbL+UipuKK4iuJy8eYdzab0AkrFzc3nJDt9pDUSB7MTbHkau+xKOnhodxWvPgZjPg7emD+7G3MX79twoCio73+XAkiAykokV01SzeDPXKtGbHCTvCkC+EE2WFyptN8kaiQg/k9GDuzMITXdTv1ZUzcH2tkmzNUqoySvSRLABubV2Biwu0VSTyvIYN+wGVKlfWT3Pr1m0YNdL1FgI80UWG9EeGdkT8E+68enigdP8/4FcgHEkJCTjwbXPExZjH84sxpZG3iB9by6sXiRjV7TAjm8yVvEX98cVoiRS6c+0Zpg48heex8UZNfHw9UKBUAE7vtfzdrdY4Nxp0LsD6+KPfCdw4H2vTZdBlWAm8XTYQMfdfsYy9Wi90zHVI9+yUfZGyMD59HA9f/wzsd5B+D+l30doycNAAVK9eXV997dr1mDjBvj3d2jG16vHfv4nr+yPywWWz3Tn6fXUF0UUT3nxqKTadVJK1lEmO9g4q6j2UPuN/41cenIb9FzYr1s4raOiAmuhyxl7uyLnj23pl8MaAJpPh45WZERfTNw/Xq9f4erSnlyvwPg5f2mZ26AIF8mPKVElBLpfPPuuIqFvOSSphbnBn33u9nasUutY0KFbV2YpNzYXaUFsqWteH3I4IqPO3T+Jl3DOLp5PucehehxTMP63opvChtNSYD7e1V9UvX9P0DEoEMakS6bqn9dlTcuTIgbnz5rCm06dNw/LlK23uxtvbGwsWLoCvbyZs+HcDxo2zjQC0ecBkaGCK6KKhzWVeNKXoYu1k03oHiS5+DtK/JUAM81IRU3qrLu5zM1kXDX1pe3Txx+VTIYgu/UXJZRPU8AFzhqJLEF3JsAOIIcwi0OvX0ggtLD1QUNn5902s+/OKXajZQnTRw0a/KeWZqotu/g9uuIOTe+4h7mUiKASxVqu87KaeyoLR/+Hk7ntWzalJj4Ko9FEuVnf/+igc23EPL59LSom45wl4dM9gOE2fOZPoKlmyJH4dO4aN1ffrfjh9+rRVc6ZKdBPbo84w/QN21KNrOHBhI249vI7XrxMR6BuM8JB3UCqsCsvaRNmOLBV6A9y/yWR4uHng0bP7TEUT/ZhuHCXCkDyQEhKNHwTlfinNOpm4E+mw6cQSnIk8CCIoZFXty7gXmooY9bzk8BP6fN+FDTh2ZQ9exUtqC/ovzY0vhMWXH45ASFB+9jE9DFE69juUjfL1awT6ZkPB7MVRKl8VFhKyZN8kHLm8XdFH04qfo0LBGizrX0TUCUQ9vMo8Inwz+rGQi8qF6zKyiG6+SJZPmQDNlezZs2PefCURMXToMOzbm/xZG1tW/gLlC9Rg0yUzfXpbG5cgvfl+GffUyOC1+bvdUbFQLXb80u1T2B2xnmFOWJTMWxkVCn7AbmroXGT0zIQLUScxY6vBP8PZRBddc6Ske/zsPjafWoY7MTfg5xOIqkUbgrI1UTEV3lO1SH18rFMSUEjuttMr8eDpHWTJnIM9SJL/B6kp6EFMi+gijzbKtkbfCXpAo/ZXoiOQkPgKIVkKoHqxRsjml5M9GJCqkMofGwbi+r3zlr5uNh3nia7EVy/g7pkRUTtWIfrgViQmxCMovDzyNvgUbhm8kPD8KQ4NbAdSfpkrjZs0Rs+ekv8YlbG/jsPGjY4pLaxZlN6jKz4Ob3l44GX0LVz7Zzae37oGr6BghH7YmmVbpHJj/QJcWT7VbLekWKJsu3yhRCT/HbZMNvIvUIgY2vvPTVw9F4tXLxKQOcALBUsG4J06OXF8511mWm+p+GfxRP+ZFUHKZ/rtWDfrCqJvPZcTaTNFsrmsh6SWrt9R2seO74zGrr9vsn7kJEBxL18jMcF81sTarfOgdpsw/VStfYnDr+2bb/uhdu3a+o+uXL6M7t17Wlq+04/T95TUku5u7ozE/ufobNyPvWv4TYqNQkKSQdno6PfVFUQX7S9kkn/w0lYcv7oLCYlxKJC9OGqVbMFeKJBa9Nd/+hj9rtGxbxpNZH6J5FO469w/OHuTwk/fQnhIOWbUTXsj7V1UtLIuOrqXO/OEEoHy2fuSNxAp1+il1H83j+LJyxjmf0m2BRUL1URiYgJLsmOuUFgthZRlySJlSL59+zY6dexs08tCe9fm7HsvyqBN2RzlcvPhFUxY963F6QVmyso8rIg8pHI28jAL7yMFoLu7J3L4h6BM/qpMIUWZGSlZi6VSMm8ltK/Wl1W7dOcMtp35m93DUSFDeFLNmyqEy5AWs9jv4NOXj1no47V75/FCd6+U9Pq1RaUzXfPUh5dHRv0wv/9r20tXfn7163+EPv+TTOQ7fPoZu07sKZ07d0LLVi0RHx+P9u0/tcnny57xXN1GEF06UoyAFoouThGi98gyXIK2eHRZTXRxJmAGHy22yxi8uEwquuTwQc7bS9qilD5eTlZ0Scb0hjGltVpWdPE+YSJ00dVbm3P6b92vCMpUN2SiszbkT2t0W4guap+7gC/ojXcmHaGl7pMuu43zbQvRoGxUvceVZW/A1UXLh8uZRBeN9+dffyIkJDfseWNON4dtqvZB0dzlzJ5c8i2KuGWdXwxv7q7u9Ld1/RD10LQcnYimnvV+QgZ3T835/Lyim1VZc+jGjZQ2QZmzG/VDaacp/bS60M1V26pf699wmgKE9qZ5u8eyzD58IaKr0tuGBzut9kRuzdkxmknqrSlt27ZB8xbN4Z3RG27ubhg3dhw2bHA9kaCeW2bvAPT+aBR7YFIXrRAFUkCRCXSuQMPDsrrdxhOLkM0vN8rmr8YyXVLGS7k4m+giEvfIpe16wko9FzKqnbXtF81wDyLkmlfqwcg5rUJZziiFOYWNaBFd1IYMrpu/+7nel0LdD6m3Fuwex5RsVMhfhB7inFl4ouvK8mnI9UETZAxSZgSl8ZLiXuLUxO8Rc86yH5ObmxsaftwQ4eHhOHnqJNavXa+dqMeZCwEgE12vHtxB1M41yNe0q+YID07uw9lJA5mqy1IZOPtdEMlEhX4HxvU8grs3LYci0j1unXb5UKN5CMi3y1SRzd0tzYOOV22UGw27SKoudRnf5yiirphWVpAiufdvpZE1l5T4Ql0WjYvA8e3mQwgDgr3w/cyK+jfhS347j6PbiByyvuTMlQuDBg1AWL58LDws+t49tGvTzvoOnFiTwpcoq6lWGbO6D6JjlepuR76vriC6KGS8RvHGoLB8dSGias7OMSZ/n4mI71b7B/aCRl3opQuF98vEhBbR5ehe7sTTyLoqnqcCWlb+Up/YRat/UhL//u/3FocODQ1FixbNkZiUhKVLl+F2lOvVXPKknHnvRS+ViJCUiy1hgxTa2uH9/uxli6lCRPBwnbm7RVABfPb+twgPrWBUlRRhg834VFIDSshCiVm0ChFwpLq2VD6p3BPvFJB+rx8+uYtfVn1hqYnJ42PH/YoSJUrYbA+i7jAwKAjz589FhgwZsGTxEsyaJfmYptUiE100f9mQXunPJflxqbMd8h5UBgWXhELyKLpU/mDSwPrx2Z96nzDl51IlpRpMK+uivg/u5ApFlx4M6xRdai8uhQcW9ZWGiS556uaILkNYJBc+mZSEqROMH17T6iaSnucdkNULbfoVRc78mZh5+/IJ55GQYD5E0BQethJd1A8pu6o2CUWxdwIRlMMbHh5uePIoDlfOPMaeNTdx85J5pY3WXEglVq99XlB2R/J6oZBGKslBdLVo0QJdu3XBk9hYtGzZGglWPNSp10Dy9XL5qiMsuAiI1CD5/6Nn93D5zln2Fjny/kWbLsnSYVVQtWgD5AzIw1RMcrFEdFE9CgOrUawx8mcvCj+fIKY8k4u1RBfV980YgHqlW6Fo7rJsTbL5pSmiSx6DFGVl8lVFWLbCeiyevYzF7ZgbuHj7NE7f2I+HXHib3I4eCIgwpHCSkCz5Qeb69BaelE/3Ym+zBxEiRehNpa1lyJAheK9qFfzwwzDs35f8ii6ar79PEHtYpJTk5Kcm42nqpprOe/WiDVAqrDKyZs4F8kKjN7qPnt7DxlNLcOzKLpQrUB2tKvdicJCHDIUHUnE20UXYE1lL55YeGHMH5mM3LBRqevjSdhy4uMkiQVM67D1UKlwHOQPC4OHmjjuPbzKfmMOXt0E2rTdFdNGaKDTx/WKNQOb+Pl6+DD9SYkREHcPfB2exkMrvG09i5Kwjobsm98oceVBhxAJ2OGLWCDw4tR/5GnVGljJVkMEvEPGxMXh09hALZ3wRrXzwt/V6dXV9nuja/00LZCtfHaF1WyFTblIyvYXnUVdxe/c6RO1ao7gfMjevgiUC0KxXIXj7ZsD2ZTeY0tiWEhzijXc/yoVCJQPgn82L+Vo9exyPyItPcWz7XZw58MCmMMJSVbOhauMQ5MybCRm8JONeKpaILqpDv3FkD1CkfCCCsnsr2ltDdFEfPUeVRlgxP8THJWF4u/0snNOeQkTX9OlTcfnSFfToYVD/2dOXI21or6lS+CPkCAhVvEjRIroc+b66gugik/n7T6JQu2RLUNg37b/0m3Tp9mnmKaiVZIPHin5HaxZvKv0W+gQxVfGFqBPYeHIp4uJf6E3rtYgu6seRvdyRc2ZyL/P0ZQrpIrnLsJclXhl88CrhBW4/uoHTNw6wsEVZceyK8Z3ZpzPuvegeqcW7PVA8b0XcfngdC/aMZ96r1hZqXy5/dUYi5g7KzxRepJh7EHuH/T6Rz6laBW+ub1Ivvx/eCGXzv48g32z6ezhriC7ql36nqxSuxxTP3p6+TI1JxVqiiw/pVSe6sRYTqhecLRvmLZjHiI8RP4/Ajh3GHp229Pf111+h3of18PTpM7Rt0xYvXjjXh9OWuThat3ufb/GWm85QXjPzojbRReMyrkiXsVE2o2efJ0voouuILmltxn5d/OeGfwuPLnYNKtVe6syIustUy4xei+jSeQ2ZC11Uk0vSHOSvQ/IoutREl9IrTGdkr68kiC5HN6u03p7ewNObeCoUFrJvXfK9kUst2JGp6rx5c+Dj44Phw4Zjz569qWVqYh5OQMDDwwNz581FlixBaNO6LR48sBxO5YRhRRfpDAFe0UVE1529/6bZFaqJrjS7kFQ6cXcPNwyaUxGZ/DKwEH4K5be3kIckeUnaozi2d0zRTiAgEHhzEeC9Yk0R2dag0/7Tdmjfvr3TwlpJQUi+q0SGUJZ0ypaeVou1RBdP7BhIoJQluiSjfOn/WdFSdNHHOsGCInOhGUWXYa1KY3r+cx4P+dwr1V66T12VdZHWZXfWRUWEouEPRcZGs6GLhjA9efHpnujSwcTM7HWhi6aJLlXGRQJJFz4pZ3MUiq60umXaP+/QQpnRa1wZ1oEtvlr2j5g6W3bo0AFt27VBREQEeveS/ARESR8IyD5Ihw4dwqCBBsPZ9LE6sYrkQkAQXcmFdNofp9R72dC2f1G2EEeSxZAJ84wZ0xGcPRi9v+yNiPPO9Z1L+0iLFQgEBALORkDONmptCKvW+PTimNRclDV29Ogx2LLZOVYCw4YPRaVKlRAdHc08v2xJIOVsnBzpj4gupsrSKbP0ZBFvJK8ghQzEkpGiiyZCYY7JpOhKHUSXbtFG2Rp1Z8US0WVorj+NPGEmf6gg6eSuBdGlJNxsVXQZFFh6Fkt2A5MUajqfMInYklAXRJcj282b3bZu+3yo+YmU8Wz054dxPyrtSoEdOZP0QPHXX7MQlCULI0OIFBEl7SNQs+YH6PdNP7x69Qq9vuiFyJu2hVOlfQTECpyFgCC6nIVk+u6H3mL3HleG+VnGRL/CyK6HLGYf1kLEL3NmDBs+HOHFi2HduvWYMD75My6m7zMlVicQEAioEQgPfYclLKBC3naHLm21C6Q2bVrjs46f4eLFi+j1ZW8kJZlP4GHtIGFhYahatSqrvnHTRkTfNe+XaG2/yV0vpYguWicfHqj/ty58Uu0TJtWX0DH2C0tJRRebkWpehrnqJy17oOlOsILMUlmCOpXoUiut2PhvkqJLDoNUmMWrCTLOXF53ggTRldxbUfoaLyh7RmTIKMXqZ/B4C/lLBaBe+3wsO1XkxSf4/evj6WvBNq6mdKlSKFGyJCIjI7Fjxw4bW4vqqQ0B2ZfrydOnGPbDMJw6dSq1TVHMJw0hIIiuNHSyknmqPpk84O2fAb7+nqjSICdKV5OSFKyadgn71tpuB0C/RYOHDAKF1ZOvzehRo+3yjkxmGMRwAgGBQBpEgDKrki9YSNYCaFjuM2TyyswS3Iz4u6dmghlrltio0cfw8/PHnr17cfWKfVnhrRknrdZJVqJLYqmM/K/48ENZuaQPN5RkYzoiSUI5vRNdyjXq1ixL7bgLzarQRXNEl1G4oUG2pB+Gs9DifLjSUOgiR3SpFVyKv+VQTd5vzApFlwFDlS+YrP5iyjAJThb0qFOKidDFtLplWjfv7r+UQv7i/kaV418lYdqAk7hxwXLqY+tGErUEAimPwDff9sNbcMOff87C/fvClyvlz0janoEgutL2+XPl7Gu2zIO67ZQZUq+cfYzpA07ZpeaiLMA//vgj5i9cgK2b7VNUuHK9om+BgEAg/SAwqt1SlkBJLolJiZi9fSQiot7sl9+uPMNGRBdjWSQySW3ILv1tUC9ZE7ookzZ60ZLJfnVjyv3LvlppneiSAJAIOhVZpfYW48+zWtVlVeiiwmNL15sgunSknEwycUSWJaLrtU7+aS50URBdrtye0m7faqLr+bMEXDsdg02LrptNt552VyxmLhAQCAgEnIOAILqcg2N67EUmul4nvcbj+3E4tuMutiy+gYR454TrpEfMxJoEAgKB1IGATHS9in/BMoRvOrUUV6MjUsfk0uksXEV0MWJHzubI/L90RRBd+ivJFqJLkyhTe3SlFNGlRaYZ+V/RCpIl66IqLNEBRZcgutLprieWJRAQCAgEBAICAYGAQEAgIBAQCAgEBALpFoG0QXTpaJ5U4NHFZqLK2GjWo0tqwK4fRxRdguhiRJlkBi9xZvRfLTN6VcZDddigA4ou/dhc1kW1okuanoU5vH4NEbqYbvdUsTCBgEBAICAQEAgIBAQCAgGBgEBAICAQSEEErCG6pOyGMsGjHbqoJ4B0WRfZ3w4outThk/IceKJJzrrIj80TQnpCSg6D5EMHVWQVWxWfIdGIzDKcJEF0GRFMnLu9DidXKbpSBdH1WpLIS3Zb8tol/y1BdKXgbiaGFggIBAQCAgGBgEBAICAQEAgIBAQCAoE3HgGHiS7GD0m+aowAEkSXDgvu0koLii5F2CPnQG+NGX1yhi46m+jSz11tRq8zomeEFlNw8Woyy0SX0v9LuhiEGf0bv98KAAQCAgGBgEBAICAQEAgIBAQCAgGBgEDAxQiYI7r05JU5RZc5okuSgUnG9vI6OKWUltm9vqbKED89KLoYnpyqLGU8ujjxFU9QCaLLgICcGZEptAwpE7mwSUF0uXhfEt0LBAQCAgGBgEBAICAQEAgIBAQCAgGBgEDALgRcQXTJhI6k8OKyN0rMGZunqayObyTRJQGmKOqsi2qSjP1tlxm9ILoUPl+8oksfhCjFJEqhiFYRXbwnF50aqS37F+tLOrdC0WXXHiUaCQQEAgIBgYBAQCAgEBAICAQEAgIBgYBAwGoEbCe6dJQLI7CkYdShizIpI4gu3Wngvb+0FF0SYIoiiC7eNF6TbFKa0RtCLI2N4GWySvLQMjB9ir/VGSGdTHTxcyASTZjRW71HiYoCAYGAQEAgIBAQCAgEBAICAYGAQEAgIBCwGgGe6JIJKtkIXiKxiIHhzeidT3TJ4+hDGSWjL4Xqy5DZ0JD1MK2Z0evx1fNfHLuV3ESX2lfLUuiisr4622HKm9EnF9El+XXJ6zfO/iib0asVXXqiK0kKexREl9V7lKgoEBAICAQEAgIBgYBAQCAgEBAICAQEAgIBqxFgRBefIZEjmawlulh4IiPDJIJKJnSsVXSlF6LLgJcigaMym6NKumXKp8vlii5BdEkkla2hizLRJRNrUnvLoYuC6LJ6TxIVBQICAYGAQEAgIBAQCAgEBAICAYGAQEAgYDcCjhBdErEj/Y8gunQEn96DjDslJkIXeWIs2UMXUyvRJfFGKsVYMoYuKogvDY8uQXTZvdeIhgIBgYBAQCAgEBAICAQEAgIBgYBAQCAgEHA5AslBdMmEDhN7aZjR64/Lx5wcuigZ4iszHvLzYONzc+MJKE1lFbcGHb2lP0+GTJKC6GIIKAg1tQ+WVEGPlGTWnjxElzK0UEes8fPlPbpkM3mZ+GLHpGkLRZfL96h0M0C1piFo0DE/W8/0Aadw6XRMsq6tRvNQfNghHxtzSv+TuHrucbKOzw82cNAAVK9eHStWrMS0qdNSbB5iYPsQ8HDPgF/aLNJsvPX0Cmw4oX3MvtFc26ps/mpoXaU3G2TM6j6Ijr3lkgHrlW6NmiWasb6/mdfcJWOITgUC6R2Bj8q2Q43wxprL7L+gJZKSEtMMBC0q9UCFgjXx9GUMhi3r4rJ5f1H3Z4QFF8blu+cwddMQl40jOhYIJAcChQu/jYm/T8TTZ8/QsUNHxMbGJsewYow0ioDTiS7CQUcqyaGL7COm+tIVPhOjVhZGQXTpvNGUFxWHIDvgUNZFaxRdHAelJKy4UD2aiLov/rOUILpM+mNxoYqWiK7XOi8tScElnQh9FkZBdKXR7S5lp127dV7UbpOXTeKv4Wfx3+EHyTqhuu3zoeYnoWzMWUNP4/zRR8k6vjxYyZIl8evYMXj+/Dnat++AJ+ImJUXOgyODCqLLdvQE0WU7ZqKFQECNgCC6bL8mBNFlO2aiRepGYPCQQahatSrWrVuPCeMnmJ1sZl9fzF84H97e3li7Zi0mTvw9dS9OzM6pCLiS6GJkjJubRMrYSXTJbR0xo08JRZc0b92pSquhi6mK6FIoqEwpqRgdpSfeGJnF/k+ViZHP6MjqGCu6nEF0GcIguTkIM3qnbmBpqbParfOgdpswNuU/h51BxJGHyTr9Om3DUKtVHjbmzCGnceF4yhBdEyaOR9GiRbFs2TLMmD4zWTEQgzkPATc3d0Vno9ouYX8LRZc2xoLoct61J3p6cxFgDxNvSQ8WVGqXaIFaJSWFpFB0aV8Xguh6c78v6XXlhQoVwqTJfyApMQmdO3fBrVvmldg9enZHkyZNEBcXhzat2woVWHq9MDTWZYrooqrS74nprItSHZVHF/vQECaYrESXemyZYEqB0EU9Nop/qMIn9Vkt5dhJwwlKFWb05oguXqmVLIouE0SXQZklg5cyRJdyHtIcBNH1Bu2kVizV1z8DsufJxK6LyAtPEB8nZeBMruIb4InsoT4pNj6ts3SZMhg9eiSbQ/t2nyI6Ojq5li/GcTECY9ovZyMIoksbaEF0ufgCFN2/kQjULvkJ6pT6hK1dEF3al4Agut7Ir0a6X/T48eNQLDwcmzdvxpjRv5pdb3D2YMyZMxvu7u6YN3c+5s2bl+7xEQuUELCF6JI4G5n4kuRKKUF0ac9Dn+6RGeMb6uiIOBd4dPHzkK8nnqBK14ouQXRJp1z26LKG6JIUZhJjN3XCaLEHCQTeOAQGDR6IatWq4fSZM+j7Vd83bv3pecGC6DJ/dgXRlZ6vfrG2lEJAEF2WkRdEl2WMRI20h0DDhg3Rq/eXiE9IQLs27fDokfkohe8HfIcaNWog9nEs2rRpy9RdoqR/BGSiSwrvk7InymZaakWXILqk60FJZknEnyC6VN8VhQeWxAhJxJCuHp/dUPpcDi80YUafDhRdMtFF/502cUz6313ECgUCHAL+/v5YuHghMnh4YOKECVi7dr3AJx0hIIguQXSlo8tZLCWNICCILssnShBdljESNdIeAn5+fliydDFTaU2fMQPLl0qqclOlQIH8mDJ1Cjv8+8Q/sGbNmrS3aDFjmxH4vPc3EnHzBhBdBI7e0F2VOZE3ymf1jDIrGqAVRBfng8VIKj7GUUVkGRNaUgVBdAmiy+bdKo01qNwgFxp/XlBz1mtmXsbu1Zazu3n7uuO9j0MQXjErgnJ4wSODG548isPl04+xd80t3Lr81CwqjbsXROX6uYzqWGtG33dSORZuuXHeVWxdGomCpQNRvXEIQgr6wsvHHQ/uvMSRzXfYWpKSDBlUtSbVtGkTdO/RnR36pEVLxMTYl3WyYI4SKFegOvJnK4rM3gHMr+XRs/u4fPcsDl3cjMgHlzUxyeDhhaK5y6JI7jIIzVIQgb7B8HDzwLNXTxD9+BbORh7GgYubkJAYbxbTgU2nICBTNvxz5C/s/m8dfDP6o1qxhggPfQeBmbLhVfxzPHhyF2ciD2PH2VWafWXyyoz3ijZgc8maOQc8PTIiLv4FHj69h+v3zuN05CFcun1K/wIgLVz69hBdjpyTQjlLolutIYh5dg+TN/2AFu92R1hwETx7+RhbTq3AwUtbUDJPJdQt0xpZfINxJyYSqw//iavR/yngVGddpB/4miWao2COcHh7+iLm2X2ciTyI7Wf+xvO4Z2ZPRWiWAqhW7GMUyF4MPl6Z8ejZPZy8tg9bz6xEzeJNLWZdzB4QiuKhFVAwR3EE+4ewPhIT4/H4xSNcuXvO7PXtrGuk8vjV8PQLwsUF4xG1fRVCajdHjvc+gndwbiS+eonYK+dwc+MSPPrvqNVDkj9KnTp1cPv2HYwaOQrXr1+3uq29FXPVaIS32/dDwtNY7OldH5lCCiDs488Q8HYpuHv/n73zgI6iasPwS0gCSSCQ0HvoHaQXQaQI6k+XXkRQEVRARQFBulSxgIqAoCBNOiIgSBGk9xJAei+/VqWnAAAgAElEQVQBQocQIAn/+e5kNrMlm93shoTk/Y7nSHbv3Ln3mZk7O+98xRfhN67i+u4NOL9yNiLDw+K7G6e28/XzRJXXc6J4hUBkye2DtOk88SgsEpfP3EfwllDsWX8Vj8NtVw3MltcXpapmQsGyAcia2xe+/l6IfBKFuze1+8HO1Zdx8aT9+0HFutnQ6qOiCH8QgUFttqqxF6+UCTUb50T2ID+k8fHE3RuPcP7EPfyz8AJCzto/352afAI1jq/QJfeOUnmroEj2ssgZGKTdS5BKVUC8EHoK+85tRvC57TZHrQtH87b+CB9vX9Qq0QQ+3n44dfUQFmz7SV2zzaq8i+K5KiDyaST2ndmE5btnICIqwqw/y6qLxXKWQ62SjZErsCA8PDzUfWnPqQ3Ydnw1op7aT3VQJl81VCtSHzkDC6j72tU7F9V2u06uR1xCl6x5BbOVRLFcFZA/azFk9s+BNJ4+6l4m99Zjl/dhy7FVuBv27PKKxvc+bwTsnz49+n3eDyVLlcT+/fsxZvRYVQTnWZqvtx+qFmmAYrnKI6t/TqT19lNcL986i4PntmPP6Q14HPEowYeUxT+HGkfh7KXV7xdvT2/cC7+DC9dPYM+ZjThyYbfN3xuu3KONk2r94oeoWOBlHL6wE9M3jEVqD09VcbRy4brqN5A8Rt4Ju44TVw5h7cEFCHtsfy3T+5ZUGJIS48SJE/jg/Q/j5DhmzCiUK18eVy5fRufObyMqOm9ynBuywXNLgEJXdJijfgQtBTBDIvmYJpYeXPTosroAbHl0GR+Dk6/QZZ34Xk+IT4+u53adjNfAXRW6chbwwztDS0Nya9myp1FP8ddvZ7Fh0YVYx+cuoWvr8su4fukhGnctGFNlw7DXXWtDsGD8cbuc9B8YISEheLNjJ6eZpvHyQdsXeypByZ5NWzcCRy/vs2rSrf4wJUDYs5v3ruLndV8i9N6VWJvpQtfa4EXYe3ojur4yGBl9M1m1j4yKQL/Zbaw+z54xH957ZZASyOzZgLkd8Dgi3GlOibVBfIQuV46JLnQ9fRqF6/euIKt/LrOprz7wO+qXaW3mgv3wcRhGLekG+b9uRqFr/raJaFrpbXh7prHCKA95P/09ONZzo0rhemhepSs8DImy9U4u3jyNUyGHUatEI/XRZzO15NlGkwfNbvWH2j18cg8R0Wz1/rkJdph1oevCX3PgmzMImcpWt7mv04um4PyKuPOcVKtaFUOHx8zr4MGD+LT3Zwk2fr1jXeiSvw9+0xuleoyEh5f1cQ2/fhn7Rn+AR7dCE3RMJatkQuuPiyKtn2es+zl//B5+6G29dhUsnRHvjSwTx7kBrJ9/HqtnnY21nS50SYPPm23Gqx2DUKt5bpvt/5pxRoldSd3iI3TJNTq6/e9mSe1tzfPY5f2YsWEsnkSahzjpwpGISdkymPM7fe2IEroK5yhr1uWag/Px94H5Zp8Zha71wUvQuFJnm7jlJY7c1yzHIY1FnGtV/X1ULFjb5rZbj61CzoD8CMpaFKeuHsGkvwdZtTMyjO14P4oIx9xN43H44q4EPSVcvc8bB9f1vffQokVz00fPOjdTydyV0ObFD5W4FZudDz2B7//6PMGYyvnxStlW6iWLrXuTvmN5Kbdi7yyrcbhyjzZ2pgtdZ64dxdR1X6Jz7X7qhY4t+/6v/jgfav/3pL5d5y5voW3btsp5ok3rtnGGL1aoWB6jRo1Smw8f9iU2bdqUYOzZcdIg4JjQZenhpCepf75ydOn3BEXehseWkqsodBlDB2NOUnOvLUOidSc8uih0aTm6GLqYNBa/Zz0KeQM/ZHY1tdu4PLrEk6v3j5XgH+it3nTtWHUFB7eGqrf9eYukR51WeSHJ7cVmjj6ivAFsWSoPWay1b4KK+6PbKO3Ht7MeXfJmXzwQzhy5i52rQ/DwwRPkLpgOdVrlg1carQKWPKDJg5otk7fTfyxbijRp0mDDho0YOWKkU/ilwl+3V4aqt81iV26dw7YTfyPk1nlERkUqjx15O186b1XM+vcbHDy/zap/eTjJEZhPeW6duXoY1+9ewZPIR/D3DUS+zEXwYrHX4ZXaGzfvX8PYP3pChCpbpgtd246vQVCWIsgRkE89QBy/vB8PHt1VAlbRnOI1VhCfz2lr1cUnDb9W28gb+s1HV+Lopb24H34HabzSIot/LpTMXVG9WR80r1OyF7pcOSa60CWAxYtv+Z4ZCEyXDW9U6QrP1Nq1IV5xqw7MQxb/nJCHSvmhP3fLBOw9/a/puBiFLnmYkweD9YcW42TIYfXW+4WgGqhcqI5qLw+23yzvjagoc6+bPJkLo8erI9SDs7yJXntgAc7fOAkfL1/11rp0vqqQvtN4plX92BK69PnIuS3nqIhjdx/eUttkSp9NjSFv5iJq+0XbJ2H7ibVOXUOONtaFroiHD+Dp44dbR3bj4rrFeHznBtLnKYh8jTsjTUAW1d3Bbz/DzWDbXi/6/oyenPJZaOgNtGvbztHhxLudUeiSuYjXyrnlM3H7+AGkTpMW2avWR7YXX1X93z11GHtHdjelWIj3TmPZsFjFQHQeWBKyHkdEPMXuv0Pw3+6buH/7MdL4eao1veprOfAoLAJff2DtKSeetF2Hl8aVs/dxePtNXDx1H/duPUKaNKmRKUdaVHolO/IW9Vd7X/zjcWxfFWJzJEaha8lPJ9GseyGE3YvA/n+v4ep5TfzNEeSHMi9lwcaFF5Kv0OWRGlIl9k7YTRw6vx3nrh/H7bBQ5dES4JsFxXNXRLn8NRSPfWc2Y87m78x46kKXfCjrztnrJ1C3dDPlwSUm944lO6fi8s0z+F+FTuoFy417IRi91NzjRBe69HuNjGdt8ELlfZrBNwA1izdEgazay5kdJ9Zi4fZJVsdVvMkaVuioPg+5fQ7rDy1F6L0QZEqXDS+XbIJcgflNa09sQpfkD6xdqhlOhRxS3ltXbp/Hw0cP4JfWH9ky5kaNYv9TL3PEI238ij4IuX3e3ZeI6s8d93njwIYOHYxq1WOE+nXr1iuP0mdh4sHVpXY/dU8QbrtOrMPRy3tx7+EdpPX2Rd5MhVG1aH08ehyGcX9+nGBDer18B9Qu2VT1/yD8LrYc+wsiNj168lB5MYrnnLyk2X3qH3XOWpor92hjX7rQJfdQOc+qF30V1+5eRvC5bcorW7za82UtChEHJ64e5LDQVf3F6hgyZLDalaPC1aRJE1GgYEEcPXoMPXv0TDD27DhpEKDQZfDGkkNCoStpCV167i49uZe5p5ixwqJ+QSV21UV6dCWNpS3pjcIZoev1t/Lj5TfyqEksm3IKm/80D3PMlMMHvb4tp7wDbl1/hNHv7IR4eNmzoJL+eH/0C6qJs0KXbHNoa6gS1YyRyoXKBqDrl6VVn/8uvYTl02yHDebLlw8/T52i2k39eRrmzzd/sx3X0Xq5ZFP8r3wH1WzvmU2Yt+V7m6Ec+bMWVxn/5IecpYkQdvJKMMKf2A5dMAoe87b8gN2nN9gcli50hT9+AHHrn7t5Ag6c08KAjCbCxYkrB80+E6+jz5qMV5+tPbgQ4nVkyzKlz67C3iwFlbg4Jeb38fHocuWYGIWuaetHKsFQrH3Nj5Q4JfbVH71w7a527XRvMEw9NP7733L8uXu6CZXxuMv9ZdKawSpM0GjGRPLzt07ErlPrzb4XTyzxyJIHmgkr++HKLXOvGv2BVt/IltAl4ULp0vrj7LVjNg+jhCN91HCc8iARMXbUkvcT5HDrQpd0fjN4B4K/6wPxmtMtbWA2VBw2HZ6+6fDg0mnsGmjfO7NQoYL44ccfVCiWOu/XrMXYsQkfum8UumT8+0d/iDsngs2YFWz9IfI0aK0+O/TjAITuiRFA3QXXO21qfD61MvwyeCE8LAJTBwbbfCHg5e2hxC5bIe2Zc/ogXUYvnD1y1/a54ZkKvSZUUFV1b14NV/cDW2YUuiR88fKZB5gx4hAe3jcXbuW+kiWnDy6csP3iwl1s3NFPfDy6RPQsl78m9p/ZHGtIYMtq7ytxWdaEUUs/wK37MRWCdaHrwo2T6noXEzG9T5MJ6t/7z27B7E3fqn+L18p7rwxR/x44rxPkvqGbcV0QUfvb5Z+p0EndRJh/r/4QtW7JOTzmj55KMNNNxIFBLX6GeEGJF/J3K/ooAUM3eXHT8/XRyJ4xr/ooNqGrQLYSKkRb1hVbJmtT74bfqBcIIohIyGZCmDvu88ZxNW3WFO+/39300dfjvsHq1asTYuhmfYpHcP9mPymhUH5v/Lx2GM6HnrTarxwfCTeVe1JCmPYCZqQS+UUEnbRmqBK7LE1EzALZS5q9ANLbuHKPNu5HF7qeRDyCh4enesm3cu9Mq+tPriNpczvshkNIsmbNilmzNc/i3+f+jl9++TXO7erWrYO+/fqqdr0/+RTBweb3hTg7YIPnikByFLrkAKi0+rong8o/ph2W2HJ0ad9R6DJ7o2l8oE0sj66kLHTFMLEQ16K93GLCM7Vk+wxdfK7WRrcP1hmha+BvVZE+wBs3Lj/E2O67bYpY9dsHoV4b7QfslIHBOLnffsUZV4QuWQvGvLtTPURZWt8plSDC28mDtzFlgLmwo7eVt6rydlVMykBLOWhHTX7sD2wxBenSZlRv/sb+0ctmCIej/dlrN6z1byrniggZImjYMl3oku/siVW2tjWGp03fMEZ57iQXi4/Q5cjcYzsmRqFr5OJuKpeMWIOybVCvTAvl6ff5nDamfJAS3lOpYB0lSorXn25GoevIxT349R8trMFo8uAyqMVU9UApXmKT1w4zfZ3BNxADmk9WPzhiewgUL78v3piC1B6p1Xa2hC5HWNQs9j9TeJNxzo5s62gbo9C1a9BbeHDRWrzO3/xd5Gv4pupy9+DOuH/B+iHOuL/KlSujTt3aCAm5inm/z8PDhzEP446Oy9l2RqFLBCwRsixNPNZkvhLSGLp3Ew790N/Z3cTZ3hjCvvinE9i+Mvaw6Dg7s9OgRuNcaPxuQdViVJcd6gWIpRmFrrD7ERj73i6E3bWfk9CVMT2LbeMjdDkyrhwBQfik4TjV9Pet32PPqY2mzXShy3if0MIh56l1QF5gyL1BLMAvM/o31zyxxi37SHmF6mYUusQzbOMR6+TY8vLm/QbD1SYSsiwh87qJWNeuRi/1Z2wvZ0So6FRLCxWOTehyhMdbL/dByTyVE0xkT4j7vIjrjRo3QsmSJXHg4AGsXL7SZk5hR+bvTJsXi76GppXfVpss3vkzth1LeHHN1vjefOlT5U0szx5fL/8EV28nTCiyI7+bdKFLxinhvZNWD3ZLDlIpbrTirxVq+hs3bsSIL+OOFpDk9TN+mw4RyXbs2IGBX1iH8zpzvNk2aROIr9Als9KqMmrikLmwFCMopYp+iadVdIy26MT3eh8xfen5srTKj+YJ4aO/0wUrbcfWSeMNglaSEbq0CarJGyhof8cocGYnijHhvQmbobqj2nbOsnVmLhwmUcjQlVWieIvqhXrTGEEppsuEErrMxmSqxmi76uJzL3TpvCl0Je2V8BmMzlGhS0QjEY/ENi29hD9j8ZLKVTAden1XXrVbM+cs1sy1H07gitAl+bm+6mZblOk8uBSKVwzE1Qth+Pr93TZJNmz4Onr20n6QDx44GNu22w93MnYiiePlrbSY8QHCHYdM3biib1LSX4/XRiF3YAEcu7QfU9d/aXMXutAlQsrwhe+oZPaOmiTA799ME9DEY0weTpKLuUvocvSYGIWuL37vaPJk0MWgsEf3MHh+TM6bRhXfwkvFG+LElQOYslZ7cBQzCl32QgIlp0iJ3BVVGNDA3zuaHpgk4X3HWr1VXzM2foVD53fYPKTGcCdnhC6VVyX6h0LxnOXxVm3tTfSEvz7HhdATbj99dKHr0Y0QbPuspc3+/QuVRvn+2nl8fOY3uPzPErePw9UOjULX0WkjEbLlL5tdlu39DQJKVsKTu7ew5aPGru7Wavsug0tBQhcl7Hxo+2148th+UnFnBuDhEVMmXdbgTl+UVJt//+k+XDhmvS4ZhS7xHJMQ+ufd3Cl0aQ81mueheEsNbz1D/Xvl3ln4x1BYRL+WRZgSgUo3/YF/6c5pKkRMLK2XL4a3+U39+4dVX+Dc9RhvY6PQNfaPHiqc3tJkTMNaTVd5niT3pOTq0q1Z5XdUCJiYrHWy5lmaeA0NbzNTiezOCl3Gtef1ch1UjkEp1mIrJN/V8ygh7/Oujs3Z7d+u018ln5ck80Pmd06wF3P2xiXHbmjr6er8OxkSjMlr7Od/dGaOjt6jjX0ahS5JRi9J6d1lkhbDx8dHeWaJh5Yj9sYbzfFet/fUfbzru11x7lzChOM6Mha2SVgCNoUu2WW00GRZfVD7Wxednn+hS03VJEIlkEeXthN1IFOE0GUUsoxJ53UJjULXU0yekPChGwm7dLB3Zwk4KnQVqxCILkO0JJ0LJhzHrjW2861IBcaRi6PziGy8hrnjrMP1jGN0Reg6vvcWpg627d7dvk9xlK2ZBbeuhWPU27Z/vOg/KmQ8n3zcG4cOHXIYX5VC9dCimlatUX6syY+2+JoITVUL11N5KSQfVlqvtDYTEssbx59W237Lpwtdl2+exbcrHPtRpY9XbgDdGww35RqTPExS2evstaO4dOuMWdhJfOeYWNvFV+iK7zExCl3957QzPUxUK9oAzSu/q/JbDV/4rgmH5LGRfDaWD3tGoUuOuRx7W6ZvL9+NWPSeKbSibqk38Go5LRebpceGsZ8WVbupXChisQldcn7IG/hyQTVUbp30PgGmfGOWY5q8ZghOhjh+HTl6XuhCl+TekhxctszLLz1e/H6l+urimgU4OVcL2UpKZhS69g7virtnzKtt6mMt3L4XctXVigNs/vA1RIQ5Vu3L0bkOmF4VGTJ54+zhu5jYb7+jm1m1k9+QpatnwQsvZUGuQumUx6/cA2zZlP4HcTLYuqqtUeiaPuIIjmxP2AT88Z6sExu6InRJzjsJTwzKUlRV4bVVhEKGsubgAvx9YJ5pVLrQZZnAe3DLaSpHo1Ewl/D2kW1nq20n/T1YVQfWLSZHVyT6z2kbaxilvOgRIUiKpUgYpW5d6w1USe8lHG3Igi6xUuvb9HtkTp/DrtAlwl6VQnVRIncFZA/ICx/v9CYPVMuO+8xs6RZvHGO/7rzPO3H6JEhT8d4VT19JoTBx9RcJso+4OpXjLcddTLwAXSlgEt97tHGMRqFr0Lw3zQrCxDWXuL6X0EXxznK08qL0J8LY7DmzkS6dnwpnlbBWWvIkQKHLvtAlR93Su8r4t1H4s2xrVrAx+QhdMTmo9EvC0muMQpdEgOqhiholhi4mzwXUmVk5KnS98FJWtPtMS7o+Y+RhHN4We66CEYtqQHK7SGLjX4faf+h1ReiSByJ5MLJlutB1+9ojjHzbtjdLkyaN8cGH2g/0fv36Y+8e64TLsbGURKqSUFVMkrbG1/2+QsFaeKPKeyrhfFxm7weqLnQdubgbv/6jeZo5Y1Lau32Nj1QVLKNJDhYJa5HkxxuPLIs1Gb4z+3qWbeMjdLlyTIxCl3gYiKeBWNUi9VVCekns/OWiriYEelJeyYH14+qYMDaj0PX1n71VLhNbZhS0vv7zE1NCZskdJ7llxERYE4HNlhmFMltCl5Shf6v25yYRNK5j56roG1v/utB1dfsa/DclJkTT2F68XmpN00K5Qrb+haNT4w4XiWs+7v7eKHTt+LwdHl61HbYT1PQdBDXW8oxt79MS4aG2XyzEd3zyMkIEKSkYIjkO42O+fp54a2ApyBruiE35IhgnD1ifh0aha/xHe3HplHtFPUfG5u428RG6RFBuUrkLJMTMEbMUCnShS7y8xNtLt8Etp6oQ+4XbJmHHSa1YhOS1GtVOq5I6Ze0ws7yNutAlBSwGz3sr1qHogpall6p4IOfNXFh5golHWGymC2WxeXTlDAxCl9r9lTjjiPWd1SpWUc6R7W21cdd9Pr77d+d2crzluEtRnJkbv3Zn1w73Jfm5er6mheFLknmpvhkfc+UebdyfLnRJDjnxwHanLVg4HxkyZMB///2HXj0/crjrLl06o03bNngSEYE3O7yJGzccywvm8A7YMEkQoNDlDqFLDmWMl5t+YCl0GSsyivATTYYeXfToShKr3zMeRIIKXbtu4NdhMW+KbU0tMYWuuvXqoG9fLeRqxJcjsHGj40mfpRrU6+Xaq23jK3RJBUR5KJAHdElyuu7gAhy/Eoy7YTdUAnHdPnz1S+TLUkwlBDeKIUaeutBlTDjs7Kkkb0gKZS+DkrkrIH/WEsgRkNfMs0xKa0vlodgqPzq7v2fR3lmhy9VjkphCl/E8dJfQpYdGyrGSfEDyoCyiW/jjhybvCfHekIdeMcuHZncdYwpdSU/oemtgSZSonEkd4j3rrmLn3yEIOX8f4Q8iTcVBCpcLwLvDtMIgseVsNApd47rvwrWLCZ8rzV3nZWz9xEfoeqlEIzSqoImbEkr4z+FlqsqbhKHrBUBSe3hidHutWMi64EVYtV8Tq8QSS+iS8UkonG7uELrEk6tvkwmq+vCTyMfYcPgPBJ/frio3SlJw3YwFOfrObu32QinuuM8n9LnmaP9JQegSb8Uer2kvIOIrdLl6jzby0oUuKbYwdME7jqJ0qN1fq1ZC8m7t3rUb/ftb52KMrZOAwEDMmvUbvLy8MG/ePEyb+otD+2Oj54sAhS4KXeqMdTxHl7lHl1UOMKO4FZfQZUgCpu9ffaTn7VLimCnJlTZOw3dq1Ka/9Qvv2VVddCgZPXN0PV8rYgKO1lGhKz6hi3s3XMPvXydc6KKrHl2lSpXCN99qbzbHT5iAFX9qyUMdMWNIQ3wf7tu+2FPlYpIKSF8t+wh3w27a3PWnjb9TVe0SWuiy3LmvdzqUyFMJr5RugcD02dTXK/bOgoTGPC/mrNDl6jFJCKHL0dBF8RQTjzExswc0i2TTxmNnL3RRqmz2a6rla7PM+2Pso2y+6ujw0ifqo/heC3GdT06HLq5diJNztEqiScniE7q45cPX8STM8Zx7jszXFLp45C4m9nU+dNGYs3HjkotY8ctpm7stWyML2veVqrMUuuI6LgPemAypNCfi1o+rB9oUbSQEUUIRxRJa6JJ8j46ELkplxTFLYzy33qn7BYrmfMGl0MXKhepCPMvEpBCHFOSwZRIOLmHhYgkhdLnjPh/XcX9W3+uhi/Z+RyT0WIyhi5bnr6P7dvUebdxPQgldfn5+WLJ0sdrVihUrMf475+5Fn3zyMV597VU8ePAA7dt1QFiY7arcjjJju6RHIMUKXXIo9HBCOzm6tGamNPqmA2iZuyzFenTZE7osPbesPLrsCF0mAes5Erq06cQIgVqVRe2cYehi0lv8nvWIHBW6MuX0Qd/JcSejz10wHXo6kYw+T9H06DGunJr2jC8P4/COuN20e/9YAdny+qlcLq6ELvqnT4+Fi7UqVIsWLcbkSZMdxp83cyH0eE0LEZQ8KZIvxVnTBSxJgCqJUG2Z5FIZ3vo3lZdE3vJL4mBb5g6PrtjGL+XI+zQeD9806a0SD9ubs/D19fNDSIh7vVGc4Tymw3xIAlzLvDWx9eHqMUkIoWvxjsnYdtx2RVCzZPRzO5pewhirmsU3GX2ZfNXQ8SUtof03yz/FlVtnbWIzelVIQn1JrO9uczYZ/YlZ3+LSeu1BIzbr/n431K9fH1euhGDM6DE4d852eKg75+J0Mvr7d7ClZ0N3DkH1JfkW5eVFfJPRl3kxCzr00wSsb3vuxZUztsMNX+0YhDqttCq8Pw8Kxol99kMX3eXRJblxHj9+jNu3rXOCuR2mjQ7rlX4DDV7QcuQZc/XZW2OHtNQ8N5bt+hWbjtp+6WL0nkxooUvGMvaPnrh+97LVsM2S0V/ai2nrY8KEm1bqgheLva62iW8y+mZV3kH1Iq8i7PEDDJ6nebnZMt3bWb7rN7uN272N3XGftxy33Bf7fd4PJUuVxP79+zFm9NhnImS8XXcAiuUsl+jJ6Ie1nqFVCg45BMnp6Ky5eo827i+hhK4iRYrghx+1XGQTJ/6EpUucezmYJ08eTJ32s3rQnzJ5MhYutH8vc5Yh2yc+AUeFLq3CoS76PB/J6IWuEqT06pCWyeDtCF2mbSl0aSep0XvJ+HfiCV1a5aKk5NFFoSvxFzR3j8DTMxVqNc+NHAXS4cj2GxDPqfiao0KXrEsDf6uKdBm9cePyQ4ztvhtPo8wKrKohNOgQhLqt7T/YGMdqFNAWTzyB7X/FXebeXUKXjGP69F+QM1cuHD50BB9//LHDGCWE5Is3Jqskv7cfXMfYP3o5XcVIvGXEa8ayapVxEJIoXLxuxC7dPIPvVthOxJ2QQpfs+/0GX6o8TRdunMKElVq4pz1r3LgxREgQ1/09u/di4MCBiIiICceMa3t3fT+k1a/wS5Mee0//i7lb4k5O7uoxSQihS7wZxKvB0iRJ9aAWU9VDg2XVRn+fAHV+SljsrlPrMX+rVo3QaJK3R9qIiCpmmaPLmCfs+7/64XzoSas+PD080afJBJU0W0zyw0meOHebLnRJv7sGvYUHF60r8+Vv/i7yNXxT7Xr30C64fy726o/VqlbF0OExFb8OHjyIT3vbvrbcORej0BW6518c+tE6pMXTxw8yXw+vNAjdvxmHJnxudwjxuR/UaJQLjbsWVP0u/ukEtq+Me901DqJc7axo+4mWs/GH3vtw/ri1x5mM67PJlRCQNa1qN334YRzZaf0iw92hi5/374fatWurfc78bRZmzpzpzkPoUF9SdVCqD4qNXvohbtyzL/Zn9A3EgDemqPb2vGbb1uiF8vlrqnaWXpbuDl2UfUj1RtmPpeXPWhzvN9CqxK7aNxfrDi0yNTF6eP6+9XsV8mxpUtzizZe0oim2cnTpecKkQuAXczvYTDKfxT8nPms83vTW31jl1qGD5EAjd9znLXfT9b330KJFc9PHz+ocrVHsf2hSSQsxXQf/QrUAACAASURBVLzzZ2w7ttoBAvabSBhhjeINEf74gfIwjC0XpLGXTrX6oFTeypD8n18v7+10flNX79HGsSSU0CW/fz7soeV/7dmjF44etR/ZYIvy0GFDUK1aNVy7fh1vvflWovx+cvkEYQexEni+hS7RsLSiMyavq2jnK726IYUug9eUIqV7GFl8nhChiwnr0ZV0hS6z8Ep6dD3Xy+9rbwahdktNTBL7ZcghHN1jO+wtrok6KnRJPw07F8BLzXOrLqUEvJSCN5qEs/T6rhzS+nrizo3HGNVlB6JsiGHGbVJ5pMLQOdWQ1s8T9qooGrdxp9DVs2cPNGzUUL39b9K4KSIjI+NCZvq+TqnmeK1cO/X33jObMG/L9zaT4eYIyAfP1N64EGr+4K0n85UfiV/9+bFV6GIW/xz48NWRypNKzLK6lXGgrghd2TLmUWKHVGy0ZSKa9G36g6r+JUnp52z+Lk5G8xfMQ8aMGU3tRo4YhQ0bNsS5nbsbmCqAPbqnksDryeFj24+rxyQhhC5Zu6eslcqe5oUdjJ5UIuKJmGe0d+sORJGcZVW+NxEnr9wy91hqXf0DVCyoCQJilkKX5IUTjwmxjYeXYfne36ywyYOTPEDpZmsc7jimRqHr5qGdCP72M/WgpFvawKyoMGw6vHzTI+zSGewcqAlesVnz5s3QrbsmIIuFht5Au7batZyQZhS6ZPz7R/fAnRMHzXZZsNUHyPNqG/XZ4Ylf4Ppua6HAuEF87gdpfFLj82lV4JveE+FhEfj5i2BcOGEtVnl4pEKFutmsquzmK54BH4wtq4bx7+KLWP6rdeiiCGkiqOn2+7dHsXe99UsZdwpdefPmVZ4QukVFRqFjh464HvpsKzkarx25buT6sWciqIini6yx50NP4MdVA6zuJSIOdazZ2/RgsfPkeizYFiNgJ4TQde/hLXyz/DNIDiPdxEO26ytDUDBbCTVGEfJu3Y85ruKFPPCNn+Hj7YvQu1fw3co+ZpV75fter42G3HfEbAldxiIbv6wfhf8umYcuCqeu9QYhX5aY4inGqrPuvIZdvc9bjmXo0MGoVr266eN169Yrj9KENnkh0r/ZRPV7QtIlTFkzDBduWL+8kONboeDL2HVyvd0hiae3iE5pvXxVOzlvv//Lvigv7YzXhuR7nPT3EJWHztIkdULBHKVUBWijuXqPNvaVUEJXnz6fod4r9XD//gO0eKMFoqJi7lWOHudSpUrim2+1qotjxozBurX2j4ej/bJd0iAQl9Alo9QrCyY9jy4KXWZuHjHp3mNOLiuPKwpdCo65GBUdbmj8PHqxVEwNzLS/JQ+YuZebVmVR9WzRt3YsGLqYNBY8Z0fRY9wLyFM0ptKVvRwpcfXtjNDlm84Tn/5UUXl1iTfXjlUhOLD5ugp/kRDEem3yIV0GL7XL2WP/w4FN1+Pavfq+WfdCqPZ6TvXvbSsvY++G6+rhS+xxWARuXY9JPiufuVPoKlOmDMZ9/ZXaV+9PPkVwcLBDY5ZG8nDSvf5Q04/ty7fOYvvx1bh08xyePo1UXi4lc1dC2aAXMWfTd6rakdHkzby8oReTPCfrDi7CldvnlChWOHspvFSiiXpYkPANqX4nIo2EwdhaU10Rul4IqoH2NT9SP3rFG0d+sN57eBtpvXxU+fiaJRqp3DFilqXoY4M1a9ZMZM2mefmILVmyBD9NnOQwW3c1rFjgZciPWTHxelp/aCnuh99Rf0tSfcuwHFePSUIIXVIRSt6eyRvzEyHB8PLwQrkCL6Fq4XpqHiJQjl/Zx+rBOFdgfvR8fYwK3XwQfherD8zDxRsnkdY7HaoWqYcyeaupB1B5ABKzFLpku96Nv0NW/5xKVNpxYi0OnNumHkoypc+G6kXqQ0Kp9PNT+vhr3xysP+T+MAtd6Ip89BCp0/jg1uFduLhmAR7fuQm/PAUR1LQL0gZqeeQOfvsZbgabPxxZnk+FChXEDz/+AA8P7a3k2jVrMXastg4kpBmFLpmL3KDPLpuOO8f2w8M7LbK/+Cqy19DCvu6eOoy9I7ub8oPGNq743g8kkXynL0qqsIjIJ0+x4+8rOLrrJu7dfoS0vl7IUzg9qjTIjoiIKHz9gbnQIAJY74kVkSWXj3YvWB2Cg1tC8eDuE2TKkRbVXs0BSUQf9iACUp1RnRu/ncU/C85bTcOdQle2bNkwc5a5IDtkyFBs3bI1IQ+rVd/ygNK3yffKY1eSqS/f8xvOXT8GyXuljm3YDXXdGM2YL+/klYPYdHQlbj0IRbq0/iiTrzoqF6ojQSx49CQMab39cPzyAfy8TvOqEnO30CX3G1l37jwIVaH5IbfPw983ADWLN0Kh7KXUPrccXYmlu6yTZdcs9j80jvYeEk/k9cGLceN+iOIhwpGsTfraY0voCkyXDZ81GQ/xGBVRRrY/fe0oIiIfIXemgqhVognkRZBx7flh1QDF2N3m6n3ecjxNmzXF++9r+cfEvh73DVavdt27ypF5l8hdEW+93Fc9QMv9T9b0/y7uwb1wud/7QqoiVilcF5GREarIjj0rmusFvFPHPJXCgLkd8DgiPM6hNCz/JmqVbKzayf1489GVOHPtP3VOpE+bEYWyl0blwvWw78y/Kmm90Vy9Rxv7SgihS+4ps2bPQubMmVy+r4wf/y2KlyiBM6dP4733Ys6ZOAGzQZInQKHLdjJ6OXDWebhiDidzdJklhTc/z80Txkd/Z6vqoks5up6tR5dZzjAnha6YRPu6SMaqi0l+ZYweYNtPi6FcrRgRwdGQP1vzc0boku1zFUyHd4aWhl+0oGXZp1w+q2edxfr51g80sfEVr4Ke35RHYHYtxMVotvJwuVPokn398usvyJ07F5YvX4kJ451LGio/DtvV7IXiuSrYPX0kh8nRS3ut2lh61Vg2kIcZEcj08MUxf/RQb8ktzR1Cl70JyAPair2/YdN/jiXsr1KlMnp+1AuZAgLhkdoDa9esw9ixtvOQJeR1JzdF+TEunk2WFlulJVeOSUIIXeLRIMnexYvB0uRB+Ke/B5l5VBjbVCpUR507IlpZmoShHjy3DVKhUcxS6FLXe2B+5b0hQqstk4elqetGKDFRxFDxbJy72blryJHjb6q6uHU1vPwDEFiqss3NTi+agvMrHAtVq1y5MurUrY2QkKuY9/s8PHyY8NX+jELXsV/HoHCHj+Hh5W01l/Drl7Fv9Ad4dCtuTyRX7gclq2VC64+KKi/c2EzCEiU80dLkXvDuiDImIcvy+8iIKEwbfAitPi6KjJnTYN/Ga5g7zjqEx51Cl4yhfft2aNGyBXzS+qi155uvv8GqVc9GSDAykId1yYskYo2lLdoxBduP/232sbzU6FZ/GHIGBMV6LFbvn4ss/rlUERMpXjJ8UVdTW3cLXfLiZvfJf0yCleWg5MXBtPWjbObFEkGuRbXuSpyzZVuPrYJ4CksuQVtCl2wjCelbVH3PrPKvsS+pVDx70zdK4BNbuH2SEm4Swly9zxvHJEJIo8aNULJkSRw4eAArl680pGFJiNGb9ylhg62rf2jyxLK1R0e8s0Ro/KzxBNNDqXj/DVv4rkMTkPOjwQttVNEUW/cmvZPYcmu6co82DjAhhK4XypbF2HHab52+fT/Hvr3Wv/scggTgxRrVMXjwYNW8/+f9sXu37aIMjvbHdkmHgKXQJSNTYX+mfFyOe3SpbZXbV3Qf8nf0Szz53JTSXeXMisnzpW9n+iyW/WvtNHYx2zN00XQ2pRSPLk10sqz+qGNImKqLMeKdLrA57tFlErp0L7GnFLqSzhJofyTy0NDu0+LIUcBPJW9fOP4YIiKs82U5Mh9nhS7pUzy7ajbLgxKVAhCY3Qeenh64d+sxTh+6g81/XsTFk7YTE9sbj3iJvdoxn0qQnD7AGxLSKPYshK6WLVvi3a7v4N7du2jdum28ciGIkFIhfy0EZS2G9D4Z1Y+3Ww+u41TIYew4uc4qbNHIQh5aqhZ+BRLiqIcBiAfOjpNrsebAfKTzCYAIWWKx/Zh3ReiSBzEJESiaoxzyZSmMTOlzqHFEPY1Uczgdchhbjq2GhBk4a02aNsEHH7yPxYuXYNJPz96jS8brmdpLeRGUC6qBgHRZlCeemL2S4vE9Ju4Wup5EPEL/ue1V1c36ZVujYPZSytPu5v3rOHRhB9YfWqLyo9gzSaj8commyJ+tGHy806ljuv/sVqwPXoSiucqhUy0tN5UtoUs+D/DLrPhJJTV/30DFTwQu8dRYunOqytvWqvr7qFSwjqr6KCFEtu77zp47xva60BWy9S+IQJSnQVtkr/Ea0mbKjqhH4bhz+jAurp6HW/8l7QcBo9C1vU9LePqlR/7GneFfuIzyVAu/EYLruzfg/MrZiAx3rNKWq/cDWc+r/S8nilUIQJbcfkjjmxqPHkYi5OwDBG8Jxa61Icpr15YFZEmjwuiLVgiAf6A3Unt6QASuy6fuY8mkk+pe0LJXEVSql12Fs4/svF0vYG3qzt1Cl97xoEGDUKPmixg8eCi2bX22Hl36GPJmLoL6ZVqpdVW8sHSzJXTJdxLWV6t4Q5QNqo7M6XOqtUu8KW/dv47VB+ep8OQKBWuhTXWtyqHxxYe7hS55MSMvaIrlKo/apZoiV0B+9bRz7c5F7Dr5D7af+DtOgUa8hasVrY8cGYPg6ZEaIXcuqtxQkjdQT1ofm9Al85PQxJdLNFH5IX3TpFOil+TtOnp5L5bsmKbW8M+b/qiqAieUyG487125z7uy/rl7WwkLrF60AYrlKqeE0zRevngU8RBXbp1H8PntKmzREc+smsX/h3qlWyD8cRgWbJ+EkyGOe8TLnLL651Lnh4jCGf0ywyu1t/I+Fu/yvac3IfiCrBe2f9vG9x5tZJkQQpdeMfH8+fN4952ucV4j9o6tiKLTpk1Frty5sH/fPvTp08/dpwL7SyQCJqHLKEo5K3Qp4ckgOD1DoUtLkh8jnOlqGnN0RZ9QyTF0MT5Cl6WXmbOhixS6EmmFSka7zZDJG1JqXmzppJPYusK6wlIymq7NqaT398fMmTPg6+uLYUOHYfPmLcl9ys9sfgO+6I9atWohsXJ0PbOJckcJSsAodB2dGlPhLUF3mgCdWwpd4aGJV5E0AaaXZLr09PTEbzN/Q6ZMgWjXtj1u3Ii7mm+SGTwHQgIk8FwS8PPzw6zZMyH/d1dIasOGr6NnLy3Fxfvd38fJk9aFWJ5LWCl80ElJ6JJDoXl+2fYo077XDpgp+TyFrpgzmB5dwsLg0RWdnNuUH8syN5f+tx6GaSdHV+xCV4xnWWw5uujRlcJX2ejpSx6WHt+UU385k1crudHr1KkT2ndop6rjSJUcmusEChYsgB8n/oj79+6jffsOePTIPNea63tgDymFAIWulHKk3TNPPQ/Szp078cWAge7plL2QAAmQgB0C8htSfkteungJ77zzrlPFjWLr1svbG7Nnz1TFff755x+MGjmaxyAZEIif0KWkpmhPKl14ct2jy0zoUh5mxvBG/d8UuvTTLtWcZetSZDJ6hz26KHQlgyUq+UyhQcf8qNtKq3409r1dCL2c8HlqkiI9Hx8f/PrrNARmyqQejOQBiRZ/AvkLFMDo0SMREBCA0aPGYP16VgyKP01uSaGL54CjBOrWrYNPP/tUCes9PuiBCxcvOrop25EACZBAvAhIRMBvs36Df/r0GDxoCLZtMy8+FK9OozeqWrUKChcuoooE/P77vHhVcXRl/9zW/QQodDEZvTqrTN5gxgTxBhktJgTSMjeWdUx3QiejT3ChSyWb1ysxalUX6dHl/sUnOfcYmC0tvNKmVlP08kyFAmUz4tWO+eHpmUqVlv/+E+uEw8mZh+XcJIlo6TJlcOHCBWzYsCElTd2tc23R8g28/fbb6q3TlMlTVH4uGgm4QoBClyv0Us62el6ue/fvY+jgoTh48GDKmTxnSgIkkGgEgoKCULNmTdy7fw9LlyxNtHFwx88HgQQXulRy+mjvLx1JLMno5WtT6CI9uqxOIEM6f/UdPbrMQhF1XvELXdTlOiVoRQtdMeIfha7nYzlLOqPsNqosCpTKYDWgJ4+iMLn/AUh1LRoJuErg9ddfQ916dfHzz9Nw9L//XO2O25MAKHTxJHCEwGd9PkUqeOCXX6YhNJR5uRxhxjYkQAIkQALPlkBCCV1KiIkOb9SFLu0zLdGWraqLFLpijn1MDjLDZzF1Kyl02a66aOFtFkfooslLTYStaM7uErpi+o7xlnvKqovPdnVLxL1ZCl1hDyJwNvg2/p57DpdP26/clojD5q5JgARSOAEKXSn8BOD0SYAESIAESCCZELAndJmEJ5UBXsQpW0ngNRCWVRfjErrM+zaED+rJ6K08uqJ7ZDJ605lHjy4rjy4KXclkXeI0SIAESIAESIAESIAESIAESIAESCBeBCh0MUeXOnGSR44uYwVELbeWPjfLvGHyt7MeXYqRnrvLlLfLdtVFS48u3VNMjefpU0ye8FW8LlhuRAIkQAIkQAIkQAIkQAIkQAIkQAIkEDsBo9AVk0tLXLe0bVTOLAc8utS2plDF6G3thC6a923bo0vGELN/tYXyKtO3Ne3FEAppGnf0P9TY1fcxYzLRiP7QFEapdWz42lj10ZyhZeilDswYcmjoytSvVZ6tmIGZ7YChi8Zk8ILGLCG8iEuWSfGjG0ULSZqwpDEVgcqdQpeer98yKb72ubav2IQu/XMKXVyWSYAESIAESIAESIAESIAESIAESMD9BEToMglHpqTxjgtdJm0okYWumDmYC1oUugxVFKNVH+1/Fp8/Dx5d5mIVhS73LwfskQRIgARIgARIgARIgARIgARIgASebwIUuhi6GK1/6e5Pelp2U5SehTBmKTDFtNcvBUvvqegOzBO+a2qb6erRhTb1kcEjynblw6Tl0RUzXzUpenQ932siR08CJEACJEACJEACJEACJEACJPAcE3BW6JKpxoQy6qF90ZUUEzF00TQuixBFenQ9bx5deqVEJ0IXY6ZoP0eX0YvNlRxdlqGLFLqe4xWQQycBEiABEiABEiABEiABEiABEkhWBJKK0KULVSonV0yiLascXVo76+qPdoUuYwVHvW+9I5NwF51lizm6Etmjy81CV4ynmCFvljGPl5wI4kEWfVnrSeOVEBaT5Evz0opORh+70GUhtKm+DTnCDJ5qzNGVrNZRToYESIAESIAESIAESIAESIAESCCJEHBc6DJPGK8lhnefR5dR6FL/VpnorZPRU+iKOXFSzVm2zixuMEauiWlkmYvLpN0k1RxdFLqSyNLAYZAACZAACZAACZAACZAACZAACZDA80eAQhdzdKmzNskko09qQpcpdVk8PLosqz7So+v5WyETacQ9xr2APEX9rfZ+9shdTOy736FRuaMPWzsa8EV/1KpVC4sWLcbkSZMdGoux0fAvh6FKlSqYPXsOZkyf4fT23IAESIAESIAESIAESIAESIAE7BGIVeiSjSw8qmI8uMSTy45Hl76tKWeXoa36TvcEi/lc+9jYjh5dlsfNFNIZ/QU9ukwhiDoq6xxdLocuUujiCpoIBNwhUrmjD8uplylTBuO+/gphYWHo2LET7t296zSdoPz5MXnyT4iIiMDbXd5BSEiI031wAxIgARIgARIgARIgARIgARKIjQCFLnp0qXODHl3aJWKVo4tCF1fPRCDg4aEp/bp1HVEGBUpmgDMeXe7ow3Lq4yd8h+LFi2PBggX4ecrUeJMZNnwYqlatgrVr1mLs2K/i3Q83JAESIAESIAESIAESIAESIAFLAhS6KHRR6LKXjJ5CF1fNJECg26iyKFDKOaHLctiu9vFCuXIYO3a0EoM7dngT165dizeZ8hUqYPTokYiKikLnzm/jyuXL8e6LG5IACZAACZAACZAACZAACZCAkQCFLgpdFLoodHFVTOIEXBWpZHqu9vHFwAF46aWXEHzoEHp/3NslYh4eHpg7dzYCAgOxdMlSTJz4k0v9cWMSIAESIAESIAESIAESIAES0AlQ6KLQRaGLQhdXxCROwFWRylWhK0OGDJjz+xx4eXpiwvjxWL58pcvEunXvhubNm+He/fto07I1nkREuNwnOyABEiABEiABEiABEiABEiABCl0Uuih0UejiSuhmAukDvFGyWiYUeSEQOQv4Qf6WIhz3bz3BhRP3sH/TNQRvCXV4r4ktdIkgJcKUWKuWrXH79m2Hxx5bw1KlSuKbb79RXw8aOAjbt+9wuU92QAIkQAIkQAIkQAIkQAIkQAIUuih0Ueii0MWV0I0EJAn8qCU1kEoSytux43tvYcaIw3jyOCrOvSe20DVmzCiUK19eVUh8s2OnOMfrSANvb2/8sWwpUqdOjT///BPfT/jBkc3YhgRIgARIgARIgARIgARIgATsEqDQRaGLQheFLi6TbiTgkToVRi+tiTs3HuPQtus499893L4RLqVNkTFzWhSvHIhytbKqPe7beA1zxx2Nc++JKXRJPi0RpNKkSYMNGzZi5IiRcY7X0QaTJk1EgYIFce7cObz7TldHN2M7EiABEiABEiABEiABEiABEoiVAIUuCl0Uuih0cYl0IwHx5HqhVhYc2HgdUVHRZTst+m/ZswgqvZIdT58Co9/ZiVvXwu2OIDGFrnz58uHnqVPU+Kb+PA3z5893G63en36CBg0aICoyCo0bN8Hjx4/d1jc7IgESIAESIAESIAESIAESSJkEKHRR6KLQRaErZa5+iTjrHPnT4eMJ5dUI5n17DHvWX02yQle16tUxdOhgNb6vxo7DmjVr3EauS5fOaNO2jervnbffxfnz593WNzsiARIgARIgARIgARIgARJImQQodFHootBFoStlrn7PeNbi6SUJ6cW806bGsN+rq3+vnH4GGxZdSLJCV8OGr6Nnr15qfIMHDsa27dvdRq5FyzfQtasWstjn0z7Yf+CA2/pmRyRAAiRAAiRAAiRAAiRAAimTAIUuCl0Uuih0pczVL4FnnbeoPyrXz4Z8xfwRkDWtErds2Zq557BmzrkkK3S98UZzvNftPTW+Tz7ujUOHDrmNnIQtSviiGCsvug0rOyIBEiABEiABEiABEiCBFE2AQheFLgpdFLpS9CLo7smL11aTroVQvWFOh7peN+88Vs86m2SFriZNGuODDz9Q4+vXrz/27tnj0LwcadSoUSP06Pmhatr/8/7Yvdt9fTuyf7YhARIgARIgARIgARIgARJIfgQodFHootBFoSv5rWyJOKOXmuZCw7cLqhGc++8O/ll8CReO3cWDu08QFaklp0/t6YFRS2qof6+bfwGrZ55JskJX3Xp10LdvXzW+EV+OwMaN/7qNbvsO7dCpUyfVX88evXD0aNwVKN22c3ZEAiRAAiRAAiRAAiRAAiSQLAlQ6KLQRaGLQleyXNwSa1L9f62CjJnT4Pyxu5jY94BJ3DKOJ10GLwyaVe25ELpKlSqFb779Wo11/IQJWPHnCreh7da9G5o3b6b6a9OmLW7euOm2vtkRCZAACZAACZAACZAACZBAyiRAoYtCF4UuCl0pc/VLgFn7ZfDC4GgBa9nPp7B52SWbeylcLgDvDiutvls//zxWzbQfutj1y9IoVDYA54/fww+998Vr5PHtwz99eixcvFDtc9GixZg8aXK89m9ro+FfDkOVKlVw9949tGjewm39siMSIAESIAESIAESIAESIIGUS4BCF4UuCl0UulLuChjHzD09U6FW89zIUSAdjmy/gb0brtndIkMmbwyYXlW1WfnrGWxYbLuaYttPi6Fcrayq3b9LL2H5tFN2++3YrwRKv5gZd248xoi34lf10JU+pk//BTlz5cLhQ0fw8ccfu+18WbBwPjJkyIDdu3ajf/8BbuuXHZEACZAACZAACZAACZAACaRcAhS6KHRR6KLQlXJXwDhm/tqbQajdMq+p1S9DDuHontjD6yT31tC51VSFRcnL9WOfA4iK0vJy6SaCVYe+JSBJ68V2rQnBggnH7Y6kTqu8eLVjkGoz4eO9uHjyvtPHzJU+evbsgYaNGuLx48do0rgpIiMjnd6/5QbZs2fHbzNnqI+nTJ6MhQsXu9wnOyABEiABEiABEiABEiABEiABCl0UutRV8BTRD+NPYx7KDf/EU9Mf2vf63zGfx1xMNr+zFJO0Tkwb6ft/Gi0KmPowjctynzHjiOnG+NlTmZRpXtKfcaxmf1Po4koYC4Ee415AnqL+pm83LrmIFb+ctsurRY/CqFw/h2pz8sAtbF52GbeuP4KENZZ5MQsq18+GVKlS4VFYBNL6eeL43luYOjjYbp+Zcvjg058qInXqVLh1LRzLpp7CjSvhpkvoxqUwRESYC2qWHbrSR5kyZTDu669Ul70/+RTBwfbH68gJ9b//vY5eH/VSTTu9+RauXLniyGZsQwIkQAIkQAIkQAIkQAIkQAJ2CVDootClCVcUujQOoppFi2KKiUn/k7/077RrShPOYgQ0o8Cn9RPdTm9jENsmT9BEA1rSJmAMMZSRLp54Atv/si/I+KRLjW4jyyJH/nSxTm71rLPIktMX5etkxd0bj/DlWzviBFG3VR406JjfZrtx3Xfh2sWHCdrHL7/+gty5c2H58pWYMH58nPuKq8HX34xD6dKl3R4OGdd++T0JkAAJkAAJkAAJkAAJkEDyJkChi0KXJtpQ6IoRryh0Je9Vz4nZSfXEdp8WR44Cfji84wYWjj8Wp+eUdO+VxgMvNc2NsjWyIHMuH3h6eUC8FW9de4TVc85i3z/XUKFONrT+uKgazdj3diH0ctxClWzzYqOcyJbXD17eHqaZOCp0yQbx7aNly5Z4t+s7uHf3Llq3bouIiAgnSJo3zZolC2bOnqk820aOGIkNGzbGuy9uSAIkQAIkQAIkQAIkQAIkQAJGAhS6KHRR6GLoIldFEoiTQHp/f8ycOQO+vr4YNnQYNm/eEuc2sTXo+GYHdOzYUYUrdun8tltyfsV7MNyQBEiABEiABEiAK20yXwAAIABJREFUBEiABEggWRGg0EWhi0IXha5ktahxMglHoFOnTmjfoR2OHj2Knj20/FrOmghl4s2VPl06jB37FdauWetsF2xPAiRAAiRAAiRAAiRAAiRAArESoNBFoYtCF4UuLpEk4BABHx8f/PrrNARmyoQvBgzEzp07HdrO2Khdu7Z4q/NbOHHiBHp82BNRUVFO98ENSIAESIAESIAESIAESIAESCA2AhS6KHRR6KLQxRWSBBwm8ELZsihdpgwuXLiADRs2OLyd3rBJk8bw98+AzVu24Mxp+xUsne6cG5AACZAACZAACZAACZAACaR4AhS6KHRR6KLQleIXQgIgARIgARIgARIgARIgARIgARJIHgQodFHootBFoSt5rGacBQmQAAmQAAmQAAmQAAmQAAmQQIonQKGLQheFLgpdKX4hJAASIAESIAESIAESIAESIAESIIHkQYBCF4UuCl0UupLHasZZkAAJkAAJkAAJkAAJkAAJkAAJpHgCFLoodFHootCV4hdCAiABEiABEiABEiABEiABEiABEkgeBCh0Ueii0EWhK3msZpwFCZAACZAACZAACZAACZAACZBAiidAoYtCF4UuCl0pfiEkABIgARIgARIgARIgARIgARIggeRBgEIXhS4KXRS6ksdqxlmQAAmQAAmQAAmQAAmQAAmQAAmkeAIUuih0Ueii0JXiF0ICIAESIAESIAESIAESIAESIAESSB4EKHRR6KLQRaEreaxmnAUJkAAJkAAJkAAJkAAJkAAJkECKJ0Chi0IXhS4KXSl+ISQAEiABEiABEiABEiABEiABEiCB5EGAQheFLgpdFLqSx2rGWZAACZAACZAACZAACZAACZAACaR4AhS6KHRR6KLQleIXQgIgARIgARIgARIgARIgARIgARJIHgQodFHootBFoSt5rGacBQmQAAmQAAmQAAmQAAmQAAmQQIonQKGLQheFLgpdKX4hJAASIAESIAESIAESIAESIAESIIHkQYBCF4UuCl0UupLHasZZkAAJkAAJkAAJkAAJkAAJkAAJpHgCFLoodFHootCV4hdCAiABEiABEiABEiABEiABEiABEkgeBCh0Ueii0EWhK3msZpwFCZAACZAACZAACZAACZAACZBAiidAoYtCF4UuCl0pfiEkABIgARIgARIgARIgARIgARIggeRBgEIXhS4KXRS6ksdqxlmQAAmQAAmQAAmQAAmQAAmQAAmkeAIUuih0Ueii0JXiF0ICIAESIAESIAESIAESIAESIAESSB4EKHRR6KLQRaEreaxmnAUJkAAJkAAJkAAJkAAJkAAJkECKJ0Chi0IXhS4KXSl+ISQAEiABEiABEiABEiABEiABEiCB5EGAQheFLgpdFLqSx2rGWZAACZAACZAACZAACZAACZAACaR4AhS6KHRR6KLQleIXQgIgARIgARIgARIgARIgARIgARJIHgQodFHootBFoSt5rGacBQmQAAmQAAmQAAmQAAmQAAmQQIonQKGLQheFLgpdKX4hJAASIAESIAESIAESIAESIAESIIHkQYBCF4UuCl0UupLHasZZkAAJkAAJkAAJkAAJkAAJkAAJpHgCFLoodFHootCV4hdCAiABEiABEiABEiABEiABEiABEkgeBCh0Ueii0EWhK3msZpwFCZAACZAACZAACZAACZAACZBAiidAoYtCF4UuCl0pfiEkABIgARIgARIgARIgARIgARIggeRBgEIXhS4KXRS6ksdqxlmQAAmQAAmQAAmQAAmQAAmQAAmkeAIUuih0Ueii0JXiF0ICIAESIAESIAESIAESIAESIAESSB4EKHRR6KLQRaEreaxmnAUJkAAJkAAJkAAJkAAJkAAJkECKJ0Chi0IXhS4KXSl+ISQAEiABEiABEiABEiABEiABEiCB5EGAQheFLgpdFLqSx2rGWZAACZAACZAACZAACZAACZAACaR4AhS6KHRR6KLQleIXQgIgARIgARIgARIgARIgARIgARJIHgQodFHootBFoSt5rGacBQmQAAmQAAmQAAmQAAmQAAmQQIonQKGLQheFLgpdKX4hJAASIAESIAESIAESIAESIAESIIHkQYBCF4UuCl0UupLHasZZkAAJkAAJkAAJkAAJkAAJkAAJpHgCFLoodFHootCV4hdCAiABEiABEiABEiABEiABEiABEkgeBCh0Ueii0EWhK3msZpwFCZAACZAACZAACZAACZAACZBAiidAoYtCF4UuCl0pfiEkABIgARIgARIgARIgARIgARIggeRBgEIXhS4KXRS6ksdqxlmQAAmQAAmQAAmQAAmQAAmQAAmkeAIUuih0Ueii0JXiF0ICIAESIAESIAESIAESIAESIAESSB4EKHRR6KLQRaEreaxmnAUJkAAJkAAJkAAJkAAJkAAJkECKJ0Chi0IXhS4KXSl+ISQAEiABEiABEiABEiABEiABEiCB5EGAQheFLgpdFLqSx2rGWZAACZAACZAACZAACZAACZAACaR4AhS6KHRR6KLQleIXQgIgARIgARIgARIgARIgARIgARJIHgQodFHootBFoSt5rGacBQmQAAmQAAmQAAmQAAmQAAmQQIonQKGLQheFLgpdVgthQIY0eK9tUdSolB3Zs/jAy9NDtblx6xHqtF+Z4hdOAiABdxCoXaoZXi/XXnU1cfVAnLn2X7y69fBIjVRIhcioiHhtz42SJ4HaLfLgtU751eR+6nsAZ47cSZ4T5ayeSwKpUqXCiLaz4ZXaGyevHMTktcMSbR6yhtYs1hDl89dEZv8c8PZMYxrLV3/0wrW7lxJtbNwxCZAACZBA/AhQ6KLQRaGLQpfZ6pE+nRd+n1AbubP7Wa0qFLrit9ByKxKwReDVF9qibuk31FdT13+JY5f2OwUqrbcfqhZ+BS8Wew2T/x6C0HtXnNqejZM3gQYd86NuqzxqktOGBOPYnlvJe8Kc3XNFQMSlMe3nqTGfDz2B7//6PNHG36nWZyiVt4rN/VPoSrTDwh2TAAmQgEsEKHRR6KLQRaHLbBF5t01RfPhmCe3haP4xrPr3Eh6GR6q/IyOjcPlqmEuLDjcmARLQCDQo2wb1yrRQ//553XAcv3zAKTQVC9ZG6+ofqG3GLO1Bocspesm/cf32QajXJq+a6NRBwTi+j0JX8j/qz88MPVJ5YEyH+WrA564fww+rBiTK4IOyFsUHDUaofR+5uBvrDy3Bg/C7prHcenCd3rKJcmS4UxIgARJwjQCFLgpd6gx6iqfamfQ0+v/m/8RT0+fa9/rfMZ/HnIg2v7MUkyz3Fb3/p1EW/ZvGZbnPmHYxQzZ+9lQmZZqXjMk4VrO/KXSZrSJTx9REpdKZcezUHbTqsd61FYZbkwAJxEogXdqMyJYhl1qnLoSexJPIx07RotDlFK4U1zhdRm9ky+Or7n0Xjt/Dk8dRKY4BJ5y0CeTJXBjeqb1x7+HtRAsPrF+2FV4p00pdJ0Pmv4Wwxw+SNjSOjgRIgARIwCECFLoodFHootBltlgsm/IK8uVOh9WbLqHPqJ0OLSRsRAIk8OwJUOh69sy5RxIggeRF4I2q3VC1cD3cD7+DoQveTl6T42xIgARIIAUToNBFoYtCF4UusyVw1fQGyJHVFyv+uYD+X+1Owcsjp04CSZsAha6kfXw4OhIggaRPoPWLH6JigZdxJ+wmvlzUNekPmCMkARIgARJwiACFLgpdFLpSuNC1+48m8PLSqirGZXElow/KlQ4dmhVGlRcyI1tmH0RGPsWVa2HYtPsqZi4+idBb4XZ3Mbx3BTSumxcbtl1Gr+E71Lia1w9C0wb5kDenH55GASGhYdh54Domzz6KO/efxDVkp77P6p8LnzUZr7b5+s9PcPfhLbxSpgVK5amM9D4BuBd+ByeuHMC64MW4cS8kzr5zBeZHtSINUDB7SWTwzYSoqEjcvH9N5QHZ9N9yPHh0L9Y+AtJlRf9mE9X33674FJdvnkX2jPlQu1RTFMhazDSeq7cvYNvxv3H4gm3vO7806VGjeEMUy1UOmdNnh7dnWjx+8hA3719XeVGCL+xUFa9M4cs2RpTFPydqFm+EwjlKafN4GoXb96/j6OW92HjkTxV2Ept92uhbZMuYB6v2z8W64EUonKMMahVvjNyZCiCNlw9u3L+KXSfXYdN/K1S/z4NJEuXyQTVROl9V5A4sAN+0/oiMfILr967g6KV92HF8NW6H3bQ5lWaV30H1oq9afedIMvpaJRujYfk3HUYk5+jopR+a2kuVs/7NJyGjbyacu34UP6z6wm5fzSu/i2pFG6jjMnxhV9wPj/04OzyoBGxYKHtpVChYCwWyFEd6n4xIlcoDtx6E4tTVw9h5Yg0u3Dhlc+/SVhJRF8leFjkDg7RtkUrN90LoKew7txnB57bbHbm7rldX8TTtVgjV/5fTqhtHk9H3/rECsuX1w+qZZ7Bu/gUUeiEAtZrmRu5C6ZDGNzVuhIRj95oQbPrjEqKiUw24OmbL7ZPSOixjG9D8J2T0y4Jlu39V61S6tBnwUolGKJmnEgL8suDRkzDcuHcVhy7swobDS23icMc67OPtq9bhkrkrITB9Vnh6eOHew1vq/N58dCUu3TyT5Ndh4TCk1a9W43Q0GX2ZvNXQsVZvlTPr89lt1T3k5ZJNUDpfNQT6ZcHjyEc4HXIEqw7Mhdwbbdk7db9A0ZwvOHza2ktG78ox0QfgjnND76tuvTro+u67iIx6ip8m/oRNmzY5PE82JAESIIHkRoBCF4UudU4zR5d2aas8XtH5vBQTU+oy+Uv/ztBWPo1OEmb8v9ZPdDu9jSFP2OQJXyWZtcRdQlejenkxuGc5eHnaFs0ehEXg4+HbsePA9Vjnrgtd+w7fwPuDtmL84KqoXCaLzfYdPtmI4KO2xYT4wjU+YM3dMgGvlm0DeYC1tCcRj/DLP6NxMiTY5q5EUGhU4S3UKPY65N+2LOzRPdWHiE22zPjgPHnNUKT19kH7mp/A08PTqvmxy/sxdd2XVp+LMPbeK4PUg5k9GzC3Ax5H2BYhRThoWbU7UtvYr/T56MlDTN8wNlYWutC15dhfuH73CppU7GyTya5T6zF/qybsJWUT0e+t2n0h50psJg9hQxd0wcPH1oUbElPokvEaKz2KCBabYCvHe1CLn+GbJj3+u7QHv6wflWQPizzstn2xpxIe7Nm0dSNw9PI+syaSEHt0+9+VKGbP5BqbsWFsrHnU3HG9ugOwu4Surcsv4/qlh2jctSBsLWG71oZgwfjj7hiyVR9JaR2WwelC19rgRdh7eiO6vjJYicWWJtd9v9ltEmQdFgH23bpfQPL62bKnT6Pw1745+CcWoS2prMPuErqEgQhQb778GbJlyG2FRO5Lktw+5PZ5q+/cJXS5ekxkYO64R+sTTO/vj9/nzYWXp/YbITw8HK1atlb/p5EACZBASiRAoYtClzrvKXRpl39KFLosF774hC6WLZEJ08fWhIdHKtwPe4JfF5zA7uDr8ErtgZqVs6Ndk4JKAAt7GIHm3dcpLy9bpgtdpy/cU15bbRoWwNlL97F28yW1jU9aT5QtHoiXq+ZA5z6bElToCn8ShjSePthxYg0OnNuGiKjHKJy9LOqUagbP1F4If/wAY5f1sunN1LTy23ix6GtqiuJFsv3437h+9zLSevkiX5YiqFm8Ibw90yiPrm+W98ZdG94/xgfn5Xtm4NUX2imBKPj8DpwPPQ4R2wLTZVNeReJNYEvo+qTh18gRkE955Mgb/6OX9qo8JGm80iKLfy6UzF0RxXJVwKB5nWwKXfmyFMMHDYYpEUB4bDj0B05dO4TUqTxRPFcF1Cj+uhLAHkWEY9yyj3H7gbWIqT9ghdw+p/Z55tp/2HFiHR4+uY/cgQVRt1RzeHmmUay+/6sfzoeeTLL34oy+gfio4deQhzWxIxf3YP+ZTbhx/5oSILNmzI1KBV9G3sxFMGR+Z5see3IMdVElKEtRdK8/TPXliEeXJZj4hC5mTp8DfZt+r7pac3A+/j6gVT2ztBK5K6Jz7X7q45n/fo2D57YlyeMi3nXdXhmK/FmLqfFduXUO2078jZBb5xEZFYlM6bIqb63Seati1r/f4OB583nI9mPaz1NhS4fOb8e568dxOyxU3RMDfLOgeO6KKJe/hup735nNmLP5O5sc3HG9ugNwKg85v7Segor7o9uosurfznp0hZx9gCy5fXDmyF3sXB2Chw+eIHfBdKjTKh+80mii4A+99+H88di9UuM7H6PQldjrsMxBF7q2HV+DoCxF1Jp66uoRHL+8Hw8e3VUvEormLIc8mQri8zltrabt6josXkOfNh4Pf58A9Rtl+4m1CD6/DY8jHiFvpkKoU7q56WXGb/+Os+l9mJTWYbnmdBPxTjwxnfXoku3Fgy1T+mz498ifOHv9ONL7ZEClgrVVf2Iiaou4HZfFJ3TRHcdExuXquWGcW8GCBfDTpJ/MpvvWW51x+dLluBDwexIgARJIlgQodFHoUic2hS7t+qbQBcRH6Jr1bS2ULhqIJxFR6NR7Iw6fMA9xqlcjJ77uX0Uxtpf7Sxe6wh9FwtMzFeb8cRrf/XJIueEbTUIkpU1I6EO3LszGByzpWN6Qrz+02GwfRgFgy9GVWLrrF7PvC2Qtge4NNPFi6/FVWLpjmlVYYGb/HOj1+hglfG0+ugJ/7LIO5TA+OIuoJg81P6/70uoNtQgnBbOVsvKoMs5l7cGFWH3gd5usMqXPDimfLmGVltbjtVHIm7mwChP5cdUAq9AvEdnefOlTtdneM5swd7MW9mk0/QFLPjt0fgd+2zjOjIc8lLz3ymC1iYRBiqiXVO3tugNQLGc5NbzFOyZDHnxtmYT7iQBmy6PL2F7EmfcbaJ54z0rokn3JPmXfofeuYMzSHjbn0OGlT1A2X3VVgWzYgrfVOZAU7eWSTfG/8h1M5+C8Ld/bDIHNn7W4utOduXbUbBpy/ZTLXxP7z2yONXS2ZbX3UblQHXV/GLX0A9y6f80KhavXa0KwDSrpj/dHayFazgpd6nrdGoqZo48YizGjUNkAdP1SExL+XXoJy6fZDgd1ZT5JaR2WeehCl6zDIsrP3TwBB85ttZqihGWfuHLQ7HN3rMOvl++A2iWbqn7lXiH3DKPJGv6R3E+8/VSo7qgl3c2qTEvbpLoOv1dvEArlKBMvocvWfUk8NMXjrmC2kup6Hjq/c5xVFOMjdLnjmLjj3DCeB97e3pjx23RkyqR5G165cgVdOr+NyEjre7sr1ye3JQESIIHnhQCFLgpd6lyl0KVdslZClwZHfe506KK+bRIPXbRcrJwVuvLnToelU15R3Sz9+xwGf7fX5vr361cvoXzJTHj8JAq12qxQ3l2Wpgtd8vmeQ6F4u+8ms4eshF5YjT88JffJiMXdbT7gf9BgBIKyFlUeOyICGHNLiReMiGGSi+urP3oiIhaBoHHFzqhZ/H8qD9DQBe9YTc344CxfSvhibKGStrjID/1u9Yeqr6ZvGIPDF3Y5hc/IYufJ9ViwzXZY4fsNhkNEhIjIJxg8v7OVZ5j+gCXX0OilHygultav6Q+Qh7WTIYcwec0Qp8b5rBpnz5gXvRt9o3YnD7niHeSqJZbQValQHbSq9r4avoT3WIbPSijg4JbT4JXaG9uOrcbinT+7OtUE2V4eage2mKLCucSbcOwfvWINLXRlADkCgvBJw3Gqi9+3fo89pza6/Xp1ZXyxbeuK0CXR92Pe3YmbV63DnvpOqYRMOXxw8uBtTBlgLuy4Yx5JaR2W+ehCl/zb3kuDhFiHpU8JIZYckSJMj/2jp5WIJW0alG2DemVaqCFMWTvMSnBLquuwK0LX7tMbMG/LD1bYyxd4SYUyi/20ehBOXzti97SMj9DljmPi6j3a1qTy5MmDli1bIDIqCvPnL8CVy/TmcseaxD5IgASeTwKxCl3Rnu9alIX2h/n/jZ+rL1XuVtVG39b0t6Gt1pGpP2P6GrN9SSfyn2H/esdqF6acERbjM+zbbMwe0fvUB2cxDvWn4TPr+ZofX0smMWOLScdjltZCn7Nx/wamFh/bTGEjfI2Was6ydWZuLraSSet5o0wbGnJOGTuj0KXRoNDlvEdXswZBGNJL83LpNWw7Nmy/YnM1fLN5IfR+R/ME6NJnkxKyLM0odPUavh0bttnuK6GWW+MDVmw/omXfdUu9gVfLaSEq45Z9hKt3Lqp/S/jasDa/KYFAkhZL8uLYrFxQDbSr+ZH6esSirlbJy41ClySil4T0zphxe3tzia3PyoXqomW17urr6f+MweGLtoUyScrcqEIn1c7WQ4X+gHXt7mUl/NmyLnU+V6GQwlF4JkWrVaIJGlboqIY2cfVAFYLpqiWW0CUFCUTIkvBZ8TpcsmOq2VSMIZET/vocF0JPuDrVBNk+T6ZC6Pn6aNW3eCyKCOEuM4aYCq/hrTVPw5V7Z9nMg+Tq9equcRv7cUXokvxcX3Wzfc13HlwKxSsG4uqFMHz9vvsr8yaldVh46kKXhMIOX/iO3SIilsfR1XVYXgDIiwCxf/9bjj93T7d5qkjhk4/+p+X+/PvAPKw5uMCsXVJdh10RumZv+g77z2624iEhpD1fH6M+dyTs2lmhy13HxNVzIyHWDPZJAiRAAsmJAIUuenSp8zm5Cl363JRHVnTSePWZ8W97VRe1Dhz06Irem1nfGlujgCatklIyessFzVmPro+7lMRbLYqobv7X5W9cDHlgc418sWI2TBxWXX03bMI+LFp11qqdUeiq0Wo57rm5qmJci7fxAWvF3lmxVtCSnD+dan2mujN6Sxk9P+Lal/H771Z8ZlUxy/gjOC7RzNa+RBnvrryttNxFF2+eVrlbzl47iku3zqgk8vZMwsEkLExs1BLxxLpqs3nRXC/gnTpa9b6F2ydhx4m1Zu30B6zYEuZL4/Y1P8YLQS+qkLCRSzRPo6RmbWv0Qvn8NZX3Xv857dwSypdYQpewbVO9h6pQKEURhi2UKl0xHpZd6w1S1TGv3b2kEj4nVatSqB5aVOumhuesx6PlnCSvmoQnSt40ufZEBLRlIiCIkGBprl6vCcHYFaHr+N5bmDrYdrGN9n2Ko2zNLLh1LRyj3rZd7dWV+SSldVjmoQtd8Xnh4Oo6LKHSEjItNn/bROw6ud4mWskbOardXPWdrTDypLoOuyJ0ff9Xf5Wv0tKM5494fMmLHnvmrNDlrmPi6rnhyjXGbUmABEggJRBwXOiKyW+qeTMlnEeXyXOJHl1mpyA9usyqG2quaTGVDtVfps9sVj00a28Qvih0mZ1ozgpdA3uUQ4vXglQfNVstx91YxKnSRQIw67uXVbtvph3CjEXWXiK60CUVGqu3+POZr8HGH8i2RBt9QMa8UvO2/ojdp/5RXxk/d2bwtn6wGx+c/9wzQyXcddYy+mVB+xofqTBLo0mFLvGekuTaG48ssynavFG1G6oWrqc2GzyvU6x5TvJmLoQer2leNcv3/oaNh5eZ7Ut/wDp8YaeqzmjLdKFLws8kXDQpmoh5IupJuKokmneHJabQVSh7Kbz3ihYmKsdFjo+YJLz+4o3JKmH+yn2z8c+hJe6YaoL0IXmLJFeO2Lg/P8bV2xec3o/cWJtU7mIqHhFXB1J5b/V+TVAwmjuu17j27ez3rghdR7aHYvoI2yFfutB1+9ojjHx7h7PDirN9UlqHZbC60HXk4m78+o+21jljrqzDRs/fGRvH4tD52IXFke3mKG9iW1VSk+o67IrQJV7OIj5ampnQZbg/x3bMnBW63HVMZDyunBvOnINsSwIkQAIpkUBSEbqMoYD2hC49HJChi0DyDF0UrcrgERXjaWYUtVQjdb0mBaFLH4emw2kCmsl7TLzBkrlHV7yErqnBmLHYurqeLnTduPUIddqvfOZrsjsfsOZsHo99ZzbFew7GB+dFO6aoyo3xMVksC2Uvg5K5KyB/1hLIEZDXVPVP+pM34hNXD7ISu+IldO2ZoRLKGy2pPmA5y1IvSZ9chC650fZr9iMC02VVnn5SrU1MD0UVMXTk4m5WIbXOckvI9rVLNcPr5dqrXcRX6DKG3p67fhT/HF6mrgk5znqBBqksOrq9VsxhXfAirIpD6HLlenUnLwpdgKvrsBwPXejaf3YLZm/6Nl6HKL7rcHxEFakG++s/o56LdTilCF22jol+gOJ7bsTrRORGJEACJJCCCDgrdNkWmFzP0ZWgQpfK86UdVDOvKMvcY6qBMceWeW4y42nBHF1m3lXmV0yM+GRIIWbpNSWbGEMJTcIVha7EXn+c9eiKT+ji0PH7sHh17KGLSUHocjR00fiWPWdgED7+nyYYxNcLSz/+7hK6LM8nX+90KJGnEl4p3QKB6bOpr23NNV6hi9smYcdJ26GLz7tHlzF0ccDc9ir5vquWmB5dMvZXyrRC/bKtlMg5dEEXVSVS8vxIvp8TVw5gytrhrk4xQbc3hi7aSsDtyM4HvDEZGX0zKXHrx9UDbVYfTZc2g8ppJkahC3iWHl2JvQ67S+iK7zrsrjC5pPrC4XkUutx1TGJbnxy9RzuyvrENCZAACaRkAhS6mKNLnf9JJkeXHY8uTRvTvaUSz6NL1+g0Qc8YLhlN0o5Hlz6H5JSjq3mDIAx2IBl9p+aF8ImDyeiTgtDlcDJ6Q8iUeH6MaDsL8v9D53dgxkYtOXB8LKGELn0sfmn90afxePimSY+jl/dh2roRZsM0igj2ktHXKtEIDR1IRu9OocvDwwM5cuTAjRs3EB5uXRUuPrzj2kbylYn4J+ZIJa+4+pPv82QujJ6vaZ4X9hjH1lfFAi9Dwm7+z957wFtXVPf7815ekPYiiDRBQLFhV2IXiA1TMFbSjFFTjOWHGqOiIaKoUdHEEhVNosaSP4okxq6YYBdrUFEiEsQgClIEC1Llvv/Pntkzs2bNmrb3Pueec+/3/Arcc/aeWfPsffblPq61pnud8P6j9a5sLa8um+t5j3ij3v2EsX8lAAAgAElEQVSkK9Xt+rc9+3deq4cYkgmz5557quuuu0799Kc/bQlj8LG0bFZqwF0auPsOvOiot+nDPvjVf1GfO/sj4im33ucu6kkPfoH+bJlE181vu0Ud/Xdmo5B3vPQsddaXf1JCov7qjYeovfbfSS1K6eJaP4c7YFNkdKXAl57DN92yjzrmEa/Xp+ea0e93k1uqZ/y2KQ3PNaOf8jlcvJkqDrAl4T+6/Puq61VZet15//uoxx3+V/qwtSpdnOqalNZaujek8x/04AeqJ/1513Nxq3rTiW9Sn/vc8KzyUnz4HARAAAQWnUAnulyWVr/Doc56inZdNFlRPKPLb344btfFsRldfg2GuM3cMrtAIqPL34eLvuviRKKrW/DW1V5C2dLBkT269JhbVzXLznG1iC4Tjz1367pqRn/Q/lvU+95sejl94D/PV8e95gzxuff2Vx2m7naH3dX116+qw37/I+qqq33za3vCIpUu/uLqK9TL3vcU9SvSpNvG+bSH/q3ue3XVdVeq49/7J7pBuX3Z/3Dvzuu2gu8arA95zVp0dTE99aEv1c3qL/jJ99Q/fPSYIMy9bryfkx5f/d4n1XtPP1Fchh2jywo67uQnqOt+FYqnqTMJtuy8s3r1a1+jDjhgfy1VXvSi49XXvjr9zm98sfvsdoB61pF/r9/+5vmnq3/97KuHXNbgHPoH05Byt7sccF/1R4c9S4/56g8/W110RZwlWQryyUccr7pt7rtdJM+7+H/Ug+70aHXN9VepF5/yZ+r6G64rne4+f/5fP0894AEP0D+/653/qt71rndVnzv0wE4od/3Euoyrrr/bKz/wjKaYd93xJurYR/+Tnj6XOWSz+brjutLcD/+32YGRvubxfW3ltPvNdlDH/OM99GnvO/F/1Zc+Vhahiya61vo53LGbpegqPYe7/5g97qh/Vjtvv6sW2d3vlGg3baXUQ+/6B+rBd3q0vtZdJmaXkUlfUz+HW+/F1PH2u3XlNT9Vx5/yZ8VhF0F0TXVNiost/I7m52/ZZRf1npPfrbbdvFl/1P2PQL971O/N7X8MqlkPjgEBEACBeRKgomvTyoqeeojo6vrW6nO1WDIr0OrLiaa+DNAc5I7lJYB6R+9+gE0rvHSQN8TvZ+kFXT+pX4OLB6LL31MQXZrFkF0XzXkQXdID6qTXPUDd4da7qut/taqe8OzPqm+fc0Vw2BH331e96q/vqd/7+Gd+qI45Qd62fpFEl4716+9Wp33734O13H6/Q9QTH/B8/d4Xvvsx9f6vmJIm+6IN6S/4ybnqLf/1kmQj964EYo9dbiZmkoz9w3mvXW+utlnZRmzW28XaNR0/5hFv0LvLdU3pT/q8yeShr26L9m6r9k5ivfHjf6O69dDXnQ+4j3rcYeZ/Xe+2ee+2e+evqf/AOvJhR6qnP/1oN80FP/yh+tMn/ql0W07+3p8/6AXqNje7ix73fV/+R/XFc/5TnKMTUN+96JvqmuvkHUjtSd0vvBf/7tvV9tvtpHK7UqYW0u0UePRvvkx//G9C2WgNAJsV1j0Tux0YuyyCbl3d+mpf+++/v3rLW//ZHb56w6p63B89Tl162WW1Qww+7oF3fJT6zbv9oT6/223u5C+8PhDPduBOVG7eZjt1wWV+E4xOlL34996hvwM/uOx/1Rs/fmx07p0OuLd63KF/5f5Xvq+c+0l1yhdj6Tv2+zoYQObE7j+ijj/pPmr7nTar3C6KdIhFE11dbGv5HO7mHyO6pngOH3n3P1aH3+F39GX64Nf+RXW78NLX7lv2Vs/87Veq7bfdUf3sqst1bz36P750x079HJ7qfqU98lK7KNK5FkF0dfFMcU2muDcom4MOuqV605vfFFyaJzzhierCH1041eXCOCAAAiCwVAQgulC6qG/Y9VG62K/E9g8rZHTpo01qVl+ASH7W71krSJve14kuP7Znu14zurq13v0Ou6u3vfIwLbGvvOp69ZaTz1FfO/MytXnzJnX4PfdWf/TIW6ltN6+oa669QT36KaepH/5YFgCLJLqu+9W1egerL/7vqeqb3z9dXb96vbrtPndWD7zTo/X7ncR45QefoX5xdVym9Yh7/qnbxe3nV12uPnf2R9X5l35XZztt2X5XdcCet1N3PeC+6qa77KO3Pu+2QOevsX843/XA+6vHHvpMLae63cK6P+S7WLffdgd1891vpQ69/cN0b6Lu9eZPvFB97+KzohhusefB6ilHvFj/kd9l+XzyW+9T5158ltq8so06eL9fU4cdfKQu07z+V9eqv/vQs9TlV14cjTH1H1hHHHGEevZzjFyzr0c98lHqyivzUmmK38y77XRT3cOqK/fsXmdd8FW94cBPfvFjtc0226m9b7yfutstD9UZUt3OjF1D89Lrkff6M3Xf2/yGPuz0cz6uzjjv8+ra66/SP3f/vOKXaVnUsT/uqLeqHbfbSV15zc/Uh772dvV/l35XXX3dlfr81a1b1bXXX50NoZM83Rg32ry9O67mD0466F577aXe9a/vDObpMu1O/8LppeWP/rxj8JQjjlcH7GF2Fr3wiv9TXzrnVPWjy89XW7feoLrv0R32u4e6y4H3Uyd97rXqzB98MZjzMfd+srpXv7vouRedqb+rHfOdt99F3fmA+6p73uqB+n99665FJyTPufCb6p9Pi3uXjf2+jgaRGOCRT7mVus9v3Ux/+sWPXqjO+PSl6pqrTDbtdVf9Sl1x6bXBmYsmutb6OdzBGSO6pngOdz2bnvPw1+qsru5/bPvSOf+ps0o7Nvvf9NbqwXd+jM5q7F5ds/yuaT5/Tf0cnup+7bIqj3nkiWrzymb9veuyJS/5WSdmzH9/dVlstB/iooiuKa7JFPcGvQ7bbbedesc736523938Xr/ooovUnzzxT9UNN9ww1eXCOCAAAiCwVARyoivMtsqXLrZmdEmZXB24dEaXze4yeOMSSpdGZj63WWEoXSQN4Tsy6zqjyyzQNcNvEF0WjRNfVpZ1wFyZYn1Glx5PS7SNIbq69T78IQeo455+V7V5G5PeyV9dqeJfvvTL6ktfT5fyLZLo+ujX/z9139v+hpNBdD2d2Hnbp16hzv3xt8S1dg+o377b49Rhtz8y2OFQOvjzZ39EfeCr/xJ9NPYPZ/sf0bnfSDes3qA+csY7owwBes49DnqgevS9/0Jnh0mva391jXrHp18VlcrYY6f+A2vbbbdVz3/+89U973UPtXnzZtX163r8Hz9B/0f9PF5dSefjf/0Ytccu+ySn68pWX9w3dy/F1EmzZ/zmK9zGAPT4XD8de9x9bvtQ9ah7/rk4TSfgXvF+08Mr9/rd+z5Vdde5e13+i4vVy9//tNIp0eePfewfqscc9Ri1w/Y7qJVtVtSr//7V6uMfP7V5nCEndJksf3joM9TB+x6SPf2tn3yZOvtHYWn1DtvtqJ58xIvVzXY7MHnuqd94t9pjl33V3W95mOrE9Uv+/UmTf1+HrLvmnB23bFZPf/Xd1U329iLTnif14Vo00bXWz+GO1RSia+xzuNsgosso7TIupVf33xunfuM9UQbyrJ7DNfde7TGHHvzb6nd+7Yni4bwP16KIri7Ysddkqt/RFNzNb35zddRRj1E3rK6q9773FHXRhcjmqr0PcRwIgMD6IzAr0RWLJrLfISk1rC9dhOgKdozsZN5JHzwtsFg+L8nfqFEvB4guDSfYGdJJLfK+7acF0dX01Lvlzbeoxz3qVuoed95D7XXTHdQNN6yqCy+5Wn3+qxerd73/XHXpT/LZJYskuk4+/Y3qOz/6b/XQO/+eOvjmv6b/F/NfXvNzdc5F31Cnfet9Ooun9Np71/3VvW/zEHWrve6obrzT7mq7zdvrzKhLf/ZDdd4lZ6tv/+Arerc36TVWdHX/C/lB+9xR3Xafu6kD9ri12n3LPrq0ZXXrDeqKX16qzvvxWeoL3z1V/fin55eWoTq5c+jBR6pb7X1HdeMdd9dlMd0YZ//o6+qz3/mQ/uM/9ZpadNF5/u19/6Z22bJFPfIRj1K//OXsM7rs3F0W0SG3PFzdcf97qn1vckud4dWVd/7k5z9WZ194hvrSOZ/IZmJxVl2mxm/c9ffVwfveXW3ZYVcnR2tEVzfW7fa9u7rfbX9D7bf7QWqH7XZ2UrJWdN16nzurJz34OB1Wqtl68SbpDzjuuOPU/Q+9n3rhC49XXzx99hldNK6urPSQWxyuDtzzdprjyqYVfZ9+78dnqS+fe1pQtkjP23bzjdThBx+p7nLgfdVNt9xMbd5mW505c8WVl6pTzzxZnXHeZ9UhBx2ufv++pmT2hA8crS77eShWx35fa/kOOW7nXbdTv/G4A9TtDrmJ2rLbdsr2hVgG0bXWz+GO9xjRNeVzuMsi6kr9Dt7vELX7znvp+7TrYXbexd9R3f9g0vVaXIvn8JB7kp9z1wPvp3/H7LPr/qr7PtrXIouuLsYx12TKe2OKa4AxQAAEQGC9EZi56LJ9v3Tvrf4F0eVuI95E3yNytPyxnqB+D6IrEFaW0wQZXbRx/AYUXevtIdeynj132Vc95+Gv06d0f2B97Xufajkdx86RgO0LNc8eXXNc3lynon1yXvWBZ6hLfv6jQfN3GXbvfNc71e6730T94R88Vu+KiRcItBLAc7iVGI4HARAAARAAARDgBCC60KNL3xPrskcXKR0MMrgmzejq6XU9vXS2HBFtS1q6uJEfk/gDa3muvs0c+ud/eos65ZRTlifwBYz02b/zWp211/Vxe/3HzEYLQ16PeOQj1FOf+hT1la98Rf3NsS8YMgTOAQGF5zBuAhAAARAAARAAgbEEhokuumuiiYD36PI7J/rdGJsyurrNG8nujHYrx/4t9OhCRpepwfQCy34VMqJJyyh+nmlGbxTVkNJFiK6xD6FFOh9/YC3S1ZBj2WabbdRfPPkv1CMe8XD1/e9/X/2/px2trr/++sUPfEEjvMPN76Ge8OvH6OhO+eKb1FfOPW1QpA960APVs5/zbHXttdeqo592tOoy7fACgSEE8BweQm1253TPiK4kuPV1+ZWXqA+fEW5S0ToGjgcBEAABEACBoQQWSXQ5sdWV6EF0RZcUPboCsWV3P7Tiak6iy3Sm127M9z8zAq2Y0WV3eNy6Vf3jP7xq6HcW582QAP7AmiHcCYa+ye43USeccII64ID9teQ69q+PVZddhvK4VrS7b9lb73K2300PUg875Alqpxtt0X3WXvYfT9W9xlpfNrvuF1deqY5/4fHqzDPPbB0Cx4OAI4Dn8GLdDA+44yPVb93tsc1BdTugvubDz24+DyeAAAiAAAiAwBQEnOiifbMSoslsYNjlZbGMLt1/y79nTu9/bujRNUR0BZlkHRC3+SKNx+wYaT4mva+CjLH+VHsg2dnR7/DoifMm+pSJPYoM1YGL56e7R7KWXOKc6NFFM7jmK7q6q6dl1gDRpc+1JY19VhlE1xSPr+nHwB9Y0zOdcsRuh8UTT3yDOv30L6n3vOc96rrrrpty+A0z1gl/9F7dqN2+ut033/6pV6izL/z6IAbPee6z1Sa1ot72trdCPA4iiJMoATyHcT+AAAiAAAiAAAiMJcBFlxNBQkZVSXTRxuoQXc5t9YYNokuXBlph1P+Lu39tjzCdFUVLDO1ZbLfIbkcsOlZffZjvkTWidBGia+yjZjnOxx9Yy3GdEOU4AlZ0XXv91Xonwk+c+V71/UvOHjcozgaBiQjgOTwRSAwDAiAAAiAAAhuYAEQXmtEbYeSEktVRrnVVKKf643ivK/odEj/T2VAbQ3Q5KdY3o7d8NRdkdG3gxy2WDgIgAAIgAAIgAAIgAAIgAAIgMGsCJdHlS+hM+V+udBEZXV6addcNpYs+zcoInklFl079mlszeievKkoXIbpm/djC+CAAAiAAAiAAAiAAAiAAAiAAAiAgE1hu0dXJN9KLS9sls86wZxh6dPmrz0oA7QezyOiywkfP0Si6ArGkfzCRhtliiyW6eHwmg6uPGz268AwGARAAARAAARAAARAAARAAARAAgZkTqBVdoVCSm9HPP6MrL7p8PO2iizaDRzN6IpisufE7DtLdB0MZVRRdvQAzHovsnthngrnm7xBdM38QYAIQAAEQAAEQAAEQAAEQAAEQAAEQWA8ENqzoknZX7C4ozxCjOyP2F1yWYCyzbKOULgYyqwckSjApowuiaz08Q7AGEAABEAABEAABEAABEAABEAABEFgYAhBdcjP6XEbXBhdd2k65EkKIrpAHLa1E6eLCPOcQCAiAAAiAAAiAAAiAAAiAAAiAwAYhANE1hejqG4Ox7K912oy+LLqo/HLZXcjoMnIQuy5ukEcrlgkCIAACIAACIAACIAACIAACILAWBCC68qIr15+ru150F0r/s7mSEF20txcRXVSEdeKnV2fmn3ozRduvq+vc5bq595/7zxZt10Uu+LzkMz3IILrW4hGHOUEABEAABEAABEAABEAABEAABDYSAVF02Z0LN8XN3qnY6f5dy5zun93/sWZnE9n1cGWllz52H8T+eNYLy4zV97nqtk7s/m9wjO2BZSWSnji762K2Gb3Ui4vYqWg3R3JTxKWL6ymjy9km55sCwWQ45EsXufCxBqtXVuF4Syy6/Drp7o9E0vVr61wdRNdGeqxirSAAAiAAAiAAAiAAAiAAAiAAAmtFYKjo8iIIoktbuf4VSjD3pv+cHGu8mrWK4R0gZpLxc0/64GnUHfnsJzIWbQzfOypBXPldD62UMhLHDxSOMz/RpeMwpiiI28RDBZONlUmnXjKZ9chCymeV+R0kt66u9rjCuU0s3Tg0HoiutXqAYV4QAAEQAAEQAAEQAAEQAAEQAAEQoATWo+iyuWMLk9FFd3iE6AqFVal0EaILDywQAAEQAAEQAAEQAAEQAAEQAAEQAIFaAhBdJBurgyaUVHKWzaWLEF2k71ZPkzapdzJL6NG1fKKrj5hkj6F0sfZxhONAAARAAARAAARAAARAAARAAARAYByBOtHV9+IizdcXuXRxSEaX010QXbQZvL+5pihdNArIvCC6XjXum4uzQQAEQAAEQAAEQAAEQAAEQAAEQAAEIgIQXbYBfo8GomtGosvYraToMhKs731Fdl207y9Pj64+4kxGV3fEm1/3SjyOQAAEQAAEQAAEQAAEQAAEQAAEQAAEJibw5Gc814zY73qos6GiXRfXR0YX2fcxLlHsGVi8k+66iNLFHusGF11agfVN7iG6Jn6STTTcvW9zhHr0vZ6krrr2F+qF732i2nvXA9RD7vIYdcs9b69utO0O6opfXqq+df6X1KfOer+69vqrk7Nu2WFXdcf976Vus/dd1M1ucqDqfu4eQFde81N1wWXfU18///N6nNJrpxttUfc/+Eh1u33vpm66ZW+13ebt1XXXX60uv/JSdf6l31XfuuAr6tyLzhQ3orBjTzFGKU58DgIgAAIgAAIgAAIgAAIgAAKLQsCKrk0rK8Z3QXT13q/P9CKSiksw48a64zbgrota2rDMK3pTi5/NQHTZOPwOkWuz62IYh4nBl2f6XS0huhbl0SfHYUVX9+lbTnupevyvP1dtu8120cGX/+JideInXqB+dtXl0Wcrm1bUKx77HrVpk3mopl7fvfAb6h2ffqW6/obrxEM6yfYXDzlO7bz9jbPjHPvuP1LX/eqamY2x2FcM0YEACIAACIAACIAACIAACIBASKBFdPkm7F2GlxVBfTZYp8isFNJJYf3nVqB1GWN26j57rPuRZk65f+9lW5hV5eeT47BpaGRuF4/JSJs6o4vG4ZdGpVf/7nrM6OqWNlfRpSfkc5qOX0Yq2UuwOKLLMeri7msvIboW+xFMRdc111+lHxqnfft96ryLv6O223wjdcgtDlOHHHS4XsQPLjtHveFjx0bZVCsr26gTHnuylmDf/sGX1PmXnqN+etVl+rjddtxDHbzfr6m73eL+eoyvf//z6qTPv1aE8qwj/17ts9sBanXrqvr82R9VZ//oDHXlNT9TN9p2e7XHLvuqO+z3a+p2+x6ijjv58UnRNcUYi33FEB0IgAAIgAAIgAAIgAAIgAAI1IkuLpm0KHLCZkFFl3NdLBtLizWILnPleyEUNpf3IqY3R+4usQKJN6NfZNHl5Zc2TF4ykSyrQNLZzDTWJF8LNDNAj8X+7MWaGYcLt4xsQ+niQj+DqejaunVVZ2393yXfDWI+8pDHq8Nv/zD93js+8yr17R98Ofi8e1De7RaHqm98//NaUkmvo+7zVHXPWz1QS9qXv/9p6oorLwkO23OXfdVzHv46/d5/nflv6tRvvkccZ/cte+tyytXVG6LPpxhjoS8WggMBEAABEAABEAABEAABEAABgUAqo2sK0aXHIM3dh2R08ayptHAjvcVsNtkaZnQFFY/LmtFlhJGXPP7+8WLHSiV+b01euqgnqsvosjHpGBKiKzimX6hWVn7BJlPMWa4+c8wEwbhAdK2XpysVXZ3A6kQWf22/7Y7quKPeoksaz7rgK+rtn27fWGCf3Q5Uzzry7/TQ7zn99eq/v/eZYJqD9rqDevIRx+v33v7pE9RZF3y1GfEUYzRPihNAAARAAARAAARAAARAAARAYI0JTC66SFaVKLqo+KICiJYzktJFiC5/gwSll13Z50kfPM0V7BkPFPyoz+SZW4ue0aVjXmUijckmvy65dHGM6HJj99lfEF1r/ISa8/RUdJ18+hvV1773KTGCJz34BerW+9xFlxIef8qfVkXZPcxs366uqfxLfu8d+ryPnvGvurk9fe22857qrx95on7ra+d9Wp38hTdUzTH1GM2T4gQQAAEQAAEQAAEQAAEQAAEQWGMC8xBdvveW6efVvczffGETd6lH1xSia9NKPydpGk/j0PGYoNzVqNl1MdejCxldUqP6imb0WjQtgejScboMM2R0rfFzbLLpqeh6/ceep35w2bni2I+4x5+o+93ut/Rnx538x+rq666Kjtv/prfR5YkH7nFb1YmrrseX9PrPM09Rn/jmycFHndV+ykNfom6x5+30+z+8/Dy9S+P/XXK2+tEV38/u+GgHmmKMycBiIBAAARAAARAAARAAARAAARCYE4Exosu37Or+ourFlZDRBdFFBBqVbaQZP3s7kID071Z6W4zK6DKixmeABdlg9H2SJOaPn13p4qKLLsPN9F0aJLrMSerNr2svd5vTM2FDT0NF1wkfOFpd9vOLRB4Pvcvvqwff+TH6s5f9x1ODHlvdw/Dh9/wTdb/b/mYVy//61r+rU7/x7ujYXXfaQz32/s9UB+552+Cz7v67+Gc/1I3sP/M/H1Q3rP4qOc8UY1QtAgeBAAiAAAiAAAiAAAiAAAiAwIIQ0KIrUTbYhWgkVd/MnTWj9y2wVvRqTKmiWZgXX6RxvTnIHbveMrrC9ZALnOjRRY+H6CKll0Myujrcxs/R7CrSSL4r7GRZZma3RteEzBV+mt5e5jNeumjmaRddJrJ+PoiuBXn8xWFMIboOu/3D1MMOebwe/PxLz1afOuuDeofGX177C9c0fpuVzeoVjzUN5k/71r+rjwuiyz5Ub7X3ndUd9jtE3WLP26t9dtvflT92n3fjnnjqcVnZ1T1oxo6xsBcMgYEACIAACIAACIAACIAACIAAI0BFl+sBRXZYnIfoomWCPIZwp8deoom7P6ab0c+rdBGii9xcQ5vRayE0oHRxbUVXr7Fck/p410WIruV49g4pXXzhyY9XV133S7fAYx/9j2rXHXfXEuqNp75A3BFx5+1vrF541FuLootT23G7ndXtb34P9ZA7PUbdZMte+uOPnPGv6tOsx1eO9hRjLMfVRJQgAAIgAAIgAAIgAAIgAAIbkUC76KIZWVY8jcvoguiyTcL8HRhke/VvT9OM3hgX/VpPpYtTiC6LhmZ0WUEV7vjIM7ogutbLw7O1GX2XpfWi9z7RLX+n7XdRLzrqbfrnD371X9Tnzv6IiKZrZN81tO9euYyuFNdunuf+zuvUjjfaos6+8Ovqraf9bfMlmGKM5klxAgiAAAiAAAiAAAiAAAiAAAjMmMAsRJcVMnbXRd143q5DKF3c8KLLt/ByV3vuossJHW+MdDCkXRcRY4vXo8vH2la6aM4zpYqGgReAW1d7oaUtF3k/Kl3s6ZGMLjuuGdtcV5QuzvhpNsHwVHR9+wdfVu/4zKuiUbffdkd13FFvUdtus50664Kvqrd/+gR3zK473kQd++h/0j/nMq3+4P7PUHe/xaH6uM/8z4fUh//b7MDY8nrqQ1+qm9Vf8JPvqX/46DEtp7pjpxhj0MQ4CQRAAARAAARAAARAAARAAARmRCAnunjZoC1j7EIxuyaaoDZtCjO6nOha8e9T0cV3NNwooivKyHIA44sL0UWFkzdFrM8WF24dyDmILmO9SDN6M6/p+VURA3p0zehxNn5YKrq6Xmxv+sQL1fcv+U4w8JGHPF4dfvuH6ffe+dm/07sh2lfXe+vFv/cOvcPiDy77X/XGjx+rVnsxao+50wH3Vo879K/cjhNfOfeT6pQvnhjMsdeuN1fbrGyjLrz8/8RF7bLDbuqYR7xBz9M1pT/p86+NjptijPFEMQIIgAAIgAAIgAAIgAAIgAAIzJfAaNGls7V8OWP3rxBdrue+NYFGCFbuuKiPJQ3s7R0x09LFXtWYuRZ410UTnu2BlRdd+ljb7yvRjN6OV5PR5ebOiC43Ho0TGV3zfaqNmI2Krut+da3eeOA/z/w39f1LzlLbbnMjdchBh6t7HPRAPUPXg+sNHzvWb1jQz/uYez9Z3evWD9Y/nXvRmepzZ39UXfHLy9TO2++i7nzAfdU9b/VA/TC49vqr1Pbb7aTOufCb6p9Pe0kQ9V0PvL967KHPVBf85Fz1Pz/8mpZmv7j6p2r7bXdQN9/9VurQ2z9M9wHrXm/+xAvV9y4+K1r1FGOMQIlTQQAEQAAEQAAEQAAEQAAEQGBNCNSIrjADi/Xo6kWXEzMTiVk0vPwAACAASURBVC7XQD5oPG8QhZlmfldHuuMjPW5RmtGvW9FF5Y69i2fVjN7OZcaXRJc+wmd+QXStyYNlWSelouuUL75JPfKef6Y2b7NttJzLf3GxOvETL1A/u+ry6LMdtttRPfmIF6ub7XZgEsOp33i32mOXfdXdb3mY+vlVl6uX/PuTRNGV43jD6g3qI2e8U33uO3IfMCu6xoyxrNcRcYMACIAACIAACIAACIAACGxcAsshuqxcW3vRFe6saAsySUZbfysFCVm2L9msM7p6xRPczbThvPtAaEYfnNuY0bVeRZcpT9SdtYIG/uZnuXSRsnCZZ8joWponLBVdL/uPp6odt9tJPeTOR6kD9zxY3Wjz9uryX16qvnX+F9Wnznq/uvb6q5Pr2nbzjdThBx+p7nLgfdVNt9xMy7IuO+yKKy9Vp555sjrjvM/q7LDfv+/ReowTPnC0uuznF7nxNq9sVgftc0d1233upg7Y49Zq9y37qK432OrWG9QVv7xUnffjs9QXvnuq+vFPz0/GMMUYS3PhECgIgAAIgAAIgAAIgAAIgAAI9ARmJbpsI/puGt6MvqZHV5jRBdHFs8E015M+eFqvUPz9rCUMeeVEFxdUwbm2OTsZzo8VZlIti+iycfJsM96M3q2nQnT5tZMsMsfOv2dcWf8zenQt7AOYi64rrrxkYWNFYCAAAiAAAiAAAiAAAiAAAiAAAjGBSHS5BvO+JJCXLvqftcXS7WZ46SLdcVFLGTu1bmIfZkCZxvb9e7bf1wo9ZolFF0ntorIq6MFVseviYNElSSjqwqgIW5eiq9/10K7N9/eiuyi6FDeHxsqvUkYXRNf6eqxCdK2v64nVgAAIgAAIgAAIgAAIgAAIbDwCcxVdguDSEoyLrq7PV3DsxhJdNY3oNbeajC6ILlN2KIkuy8bJPl2maF4QXRvvYditGKJrY153rBoEQAAEQAAEQAAEQAAEQGD9EFgr0cV7XQUZXRBd0Q02bUaXNjlE6Fi5E6Z69cLHxxKWQZKyPCuGSNgL04w+k9HVJLp6Zj7Dy/To8iKRli6ag2n2WCDbVlfVm1/3yvXzFFlHK4HoWkcXE0sBARAAARAAARAAARAAARDYkAQ60bVpZUWvXcuUqHSxKys0aIyMoqWHrHTRHmePCTK1zLF2nPUjunzdYbim/nYqlS5WlC26a8Pu0OEZXb208ZKmFzaLIrr0hopEHDkrR8VSd8gqEU36lP7F+mVNkdHVM8uJLsvTxAHRtYxPVIiuZbxqiBkEQAAEQAAEQAAEQAAEQAAEPIFa0eUlzuKIrk2bekHnTJxZl81+8n3CwvfNQaxPGHnP/Gu8kyJ93/87RFcgm5xqCnZuTPTAMmbI3Y2+vHA5RJcN32Sv+Qb9VHRZ+cXLJ9/82hPwHFpAAhBdC3hREBIIgAAIgAAIgAAIgAAIgAAINBB48jOPCRvBC2WDnfPhosslKtFm9HPO6JqV6OLZZhRn/BlE1zjRRWRXu+gygsmXSTrNRt6bqEeXjpM2sLfZZPa9sugyQ5h4IboanlI4FARAAARAAARAAARAAARAAARAAAQqCVjR5XpANYquQDbNVXTFuze6sku7c6MxdL700tdlOjq+N1ic5dUdxBvDQ3Q5dHU9uozHymR0QXRVflVxGAiAAAiAAAiAAAiAAAiAAAiAAAiAQIkARFdfomislsaFjC4qn3xloRdWGtPsRZeVZG4vRNZAXy4ZNLG5c2fQjN6MzTO6PBNbushj6I9ARlfpqYTPQQAEQAAEQAAEQAAEQAAEQAAEQGAggZToCksVfSN6K4J8g3rSJ2vijC4ag/VQcq8wN7ERVaRh/vrO6PrQJ/3Wf/0N4KQQuSHC3RLdgU4G2UODc/ssLNJCq0l0WclD/6kbzNvpw4FNLE5Q+d5drvm7OSCIeajo4rHRjDM7jX6PN8TPli72K3DcYtlm14jSxYFPK5wGAiAAAiAAAiAAAiAAAiAAAiAAAgUCJdEVNmWnuyaagXnpYtwI3hVFirsu8qbvdufH7v21Fl28bNGsl/fkWqMeXR2fk+YguowUCgVT/1MgviSZ5ntnxaWLVDbZCZZKdJmGXTp0v3a222NftulFGnp04YkMAiAAAiAAAiAAAiAAAiAAAiAAArMkEIgumxhFJFNWdPWN6J0A6lpiRf2xFld0BdLKLKKXd/KOi7Wii7gwN6Y+1/YIo8LMezJ3mUXBRs7tg5RFlxZILm9KElT9PIK8kjK61ovosly4fAt+ttlYpK/Y1tW+RNFsm6hfLstsoOjqxnjTa14xy+81xgYBEAABEAABEAABEAABEAABEACBDUngKX/5PONNOpEyUHQ5MUNF14ovaXQuJynQTKYUb4g/64yuZRFdVJARG7ZxRJeTd4XSRS/l8mWDVlZF/xwouvw4fAdI8zPP6ILo2pDPWiwaBEAABEAABEAABEAABEAABEBgDgTyoovsWKjTlOhOhyYDKuyHRTK6JhZdvieY1WbyrotBRpk2eOldFyG66I6IPBOM9NBKlS5Kwojes1OVLi6T6LJMbEP6MGPMZ9sho2sOTzdMAQIgAAIgAAIgAAIgAAIgAAIgsOEIcNHFSxU7wSQ3gN/YootnmxmnZkseyW1Ee3oNLF1c2IyuIaLLSCvzipvA20yssBn9ehJddi0QXRvuWYsFgwAIgAAIgAAIgAAIgAAIgAAIzIFAJ7p4yaCXNiYbar2LLlpaGQqruIEWb57v6j3XTHQZYxTcKvPq0TV30dVbsjBTzJcpehRrV7pomaQyuiC65vBUwxQgAAIgAAIgAAIgAAIgAAIgAAIblsC6EV22vxhthm+sle0xT4Qeazpvr35DM/o1zeiycepdF+couqjYsnlZUXki+SqJn3U9q/pjmjO61kB0mZ0Vu5jlZvQWv1kLFWx9sHTnRdtjTG1FM/oN+8jFwkEABEAABEAABEAABEAABEAABGZJQBJdYQZXnNHlqvESPbr0+UQaTdGMvtija6zooiWGTHhR/qmMrqDfF00Em0XpYqvoCgWVtUzmn042VfToyokuaY5W0WXUUCeWEqWLay26yPxGfHnP6DnShvTpzDKULs7ysYaxQQAEQAAEQAAEQAAEQAAEQAAENiqBnOji/bo6Rnp3RNcPnjSjJ6JpEUVX0OeKZ26ZhblbIJZZ5qNQZvmm+PFn5G5qFF10DjtK1KMLoouWK+ZLF7WbWu2P0RKNH09+FnZdDDK6ItG2qq9Rd1qV6LLnI6Nroz5vsW4QAAEQAAEQAAEQAAEQAAEQAIEZE3Ciy4oqLbJYaV+/4yIXXZs2rXgBNKHo2rQSzm92e+SyicVZyOiC6GJ9vGz94PCMLmNtgvN5rzAmlawVSpUu9iMWM7qMXLJzQ3TN+BmB4UEABEAABEAABEAABEAABEAABEBgaQgsu+hyGVBrIrriLDAjA8nlX78ZXfWiy4qppOgyB5iPbZ8rm4XF3qeCjvfFIsMEEo5mdIWSzGdi0X5hgYijPbpMgCQrrJTR5Rn58c0aUbq4NM9IBAoCIAACIAACIAACIAACIAACILBEBNKii2dR+Swrn12Vz+hymWHE/kjZYv64fo4go8vOa6DyHSBLostlh/VN6sUSRSG+cC4+t40Doqsqo2uQ6Or7dLlSQ2e4zMXwJYhWNvG+/KxMUfeSZz2z+i+qzw4zwq1adPV9umwiW6ohfVAu2ccB0bVET0mECgIgAAIgAAIgAAIgAAIgAAIgsDQEqOjiPblMT3nfi8p/3u9mSHc4FEoXU6KL97oKRBeZ07wvi66gbFJbqV5GBTGld1ykIkufKjSg5/2y4h5dEF0LILrMbodeJtnv3rSiS8u1xM6LraKrG+vE17x8aR4SCBQEQAAEQAAEQAAEQAAEQAAEQAAEloXAU//y+dYQsd5cRhKVRBfNqLJ9sGwz+tmJrriPGEQXueN8TpJ/k/bS0u/2aUv8fXcu6bdFW2+Fx+d7dOlpeJ8ukjFFP49KF9nOiz4us6ZwXJqp5UWXPU4fOzKjC6JrWR5piBMEQAAEQAAEQAAEQAAEQAAEQGAjE1hU0UUFW3d90tLNpXLpy6j3gfS1lb6JPStdDLKz7ASkNFLc/TDambE+o4vvnMhLLu09OPddFwPZRHpkWfFkPvdfkbUSXZJo8rHnG9Jb0WXHaN15cetqXx45MKOLC7fuZ2R0beTHLtYOAiAAAiAAAiAAAiAAAiAAAiAwKwJcdIUZXAMzulZ87y6ngpK7OZo5nAjqs8h4HMZFSWWUXnQFGWW9vHLOa4FEVyCzaOP6YI3+inNJ5sosT/rQJ3ljKncWz+qKMrqM9dGv0s6LU4suMrWfmzejZxldTnT1J6cyusx6/Ayu/5Zda1DmyAWZ7jRvmNCssYLosnN6jqxsMtgl0gwO0TWrRxrGBQEQAAEQAAEQAAEQAAEQAAEQ2MgEtOiyrigpo+JG9J1sCbOnTDaV9kvzFl2FHRd1TAnRRUWcPk7o1WXvj+YeXY07LtL53Zw2bnqT2hgXQXRRUSbJNKl0cdlEl25Qr0sunS1r2HlRaIAP0bWRn7lYOwiAAAiAAAiAAAiAAAiAAAiAwAwJDBVdQTN4oRG9lTZzyeias+jiZZVcUPnEM1LaSIRVqmxxYUWXkVnmLuSli82iqx8s2NmQTOB3RvST5nZe5Dsd0liDJvWrNlNLzrZy6xAyusaJLqP1wp0dkdE1w2cahgYBEAABEAABEAABEAABEAABENjABGTRRXYrDHY+pO/78kTaCN42oh8qujat+Oyx1I6LOj+LZJ+JjehNAMUeXXTHRSqacj26cqKLJHG5nRz1uBBdQaMvmxsVijNSvqj/lTWyLzWkn/XOi2JGl+7b1YksKgH5LpDxDpAoXdzAT10sHQRAAARAAARAAARAAARAAARAYGYErOgKS/YKoov01DJiy4TnShlpCWQvnJz4Yg3d/c6MZhweBzm9/6xyx0UiunjZYiC06ASVpYsbWnR1vGgvKvpzVemiOaEouvRhNguL9e/ivcV4VpfvKRYLJp8xFu8Y6eLn8eVKF4no8iz4LpAQXTN7gmFgEAABEAABEAABEAABEAABEAABECAEcqJLbv7eZ0rZflxzEl2lRvRWtAUSy2aHsf5cU4uusHcXgbteenT1bsqtbIjoCgRZrejqs7pypYtpuaQ/Ib20upQr/Y5eR1BKGDWLZyKuF139iEETf31kn9EF0YVnKwiAAAiAAAiAAAiAAAiAAAiAAAisLYExoov2mgp2PJxBRlez6MqULaZEV9xsPrw2caN6WmZpjl3Y0sVANNl1Ve66mBZdoUyS5gh2dPSNvlxGFxdgTibZykVSvlgqXaRjpXZepKIrPJ5kePE+XROIrkCuoRn92j71MDsIgAAIgAAIgAAIgAAIgAAIgMC6JUBFVyiTfBmh7YnlRE5ux0Wd4dX30LLUyE6GXBZJpYs8DiqmwlhczaSRTH3vLmucrHRK7bhozvF2Kie6mndcJOPa2DyOMO7ofXK30d5e7u0huy5SqeMGWjLRpddg0rL0K9zR0Wdqmc/M0fY4fazbNLG9If3W1VUzFpvfZnTZOeUyyjiL7MRXv3zdPlSwMBAAARAAARAAARAAARAAARAAARBYKwJPfdbz9dRBc3ctjGLRRXcTDKWSb7a+acU3qZ/Ljos6eDK/s1vlRvT9qS4Na8OKrkAa0Vwr3+zK7bpIj+11U9BQnvfpmjKjy4km77BICeIiia4+Ut5Mn2SGQXSt1SMP84IACIAACIAACIAACIAACIAACKxnApLokhvCe3GkM7aC7Kn5iy5aNmmEFSsjrNhxcS1EV7CbozOB5g4Td3okuzW6+3CyjC4mjAKRZIyWm5P8a7hTIumDFUuwXoUx4eN2U+xHp03gaQxtOy/2GVduLr84l/llm9vz3l08O4yXLvYsdF8vnxZGMsrs3KmdF5HRtZ4folgbCIAACIAACIAACIAACIAACIDA4hAYIro2bfJZW9KOi1batGZ0bbLN433qmOt55eUbmduZqmGii8ZHRZMonNhukW6rSSaoSj26uKCjd8JCiK5Ads1KdFlxNKno0p3r9Yim0bxFS8oUiejyx/FMMFcXGe4Mmdt5cWtJdPVUifBDRtfiPAQRCQiAAAiAAAiAAAiAAAiAAAiAwPoh0IkunsHlq/86FeQzpfz7edHl+27F/a/oXEF/ru7QQHTZeVO9wuL+XFRWmT5h5jqlenTR/lyzFF20zxZEl/NPbGdD8r6VbW0ZXRWiq+/TNWbnRTGjK7Hzou8hBtG1fh6ZWAkIgAAIgAAIgAAIgAAIgAAIgMAiE6gRXV5OGXEV7rDoZZI+bhF2XDTWyvQZcylnvk5QEnEQXTR7S+jTNWnpovY+ZdGlD7NZWK6c0HWU13deqiG9mNE1geiyEo42xLcN6f2mkpJ0CxvgI6NrkR+LiA0EQAAEQAAEQAAEQAAEQAAEQGBZCaREV7jzoc+uyvbnWiDR5bLD1kp00VJH0mdruTK6eiFF/hHIJXPTJ0r/yDcilFH9B0R0UWHl+3fZcX2vMN4jq1Z02ePszos0oyseo5dnQp+u0s6LJdFF44DoWtZHJuIGARAAARAAARAAARAAARAAARBYZAJWdIViK1Uu6DO6qLBxGV4Ddlzs2Ojz+10eaRz6M2H3R/N+XLro3yuXLZp5fWklHTPXo4vHF8RCh5ur6DIGJbjPfL6Uf5vviKg/cS2pSOP5ws6L4Tj1oosLLRrx0Ib0qYwuj4Q1gncJYWGGVSS8SqKrZ+fkG2mC7/nIc3SfQ3Qt8mMRsYEACIAACIAACIAACIAACIAACCwrAS66mnZcZD2wNg0QXb600MgrLtxCkeQ/N2WShvqsd1yUJZhQCkl3UZyV6KLjnvShT8rbIvZ3Y5XsWnLRZQWVkUtcunmT17zzYm/K9Kg+Vcs0uh+086KJxY71xr9/2bI+MxA3CIAACIAACIAACIAACIAACIAACCwsgaf91V8bWaQFCsmE6n+2n9U2onfHm38hY/ssrKAhvW12X7HjoomPyLB1JLpad1zUeCcRXb0LollagSAr7ry4thldVnT5f9IsKvu9q9t5MZRmQh+x3M6LiYb0fsxQukF0LewzEYGBAAiAAAiAAAiAAAiAAAiAAAgsMYFOdLWWLToxRkTTqEb0mR0XQwkXirNFyOiigookWznJp+PnPbpo5ld/72xI0eXVT5g1Zd6Xe3TRz3jZJc/qWqSG9FzIQXQt8VMToYMACIAACIAACIAACIAACIAACCwsASq6wrLFXtG4rKxCf64FakRvd1wMJBPPLrNXhL3vxVp4ySQ2/NgNKrp69RRkfoX9wrjk0WhJDyz6eakZ/SxElxSfaVzfyza6u+PqqglfZ3CZm8T3Ces/06daBjzDzPwM0bWwz0QEBgIgAAIgAAIgAAIgAAIgAAIgsMQEvOhqLFs0Fsn3xxrQn8sM4RvRe3Hkd3mUd3+MG9EH0kmXN5qL4nuAsTJKe80S5ZX0koZZW6bE059O/52clevRtb4yunrt0yq6jCFybe+HNqMPRVPYp4tmdNnj7M6LfdREUgklmILo0jGn+nRVli9CdC3xExOhgwAIgAAIgAAIgAAIgAAIgAAILDQBLrpkseSzuZxQEsoW7WfO45B+WjwjSvfa8rWHUSN6M1Zq98eJRBeVUUJmlyyz1qnoCoRRYddFeqyB5LOW4s/6I9yuhCTbi4iu4DwnmOTyRdoMPie6epcWNKkvia5AiPUDuNysPsuLiy53TqXo6o5/w9/97UI/GBAcCIAACIAACIAACIAACIAACIAACCwjgf/37GP7sE0WVEl0uc9H9OfqJiyJLt/83moztuOiHsSErpWZP6GYzeVOnbPo4uzo/TK+R5e3Om7cql0X9XnmFFeCt+Ciy4Rsg/axD9l50a47aMbfZ231UMKsM/IZL180P3s5J5cvms8hupbxcYmYQQAEQAAEQAAEQAAEQAAEQAAEFp2AFV1hxpUv83MuqM/AorLGZmRN24i+V1dWYvkAZrbjop5xDhldo0VX0ASM77ooiK5ACJE7kUodI3NC0RWKJJ+BRaoTSQ+q/uiRpYtUtE3Rp8v3zbILp72yTH8t3/Be3jlyln26ILoW/dGI+EAABEAABEAABEAABEAABEAABJaRgBFdi9mfywuofDYXFVU1jeiNSutrI/uLNivRFe246Cb3d8uQbC49zEkf+mTY9Z2aqH78qqyuOYouLrToAqbs0zVL0TVFny6IrmV8XCJmEAABEAABEAABEAABEAABEACBRSdARVepbNEJpQn6cxnfk29EPy/RFTebD6/amGb0yy+6jJnSRKbI6OKiS/9spZydoNCjy5wTly76sX2G1pCG9HYcKt6m7tMF0bXoj0bEBwIgAAIgAAIgAAIgAAIgAAIgsIwEWkTXvPpzGcE140b0dhJStujF2kjRldtx0Ri+4LX2GV29bQr6VAl9utar6IrEVt+vrCS6nHAjGXF1fbq6Hl0vXcbnBWIGARAAARAAARAAARAAARAAARAAgYUm8P+e/Te+ebsWNPPtz6WTusjujH7+dSq6mORKyjVuw4iYszfUdKWLlaLLCCEzfdjnS+5xRe983uzdfUZ2XpyydJHGaGJmMa72P5P3cw3p7QiuJHJ11XAgmWW+XLL/TPemd7lgvtn/VoiuhX4qIjgQAAEQAAEQAAEQAAEQAAEQAIGlJVAjujZtWtHrM03nzVJdI/oV/5lzOKSxOy/7c72wrFBb8WLNjZxoRO9iMAGEcTTsupjqzxWMT65o3L/L2yr/WXCC+yEqXYToYpIsI7qoSNK+yJVQhpKKNtOv3nmxG2tEQ/qxfbqQ0bW0z0wEDgIgAAIgAAIgAAIgAAIgAAIgsMAErOhajP5cvUKbcsdFY6+8qMs0ol9+0aXNEOtPT0sQ+xsx2nXRGKUgSytoYh/sqOjvZpqtZKYOs6b4fS9+TkQXHWPczos2o4r3Fot3XrQyjccWxcqFXPezfi/uFWbLF+PsNz//61+F0sUFfi4iNBAAARAAARAAARAAARAAARAAgSUlcPRz/oZIICaEdCVjl5Pkdz2kmVQmw4vsiChJJS6Z+vHMpL480Yg2O7+B6bOlSEZZf575B8sG07H057pAecZY246LYRw2HUsYk2Zq5Xp0Dc3oImPaWy0uXTSmKLoVa3deLPXo4sOnRFcgrEg08xNdOv0rKBU0YdAm9Sajy7zLBFgfsxZZpEG+1JDenh9klRlraMZOlC9CdC3pExNhgwAIgAAIgAAIgAAIgAAIgAAILDSBlOhyXkUQXYFgyoguaTdD3Y/L27Jkfy4vmIhI8xZLM52H6JJ3ZJxOdA1tRK/Xf9KHPilYrbUQXb3uCTK/pND8e3E/rl46rdHOi0ZKEbElNKS3qqy1T5cdm4o2iK6Ffi4iOBAAARAAARAAARAAARAAARAAgSUl0ImuZNmizqqaXX+uddmI3hg6dzeUenRBdNnMpx7ZXBvSr2GfLoiuJX1iImwQAAEQAAEQAAEQAAEQAAEQAIGFJpAVXST7ijeit2WLxusQnUMzvISyRX28Nly8bLH/ZB6N6ImMkjO2/CWLP48b0TO3tbyiq1uIy1aivb2KPbr0mWGPL6mEMpXx1bjzohgn2Q1yJg3pzaSOip6DZICZvlzmxnG9uzLlixBdC/1cRHAgAAIgAAIgAAIgAAIgAAIgAAJLSsCLLl+ON0XZohVg4j8HiC4nnFK7Lfa2qdSja+iOi34dw0QXj9/eLguV0UUFUq+urLlxtzf1V2FT+7LoCgRVOFAokHqpZCe1eql250Vz+viG9E5apfp0dfOs9vOQpvS+F5mNwQswa8P+4ZUvWdJHBsIGARAAARAAARAAARAAARAAARAAgcUl8PTnvqAPjvbCMm/Vli3qY80J/XmkeX3QVD7uz2VOm1EjehYTj9PP7bPL+JUak9EVlS26APwsyyG6jPHRUedEl/l8UXZebG9Ib+MPmvKzhvT6GLJOm9VFd18MsuL0+eaC00wziK7FfSgiMhAAARAAARAAARAAARAAARAAgeUlkBRdA8sWrTzigsjtoLhEjehlEVbI6Mr155padL37w58Mk6rsfcjKBmt3XaSiyggd0lC+WL4YCy4pOC6RqD0LdjWkcs3tlkiFWz8fyaSKRRvdZdHBIdKpy8gKx+GiLviZ9BMLdmPUJY1uC0c3vilnlHdfhOha3ocmIgcBEAABEAABEAABEAABEAABEFhcAkZ01ZUtGk/TZ2vR7C27vNr+XN04K3znQvszza6adsdFp6hY7zAqtOiVmnzHxaGii8gzglptqhVdkbTqRwlEVJB1ZA5oE139GUN2Xuyl1hSiy8quRejTZWKRyxchuhb3oYjIQAAEQAAEQAAEQAAEQAAEQAAElpeAFV0u48o1gye7LfaCxpbi2Ub0PksrLFuk4siP24usMf25iCgKYjETus0OXckgb4bfH+dlkZydlf58WH8uysMmtAXvkduHlju6t+ciuoynChvKN2V0zV509T6MZEmls7rSoiuM0zSVN6h1XpZQeqmby2f6dLWXLyr1D6988fI+NRA5CIAACIAACIAACIAACIAACIAACCwogac/9zgdWSC6GsoW9blmADeOlAlldmZ0neTJfOn+XDp/jGSJ+dNZNhiRXCYeZ+vCtZE46Zr5v9tLNaY/VxCH5es9WRAXvTXWvejSQknq45XZedFKKHNue/min8+ipiWNoeiy8Y3t0+XGSZQvQnQt6BMRYYEACIAACIAACIAACIAACIAACCw1ASq6crstWnFjs7msHJLKAReiPxeRWlLmGZVbUkN4WYSNzOiC6DLflfXSp8uthWR8mb5c4Tql8kWIrqV+biJ4EAABEAABEAABEAABEAABEACBBSXQia7RZYu9VIrKFKPSwT4Tawn6c0F0DezRRUWW3Cl/7USXiU3//4Fws+WLtidZtiF9PwjvJ7Z1te/FRZrS53ZfhOhaj0NHegAAIABJREFU0CciwgIBEAABEAABEAABEAABEAABEFhqApHoypQtavmzEvbu4mWLVBBN0Z8rEE6u8jFdupgtW+yFnCyx4svI47dN++Pzybm5XRdnkdHl5Q0Jgu26aNQO2UGxPzQSUZU9uvicfpwROy8mBJLbtVDYedGcsjZ9ugxTIu36rK7a3Rchupb6uYngQQAEQAAEQAAEQAAEQAAEQAAEFpSAFV2zKlu0Umhm/bl6eWXjn11/Lj2RvophaSa7sHMQXW6t3a6LougS3qwVXVQeRYIs2FHRLzwUZqRxOytTtGeIpYuVosstjfX5kgSTOdbuemglnItC/4trNE8a0gfv94cHWV5OrpkPTUYYaWRfUb74uhOOX9BHAsICARAAARAAARAAARAAARAAARAAgeUl8IxjXqiDd/JkU+Nui/3JcfaTEUK+P1bYiN7LIiuPDEM/ThyH/pzLpmVpRG+CD15Sb7CoGX1ix0U9XIvo0kKmlNXFektF50wkupwc4iJsjRrS63hWw8ywWZcvQnQt70MTkYMACIAACIAACIAACIAACIAACCwugUB0zbpsUZc+8qwoSXQRQeZTtYwIy4iuQBJF/cGIzQuEGrNP/aWafMdFJrqqJFcvEfndMyija1FFF5VeOiuKrNZlfrHyxCE7L9p5vKsb36fLMB1WvgjRtbgPRUQGAiAAAiAAAiAAAiAAAiAAAiCwvAQ60TVV2aLxMqHICjK6NsWf+3JAWhI4UnSxGJxjkt4XMqboOvy/j9xxcSOJLiqvmhrSmxOd7GoRXYHII73GzBhcallFRXp86fJD80XuIuAZXV6UubS3/tj+nMbyRYiu5X1oInIQAAEQAAEQAAEQAAEQAAEQAIHFJUBF16aBZYtWBsVZUH35oq3ZS4guXzZpZRITXawJfSCiSOniVP25JGE3uhH9RhVdVHrRr8GYPl0uK6uiT1dadIWyy+68SIWZ69/VB17s06VLIOt2X4ToWtyHIiIDARAAARAAARAAARAAARAAARBYXgJOdA0pWzRGKMri4uKLN6Iv9efSBYpkXO/J4t0W+xD0BZhKdEnCbmOIrt79BBKKFhOy3Rzpj60N6akAC85dyz5dfVaXzSmr6dNldRnNPgt2giR9z/S4PbTXvgLN6Jf3sYnIQQAEQAAEQAAEQAAEQAAEQAAEFpXAM59nmtFrYdULpt4ahf2wSNmfK+JLlSlG/bG6VK582aKVY1Zy+Z99E/eF7s9FjRuVbracc0gjejamvYeiHl1GGgm3GBdTQjN6Kpz0CKTsz44YdM6aQUP6IIY59OnyvOQ+XQZDunzRxVuz+yJjamUXRNeiPhIRFwiAAAiAAAiAAAiAAAiAAAiAwDIT0KKrlM3VmZVgB8V+xZlsLiuqeDZXILC0WDNj0SyvaAdHVrrojq0oW9RjmwnYPHTO8ApO2YjerY2ILqkRvYkzsmHRrUVbirldF724YccL9mteOy86GdSHJPXqGl2+GEi3cNdEKuzGli/StUS9uxIZaLrs0Tf90hTce1u3KoiuZX5sInYQAAEQAAEQAAEQAAEQAAEQAIFFJUBFlxdIvXyyGV6ZHQyTzeftOaw/V23ZIhdEUTZXL6/8pozOmAVCi0ouN2Z/McSdD4lJ4rHG55OrSs8jwooz5WPYESLJ1a+P3zfrSnRJAqk3QsmG9Poc11zep7IF5YLmoH4omrVFs7Qs2rbdF23McaP8ePdFFyuPRW1Vr335ixb1mYC4QAAEQAAEQAAEQAAEQAAEQAAEQGBpCTzz+S8KSxS1YPHZRVrUFMoWU03ozVDLXrbYA+mvcLhWctk3ougy0sdDGNOni0ovcedFMtkY0UXnMbHnyxcjsdVnZrlxpPLFiqb0EF1L+8xE4CAAAiAAAiAAAiAAAiAAAiAAAgtMIBJdvExwZUVH7zK37FoGNKGn45heXGawqcsWo3hnXbZoJnRXmWZnLV9GV+9+kg3piXBi/6pL8/zLZ085KSR8EcTyxQF9uugctGQwLDXkUssGxN5fDcsga5rS25XzpvRS+WI362te3jfHW+CHA0IDARAAARAAARAAARAAARAAARAAgWUj8JfPN5u/zbJscdMK749lfza0kqIr1ZvLnORFmSuPFPpw9ceG88yuP5eeh5cuzqARvZ7nPR/+lFNCYjN6Y3+ie3KR+nQFgipMD0uWL9L49Sk2q8plV9laQbN0L6pW2c8WzbCm9FL5opuvuzJCPPY9iK5le1QiXhAAARAAARAAARAAARAAARAAgWUgEIguSSwlmtBbcZQqWyw1oSf+yWeLbQqzx3x7LyawiOQKxFKmlxgVXclm8Avenytg1uk0KroSTmuuootKJV4SGH4WfjVKWV1cKOmxRvTpCuWXl11B5pZzZV6CSXEGGVz9UDVZXRBdy/B4RIwgAAIgAAIgAAIgAAIgAAIgAALLRqATXVNkc3HxlRZdldlcxmDpV9SIXsrmIhYoKLMcVbbog+ByjDaFX5OyxUURXVywzaJ8MRiTZUm1ZXTp9C99U3mp5UVX+P5WfagXakLWFxnHZZWx94KsLtKUHqJr2R6ViBcEQAAEQAAEQAAEQAAEQAAEQGAZCHDRFUilQhN6K7fEfzY1oe91FpdSLaJLyMaiOy5KmWf8+sTHkL5bwfjszLXozzVGdGmh4woDzWJCQWV80BR9uvjY0Tw9S94Hi4qjYAxJdBHbVt59cdryRRdbQ1P67pxXv+y4ZXg+IEYQAAEQAAEQAAEQAAEQAAEQAAEQWCoCz/rrF5t4J2hCr4fpsq38YKQs0UojOaNrU0PZopnHhu062ptlWFlmrwIvZwxSsfylkkVYhehi47X256LHBzeOECd9S1MeWrqo5Uyj6IrOIf20cjsvOhHUr65adJkTk326aDyzyOrScQrli3Q9kpxLNaV38fYHvPYVL1Krq0a64QUCIAACIAACIAACIAACIAACIAACIDCewMrKinrm815kBtrESgQz/a6cTEpIJC66aLN5PdXUuy2SQaWyRfNx3KieEpxCdHFppccsNKIfLboi4SPdFzNuSG/kj594o5QvmnWT3SWlrK5EU/p/efPr1BWX/2T8txgjgAAIgAAIgAAIgAAIgAAIgAAIgAAIaAK73WR39cQnP0PuhTWwCb1xZkbwxHJpRv25NkDZYiAIe3umM7qo6OLCyd3nsxBdbLJa0WXlkOzjwj5YNKMrOG+NyhcjsRX0+nINuMQsNC3EfIqY+sRH36++/Y0z8CgCARAAARAAARAAARAAARAAARAAARCYiMAd73p3dcRvPSIQXSYLKcx+knpd8Qwon0nlagqrRdfUZYtGtvnUsZZsLnNad/YEZYsuEHPBpN0exYyuirJFPd4Y0cUFWSSgSON0e7/xckeaxoXyRS+6DFvS40zI6vreOWerD5xy0kRfZQwDAiAAAiAAAiAAAiAAAiAAAiAAAiDw8KP+UB10m9sZCWOzhJjocronVaYYSbFQdG2UskXKMJBapHQx2rmR1zXaW3IhRFdva3hPrUB2VfXp6pVacCypcyTfw6D5vT1+Dft0OflHenVFfbl4VleiKb3OTmNZXShfxEMYBEAABEAABEAABEAABEAABEAABKYhIJUtJrO5jLkR+1zRbKkhTei1Yhuz22IfG5VLU+62GEgr0l/M2EGS9cWk1az7c+npqzO6jLGJ7pwoQ4vvvljK6mJjLlf5os650ky8vLKIfN+tVFN6Scq594jsou/xHSGR1TXNwwyjgAAIgAAIgAAIgAAIgAAIgAAIgMAU2VxWApXLFqfpzUXdkpdqcZP5uZQtZkSXy9zKZHPp06WMruSukP6eddl3Y0WXljy53RdLoosJtJmUL2YypHj8s9h90YkwvQkjF2NeHhab0nes+10Waa+uL37uU6r7f3iBAAiAAAiAAAiAAAiAAAiAAAiAAAgMI3CfQx+guv9nPYsTJysresBg50IidLr3pd0JA9E1hyb0gSSS+omxmOmaOLEpdlvk0qpGdLXstsicmi8ztaJLFD58pUJG1xDRFZ1TVb7ImszzzDESq1QaSJvS86wpGs+sRVc4F9ltMdGU3hyf79XVHQDZNexBhrNAAARAAARAAARAAARAAARAAARAICm5GntzWXlUzuYyGojKGtq3a5Zli1RwSY3guQDj/cTiz8n9Uypb9Mvu107Su1LZXBSSPFWQBeZKF7l8SjitqvJF3pOrEzG1fbp0HKRCMjwvFEPmWKGcUurlRfp0Beex3Rfd/PZ9/jnLUDPzp8sX6VxbV/vjRmZ1Sb26unm+979nq8+edqq64vKf4CkFAiAAAiAAAiAAAiAAAiAAAiAAAiBQIND15DrsQQ9VB93aNJ+n2Vyl3lxW+BSzubphV3gp4bSSy4RuG97XlS3a+DmiqDl87W6LTEjx7KzB/bkayhZ1CE0ZXdxCERq0fFESXVxKzX33xUL5oo7PCShv23hPLFulGWaNVYquLgbSlN4ymaJXF43rvHO/q6XXj35wvvrZT69Qq325I55wIAACIAACIAACIAACIAACIAACILCRCaysrKgb77qb2nf/A7TcuuWtbuvLDt3GiEQUkRLA0k6LXHwtVBN6IqGibDF2Q8yrbJGLtinKFmcmurjU4nKISiXHc63KF4m8qxJdJnj9apVdqab0kQSk2WSFHRgDliQuvRY3ThivnIGW6B0miDk/rs1Q668iiZv2EEutz8fB4/OQQwlIvn1090kps4/eT8FpLAOQZe7ZQ8U9PaONE8o7f6Z+gUiZiPzYmmPczTjiN1Uye7NhzLpYGwYccugUCxkyL84BARAAARAAARAAgfVCIJE1Mc/lpcqoWmKYZhlhOZU0f02sY46JzhUWxqP0PZBYOVhQTkZWw8YMBEeXHUTPExuIk931nBCy4wtZRXY8IpR4zHZE+r5UBtjNEgubrleWmZ+X2/lj+/i6vlpkZ8OoLxcrWdRjuqWVd1o0x7uF6njimOJYUyWLdLyQTT8Gy+YK+Jgf3IVfFNEVZY5JTehZ7PS7SG9fKslmktHVTRz84Ss0pNfH0Cb2CdEVjdWdVSEcpCwp2qcrGHee5Ysjs7p43LqBvU8T09c8yEJbINkVxBZcw+6a+tvVX7uwUb85n9zW4nULBgp+H4WnysIrvt8ElZTqVdf4Pv9lWSuLao/j4y+KFIvjwjsgAAIgAAIgAAIgAAIgkCcwL3klRVEjq8zf4mU5ljsueT6XUSzI4LysuIpOdG9EgssESj43/xrGKIksfVQ0bhhjP1Ygmfqx+jPnJbmCNXH5NqCZO5VZ88zmMtTnX7bIbpPwnmHSyl9Tfx/ORXR104UliImHjdQXK7fzohl4sj5dejipDxcLN2pKP6PyRR9PuYRxnlld7nquM9lleJOLPUJ48XtJjzoiy8tGlZJRQyRV6zmtx8vfcjlbLfFEmNvbSNqaG2pMBAIgAAIgAAIgAAIBgUqHswbU6uRSLrBaQWXHaD3eyAA5zlq5pcdgi6jJ3pLOkzJ7zHGhKDFx+0k3iuRy1ysjuqSMKP7emGyu4J6Ryin7i+MT5IILpS+az4LrryFfT8U9yTPQ+L0cDVFqRM9u4irR1difS8dIe3R1bwwVXfG5PGPGwA0EFZNj1F7IGT5mlmicQiZNmF3mV8jfp2vQQwoyLZk9ZU4IYvOnC2WBI3p1BevvMrq46OGllX0Zo42HZ0x5IVjgO7aM0Q+fEJWWU3yv0GykXDlj9j7kmYDsF0XcWy7OKLOnJDXQgKyuoWJq6Hl02VOMMUWmGLsU+BEEQAAEQAAEQAAEQGBDE5i/vJJwDxFaXATwcVvElh6LDVCbvSWdO6Xgouv0HqJcqmjiIiV8Vr7062zJ5ApZV5Ys9uWKwbmSSFr0bC6zAF+muYRli/y7MlV/Lj3urESXFg6BrYrlRW1D+misGZYvUlFCZVdRJrm1pmVXkGEmSaNEpprjKGWkNYguw5FfBynefL+ukBHtBVbRs8uc7F5R1p3+pL6U0Q40ZYZXfL+ls7zYcuLfjwPEl1/TdFlVUwitKcbY0P+9hsWDAAiAAAiAAAiAAAiMIjBUPNFJpxjDjlczVqvY0n+kC5Rqs7fE84XeTOa4fAaXPibIphlXqmjn5Gup6slFFhZnU1VKLrMgt25eSmd56PdJPy3al4syCco9IzEW9uby51mG5iLzjKlobSOzuRw2Fl98bXk89Oe4FNV/B8jNGpXYCuclMwTJ/cjv/7lldHUTt5YvNvbp4lOEf2TXZXWl+nTpsXt4tVldYiYaz5xagqwuyrUls8vLNn/X+eb9dbLLcHeGzw0kl6GmZBe9ekI5LCtp5DI1l7UVjmzCa8nysgtqzfZy51XW5c1aOM16fP7cqvl5EWOqiRvHgAAIgAAIgAAIgMB6I1Ajd+a95lnHVDt+8bjUH+wJYFNlb3XDiyViQg8uG4okuPg45vRMFpf/WJBLDT256DiRsJmN5KJrrRVdvlQwJbkoL0Oaiq6S5AqOb8nmMiey+eRyWkneST3XyJD+7i2VLZLrmLwn+XchUzMdlNXyfmC5jK5ujuTf3q2iSw9W6NPFJlzr8kUXDuvZlC9f7Bca7MporxYpM+zGnCqrqw+0mHU28U6MZqVEOkac+nWzEtBwEwJzjCy7+hmEDLD+LPc1SJYzWjbFHnKhnpJkVVGSpbK3+JfV3Q51GVtDJM+Qc1Jh5t6f1zxDYsM5IAACIAACIAACIAACy0ugKI0mWtqQearPGSO2uvVlGsvb5UfZX4VzdNZSdIyH2Sq4TJiFzB1aqkjWtaiZXHRNtZIrPGd+2Vx63gUvW3RsZtSfK2DQ38pR6WKvFohASDxBkn/Up/saObFDxcegPl19lLznkiTfhD5bpd0XKYNs+aI5UL/CErxxvbroePHYpIyuvzS0tHGZZZe4VkM3sSujvTfley66HegOlZwdvc1be3m5MDL3Phm/Sm/NMbtrPcmq9bSWif7bDcOAAAiAAAiAAAiAQBWBanlTNdraHjTFWqrHyGScWAq5jmO5rC13flQSxvgKMZQyuLoRgowYoURRmp9mcZkx4kwhmlwT9OMik248yaUXr5Fa1DXZXOYsxljK5qJsg8yqYdlc/tqGd28oNcl92Fi2SO8dusboyTGgbFGPxzO6ujerGtLrA+M/2bOlYotSvtjHXl2+SNZaFEnZXl1C76s1zOqil3AuZYwVHM0hKWE0nfDi9zmfV3/BCsLLfgmTciW5jvgXf5X8Snzn4tHkd6aQQFOMURsvjgMBEAABEAABEAABEAABS6BaPGWQjRqjQmiZP9jzryFiyzHgQ9dkb+mguKzwA6UyuMxpNFMrXJ1c4uYBSHKGr8ONEfTDok2czBmxTGsoV+zXH8fTj00lUtRnq4+Yvy9ksNWWLUqSS1xjpjcXvaRDsrn4tZW+Y1TCyZ+zm3GByhb1+hZOdHVRBYLAAyz16TKnCvKNldTpEXV2jzC2kG22EbO6KEuDRJB0/m2DtKaMMbq+3Vm0NjG+JvJ1T90XYVClkkYatx1RlDmV0it1D9p7LjsHe1YwvMKnibcqs8FyAy6q0FrUuOovDo4EARAAARAAARAAgeUkMEoSzXDJk8RVKbHoMkpCyx47Rmx1Y5RKE/UxqWyayQRXGMnQLC46yrSSy4/sY+uvQEPzecpy2pJFGp+Ja97ZXMHaajIA3TFyI/owAZCJVN4vy9k9/w1K3rPBlyz9LQuyEQW9XBRd+o/tVLpJa0YX+cs9EBCV5YsmlkBPaQzpDCBDSfzcyq8eZDCu+8zKHS7f+vdZY/WwfNEv1r8vvTewVxe5MFFm2kQ7MVJ2U8gucvmZzJR55q8tuTbSNcz05JJKGu33qbV5vT+PfiPDf6/J+HLjNEiq6iywdGiZL3fupMr11Q+BI0EABEAABEAABEAABEDAEVgrecUvQa3M6s4TY06WXWX+gE/dB7XZWyaYYJR0iaI+WOTuz0l9LmReCY3pXRN0EtEUkitkHpb2eUdTv8MiHY9LruCztczm6q+t90Y27Su+RilRl7pX5Qw9+dpHt9jIskVzFwrfiYqyxdS5oujqDh5avlgWBeYO53/8h1k9tHQt/KZPJrpMENmsrogBywzL7SBo4lz7Xl3BteT9xBqa0/e4Rmd2mXjIi5X3lbK74ntnuPDya4rjKd7H4sl+nJyEqspKKvSbS/3+S72/KFKsNW4cDwIgAAIgAAIgAAIgAAKOwIDMK06vRV5F50rzV8SUE3fZeGoyb4RG5F3c/NQ4hukEl54v0XDefOZfiyS5DCffnN+XH/bxTliySK9JNpuLAMv15rLMdaQsTjeEIOXcmtnNPZXo4sLKX+9wwmJGV+Z7Vcrm0muUShe7D4aKLn6u/pn+0T5pn65+Nl5WNrZ80QStr4QvxyPvCeWNuab0loE/bVivLsqSNqA3cZpXtjE9OTDoNeYEHhuDiTqPJVHGSMcXyhiD+Ol9LvSyyknE6J6yV4rZHEmK2mkj0cpNkHSNOWP2cEinPjK5x89LlNwKh9kLlPlovNIaP0IyvOEfNGS6DZ8EZ4IACIAACIAACIAACBQJVIid4hgTHzBGXtlQsllkDWsuZaO1iq0uvqwUyGRvSeemMrjMsfr/D65Ocy8uP5Aex47GSzilnlb8WoRCyIfF+0e1lCuamEgGGJdZPggTvyCRpPd9ryy5p5jFEl7LrtdYmI3mvKWUaSc1oU/JLH4dEusQ7y99bO4+YF9gGsMClC3qNdWIru7AqcsXsxldbEI+92RZXQ3liy6kBcnqMvE4a6jvtCrZRdthUZm3BrKLxmwWQDP5yr27AgbuuxY2rI+PCTWO3NONfXGZ9KSfZrOzMnKmRSZVZYCxkHPSzR46aFyOhs+Ln0EABEAABEAABEAABEBgAgIzl1c2xgaJ5U+pj26I2NJ/qEvZXJXZW/L5pTK0NsGl52jN4jKBebnjrY67Y2Kx5BvPh+tqKFc0werXEMnFefIYayUXj1+UaFKcjpv/YhWb0PfnpGKnX9Gpsrko3+C7wr4ExWwuEjt/lESZiontH8aLrm5mnlGV6Y+kA500qyvMLjLhyBoh7qFVLl804ca9usQeY7w0kJQv0rjGZnZF6wiyj8ytkM3sEvjrNY6UXeG8fRw8K0zI3iK3RL53V3BgqTdbqaSRDZa4b6JbKSO97JdwqPxy5/Nvc+HnKYTVvMRY49JwOAiAAAiAAAiAAAiAAAg4AqVsKX3gAHHFEVfNQ06q0l7ZUqz0CJLQSC0zV55ozqGyyy5gmODi42V7cZGAU5lcKdkSlKm5H8qSK4ivRXJJsQpZU9I6JElHr9Xk2VxCrPotdoOkstLcHSBmhZVKW/uzG7O5ovtG6s9VWbZo1ip/d5KiqztpaPlisb9RjejSAci9uuI/7Otk19im9C6kVFaXgaZfoYwa36uLjhmPT0st/RO3RXb5UsFQEHlmEmO/YJltz4KIT31cSXZF1z6d3ZXiQihEDid1/9BfcMXSRh4j31CBDFYUUY1leS3ZYHRN9t+L8Ugn8fcaY64ZsuaYSWKvmQjHgAAIgAAIgAAIgAAIBARa5c9k+NZAXPHYq0QWPakQc45l8Ie7lNVVyI4xYaTllf60pUSRDTc2i8sM58yTiTYhWlolFx3bjVkhuYIl8lLGVGmgPY6spV50pUsW5TWwrDYhs8+Lt/5GFEoVxSzBguSKrw+50XnZbEXZIh8vuB/s0JWiKyW59Jip0sXuw1hYZR5XM87qmqJ8Ua+JSSq9okJTesrCJGmFJXYBKylbimR2+fktyzn067Jr5NlIXMp5S2ex9P90RZHuBgjXkRGNdg4uu/qYHAUhKy0Ior92qWb19NryfzdzxBleuePonV4lvfxCPKMx8isMIPPFy380VorJjAaHgxNBAARAAARAAARAAARAYDSBKaRbs7yiUTfItzFSy04ZlWuJ89fIrW7EygwuduhQwaWHkbJ+rIAqSC6eBUXH8wlefYYX3/UxI7mCcRjoqftyhQy85AreT5UsmoNcoqIkQkO+YVbjlNlcfSj+m7Cg2Vw6zmURXeYPbs90llldwR/3QqkalV1O+FCp0ZTVpWfTCwskHBNEoqCTxJ2L17AKOHVCb8ayK1qHX56JZ4LsLj5OP7C7OcTsMv9pz4X+phJY8UH7w6WMomxyU0EAx1GkS2+lY8misx/XfjiFGKudq/Y4ZHHVksJxIAACIAACIAACIDAfAlOIpqkjHSWuaDANEsueVsMjyj6pzFrJz5GXW925fppKwcUzxrg8CgeVd1TsjxEFl/7MrEqWMETqBIzS5YpmyPDzXE+uYG4POBNTHGtNXy6KyrOYNpsrklxkUjlTzt/sqUy68Osglbv2Ryyr6OrCn1n5ohlcv8R+V5ZuonyRn8dlUfy5v1zzyuqiMZg520sY6TWQ4m4qx0yVXE6c2RWvu2c/cXYXvz/NzRRfZ38rcY0jZ3nJ906sgHICZmr5RR82uXubH5f8eeLSw0UUZNUscCAIgAAIgAAIgAAIgMDCEJhMWNkVDRBXFEaNxOLwxkotH7pEYxq51c0RrG1CwcXH5qWK9PO4b5VZ/eSZXGbQYGy35EKZHxdyYVZVfpfFcC2C5NIH9GtOSEV7Cy9qNpdZgtDTS7h9+fdp6HclV7ao48lldOk/qKPG8olnoPCH8yS9unhGTENWV0pEJDN+SAkjz4TiLKSsruCYTFaXPs5JJ8uznNUVnieUT4Ypb3pgV3RoP5tMdvnRq9YSLrOPLV7DkP5d0n06RHgZvvH9XdPTyy0vI5Cq3FLiIP5dSnwLxbcnzYiqWkRLdDgWBEAABEAABEAABEAABCoIjBRWdIYh8sqen/wDuyK+3CH5mFrkVhdpqYyRfD4PwcVCaull5bg7GdW/w3pkZXty6fnzksscwrLCUu8N6stlIERzMMlF46Ali/3ZZvFCuaceptBPjH/LUteBM2dDxzFM1ZtLnCiaziBINKF3sb/nI5/u6tmST5Zq0dWNUCjTiv5y/+OuAAAgAElEQVTgFjK69DC8t9EyZnWZhehXmImVyuryJ9SUMNJx4zn6y5kqYyQljAHvVIYdk3LhdZT6c8Vr4fGGlZ5MeAXXO7w3g58iCcqa1pNrEM3vEMlZXsLtHFzL+Asjf4cGZ30lv5EJG2fXk+kLlhuSfzapHGuZuPVYiLdWYjgeBEAABEAABEAABOoIVIibuoFme9QYaUUjy/7hPJDFMLEl57TJjcTDFQQ/CZOXMriiOYLStPA6hmOxvlNUQlCnVujH1c1AS/zsjF7I9O9USi433kjJReOaW8mimXThe3PpMKcSXQ3lvKXv66Z5ii4jD5gQqJFdjVld+R5N5stRk9UVHMd7W1nfwDKk9DnOcKXmqithdPOzkr9U7KmSTBMTi2Wk7AoZ5mUXPTbMlPMPSzH7b0bCS7wPpXvT3Cn9/RL/gs7LoIw8bpQzjYeHgRZOHpMpNuY/WZZGpI1ZJM4FARAAARAAARAAARBgJWjzA1LK+KDZL61RtXqvlmwtGktebsVCTD4+StkKlhs1me8+HSi49KkFyZUqVTTT2lilzKo+7E7+ZMrkos9mLLnkuE2sUl+u4P0R2VxRb66B2Vw+nlwPN/YNmaA3V3SvsPuOfyf5d2606OomqM7qmlX5og6CZv3wv+WpVJCkSz7bRi5TNHO4z+j8XH40yC7aq4uO74cXShjNRTDxSI3rCY5IdgVxx2sS+6NVZnYFfIRdFc3UQnli1CTfLyBqVh9d+7YMr+j+rSpNTDWET0svu4Kh8qvufP5159+D/OdVnzZatbUSZVVrwUEgAAIgAAIgAAIgAAJLS6AoqvjKWu2TQGbMEHWZZekOZLnzfVwD5Va31qBaMRZJGkeD4DKHk75MTVlcJiDXeyoAPwfJRdYqlSvStbnPSbmi9LkFnFpTa8kivRy53ly8z5gcW3izB9eNyUV+XdltEdwj/VUMBuclpPbDYm+uaCI/bJPk6scpZnR1x1WLLn0wFxHsZ7EJklkElwTBvAuU1UWZ6LCEzCOe1UXXJzWmD9EJsotgXATZReP11y2WWlzg8etck+ElysboPiPfL6GkUbqPpSo/SVTJ8orf18Jvyv6tsfJLGnmKjKhGp5VeYM0nc52sJiAcAwIgAAIgAAIgAAIgsCYExtikxoCnmKpOYEmBjZVadsxp5Jb++19qdq4/oMIqXAsvUTSHjxNcdEqe4UXHD/3XRJlcZPJmyWUgCr28rJzz7KRsLql0VLwmE5Qs8utEr2osumabzSXFMrQJPb2Pk4+Djp8uXexemT9EpxRdZqoB5YssxmiI4I0ZZXWRGKLdKBuyujyDVAmjPqK/LOSfayS76DXT6xay61r6dvF7IHU/GApCRlhtSWN0z/QsRcMVf03qpZc9N511SEcfJqnSpZA1v++HzZkfGe6qhjyOAQEQAAEQAAEQAAEQGEpgClHF5x4uruxIaYGVWmddtlZ3dpscE8eVdrpL7OZH4+WnDRVcehWJMjqaxRUeR8SZKzUk0ZFyxZwscmOmyhXNAXrgqSUXGXqmJYtB7O6WlPiVe73xUlF+7eiaemjBLT60N5e503lJbe7eD79ZpbJFPX6N6OoOrJZdQ8oXzQT6JZbS2XUta1aXsL7aEkbKRJ/DShijz8k90FrGGIzF+oxFnw2WXQRGtldaeDNPKbzEdYbT0YpL90lKFqUlUn3WF51+vJQaJ8WmjYWDxc8gAAIgAAIgAAIgAAIgMJ7AeGFFY2iXV8HZlUYuPqwsI4rzJEKvyd7qxh4luNgAOcGlD6Xlk5mSuVQmV1VG1ISSyyzPNdJKyLEwmyvuQcZKMUslpEuSzRWwoXJTEq3sxhdFVeI7NKRsUce2FqKLigZvEcy/ZcsXzQFEPIQPyHJWUb5XVzC/zdDqp5D7eLFYZlzC6OJbFNlFrgd1kLlSxvASDu/fJV0rezeEspT9EpVEbNDHTGriFf8izsmollLFsVlR46WYJjn+vzRGjDDNGkYEgFNBAARAAARAAARAAAQmJTCthBoS2jhx1c04dg21Uqs0V2vWVnK8SDZ4rtEcTBbZI0uN5uO5cyV9+mg9dCjI+tlsDGI2mjkmknlzkFxhvLMrWaTrC0pLHRfGKZlFJ1/nhcrmMlDFL/rMRVc369CsLqlhtfjH7bJndWlIQtlk4y6MZJiohNF8tgaZXeYG0K8o686t2d+bJeno15ju4Zbq38XvRamHF4+ThE+DjL5M2YxCe3TCCw2XX4WB85XF4gMh9eZ8pNLairMmIDgYBEAABEAABEAABEBgAQiMF1OlRYwVV3b8fPJWeR35MsZkepa4PHH3QXpkRm51h9UIrrjEzE+QzuDSo0fuoiRXfJJXvh9XP7oOxI25oJIrjNGwk3eNZJlhQXN/QQiagd3FyF+Lft7o+GG9udJriG9T6X6vLVtsllyEic/o6t4spJcMFV16aCFrZBF7dRkMzujoK2X/bJeyuujaio3pyWBRWWHUk4veJImeY7PK7OrvBRcjvXYF2UVvI0l2BXyDW07O7uLH89sovifDHmLR+bn8pSHZXvQGEX79tJc7CoOIb+Vl0thMsVwU85FltRxwHAiAAAiAAAiAAAiAwHonMJWkkjiVqw7L8irHPxV7dk2FckTz97xYIyaGki1PNINF49UKrjiWuiwuel6qVDEYO1XyJ8ieYL2NPbn0nEK5YrhOKpgMci7xoh5gI0sWA172KguZdzX3W0k49reEv5cKpYdeNoa3X5XkiiZLThv39eJ3O70XXOlid9Baiy4dg4k2m1mT6dXFz9WKLdO83LJJHrM1VCmzLmGk8YfLFJrTU15MlMUcPFMpAyol83KyK4jVX7j++vm7TipljK6x8zYTCi92TyelE/+CZL4LYzK+pGsiTc3fGy+W6jKsZinHataJY0AABEAABEAABEAABEBgDIGytLKjz0Ze5WKfidjqJhQWnVpd2OMqzhLSw0VNwv2q+Bp4PyoeTrzmcaWKND499kSSy8Tdx0YkV/C+TzdzQOxbxb5cJnD9Ku2yGFyDVMYWAz02myu+ruxOzoiulOSi7Oho8+jPpeduEV3dCRsuq0svOiG7hN5O7q2KEkYzNBVYseRZJNkVXH/iToaWMtobPpSM7l33feCiJ5UJKN+fYXaeNCf94iWVUMICVYkvE1jxNV5oCTuaFmetPaBiAYWhINJqWeM4EAABEAABEAABEFifBOpFVG794yRVauQpssaqxsiEXyxFNPZAXEKV3CLnR3IjKJULp5hKcJnp42wonVFG5g+FnIkl+nyJJVfAwWVlxevkO0QaDlOULLqRDFsusujNtCzZXJxLILq6D9c6q0vI6NJhRTVrvLeT/zLGwqAuq8ssX8goqmhMT2McUsLo587JLukzV7+oAVhOuSy2uGyS9BbrMfLMtaTQaShl5Hy5/ZlSeEn3jJTJZu+apmyvwvdkSvlV+k+cxZZjpeiHfD5euA2ZFeeAAAiAAAiAAAiAAAjMRjDNgmuVcCpMPMUY0ZaGZM4qqcX+eKchV4stMkZWbunjQigzF1x9bHLPKh9Lk+SSBFgkcuLeVrRc0YQlZbyxPlphzSWTeC6Fyy2klM0VNvuXYuyHaihZpGvx/z5Nb65g7MK9Y26vhnJbPl7uyyR8T8KMrsIf8PYKVWV1Sf2Oavp06RjMTFEmT0Z28emk/lAzKWFM7Ng3heyqFT/6OJphNaSMkVx7qhK4HJqilDG+tlxaUqHn7zr62M1meTEXIvbxcsPK4mRK8cXXK/Wrq/oFP4HjmUKMVcUqHLSWcw+NGeeBAAiAAAiAAAiAAAhMR2ASeTQwnEnmHuj6qqWW8Ae7XW6T2GLjtAiuvNwyuoKHmSpRNMdxqdKviJUKSllcZjYmnCTJ4yAJcqhFcvXLq5Fc4drCHmdSOV9JctG1UsBBBlzmuqbub7msMeYkIIyyB7momlXZIk9aFAUZfw7w6xxldHUnbICsLrPMsuSIRE8PlGc8Wc5UYlDZJWb5COV//riwJ1d4WRKZXbOWXX0QtWvRh3fSLciSC+9ISUg6luJ5aSkmXtOC9IrOqbgn6Aqy7qn0Pcp8PliGVQc38L8QhNMgsKZjiZFAAARAAARAAARAAAQSjdZnAWaguKKh5P4IL8q1TC3nlGIrkijmjeA1N8Gl556mVDFYxthMrn6wIZLLLEnIAGN9uehxZgMAfwlmkc0lX9P1n82lOQ8RXU5gkK+G+Df7nLO6jLTwQQ3N6qLyIyrhC9YcTOY+8eWDYUC1gmhq2ZVcT6FU01xn82otZQzmZI3q+XWKxmeZe3H2lkU9vfSS1ir9Ts3JnWLi1YBmVSWZNIkYExcqvYn3QAAEQAAEQAAEQAAEQGCNCUwgqaQVlLJHivJKHDQfbO7T5HyJRuV0+lxj+e64IXJLOo9as5p+T3J2k4+8qVTRBKRPlrOXzLiSiArlUl25YjhPOG9VbzG7TCK6SpJLz0nWmVoPv/Vasrki5zqwN5d8f9SXLU6RzaVjEEVX90kpGyWSEcI3ulJ0memi1Bs9YEv5Ig87lgNhry5x3n4ZyTLHhsb0Lh6h71cgJpKZXUK/sODS1Gd20bXmyv54Bps+j1zaVCmjOS7sF8b5+s+l0kQziXTN7PSTCS++KHvNEx3jU9l7/I4vyyjhO5J6a4AMo0OVYnFMa7rkN4Q980OLFnHmEWACEAABEAABEAABENiYBGYklmYFsySs7LyDxBUNuqHDfglhNpYhYquLU2yLlM7qMUuLyxP1u6wnVYghUaJoTuxHTZTMFTKf+NzBTGsmuQynXCZXf4RZe5C+Vc7mmrJk0c+/NtlclEPwfRe+O82iK/H9Gyy6ugBn2qsr0adLmpdLuVlndZkYzKu1hJGeI8muWLCtoewywZp1kjtyTHZXcP2qSxp5BIIAdQE2ZnnFQ7uVprKkasVXdH8E3+rwh8H+ZqQQy4SULO3NnZMdb9mk2tCF4jwQAAEQAAEQAAEQAAGRQK18qsU3WlLlJmoQWHSYksyyxxZjHyq2uglmJrfiwVsyuPTZYb2eQ1eTxRXMnuCTylILxVFQM1jVeD6KnUiu4DOhHLFVctHx3HAVpZnBfSjykUVjazZXar0xIxNRbRP6ZsllJpSfNcmMru7wdZrVZZYmCyRKqTmrizELShjJZ2IJo/7czD6Z7KJjEsmQW7v9LC3wPKEx2V0mNLfg4OZMi0qyoP6MdJZX+VjO2gWRsE658sA4IzGvrmozrvi3drAQk77+M5Rk4tNmgjeHcptgagwBAiAAAiAAAiAAAhuaQFHMLCKdgbJKWkqtwOLnFrllmqVHY6V2nqsQW91YcSxUfISz5Y7lY6VESbJ5uR7AzCfvuCiUItLwKqRPqoxxyO6KMbv65vPBuS77LF47FTZTZnP5sTZONpdmPkZ0aVEQCBThkZBq7l2zA+Ocsrr0OiqakEeZTGS5khhKNabn8800s8tcJP0K40mLPlGEBbtL+oWPze4K4mLXIKpmja5RKXvLxhnrIel6JyXKAPHlZo4XUf2fAFNJnUnlWHX09c+CMUPiXBAAARAAARAAARAAgSUiMKF4GrPqodKKz1mUWPSEBqFlT0tmwCUWIMUjx1hTmqh1QbDkbPaWPjwuUTRvhxlU0vr0MaksLYFjTT8uPveaSq6eT4jC2r5EphVhGq0llcmUvM8WKJuLrcvdD0I2XPZ7nnme5EVXN+ocs7rEP+wTsivKrmmSJH053sisLo2nJz+mhNGMU+hvpWMdWMZIAh0lu9j9kFt7KWvN3rDicU3Xkl4F/zWo7eclxZF7T39WMEc1jeHTUm2YlppKitX+B8OwKGtHx3EgAAIgAAIgAAIgAAIgYAhMJaVqeTbJKzpopXiQ4iiWdI4WW55kVB4mxj1ecEUcExLDHSdlaSX4LpzkIjeqmKGmPy/35TKHWVnYL76yRNOiktkkeqNJlX9clKVkZ20WoVxHG30NmssWC9J8tOgyf/dTASN8dWfQlJ7PawQEz/DxscQiYIaN6VkszZldZBlTlDGacLYGgsaXVeZLOAeVMvbrT8ouc/GCVySmKnZqdOsKR8qOG98mddle8lxkqgrzUyPAaPBTy7CaX+7zFmY1MeEYEAABEAABEAABEAABECgRGCyoSgN3n4+QWHT4otDSc6UDSq0xl7WVCr+lNNFGFGCoyd4S1tPci4stoFVypXZWNMNS2HGWG/88OXeuDLOPX8zkyq2tYd3++kiCcrqSxYAZu0+T9+YA0VX3Pckr8LLois1A9M0riq7EGNIf/qOyutg8+dK3OKvLnC4bC7Gcr5+PnrGomV1ubVSiNfbtiviUyhltI/vgOG64wtupRnilbklJZtLR09c2OCq+vzNZjVViqEKC6TWVUsWE33lV84cQan6VL9wxzetcuBUgIBAAARAAARAAARBYHwRmKpRmiaixbHLIOqv+QNe2oLzQ3PxDxFYgKdz0+cwtcw6LdSrBRQaPelLZKSuzmYr9uHrmaUm2XiVXeLNlS0+F70eyx9rE2Vz8Pit+jyq+y5tO/uhnthb/iKxoWl2UXQua1WWkST6rKXtMxa6E9nuaak4fjT+jMkY3zzxll5lUI5g6w8txLWSHmeNaMrf8FZN+BRW/LxlhGo1XKcH4PVT+1dh+RM26mkateG40jYeDQQAEQAAEQAAEQAAE1heBij9YWxY8RE7Vjl/845sPVCGzulNqYk4fI/fasqGUhFjqOLmasaL/ll5QCCLXbJ6vPzh1nUgus0bDJMwuy/Tloiexe6Qmq88fs0Gzuboy0SrR1YFu6NUlHjqmKb2e39wcyYwf+n0KxFX4RVuoEkbG1ZUJUikzqzJGwtT8a13fslxmmyVdynArXsMBZY1u7oHSS7q34ts+b6VqRVHtce7ObZRhqV/WQzLGan/xz/q4ZmazDgjjgwAIgAAIgAAIgMAGJVAjZhYVTbOsSi2kUmLZ02uZlY+jciQOriTE6BnZ7B4fuP637O6J5oDglc4EKsgdPVbiGCnjSOzrFTQDM/EnxrSBB2WFrJyxVK5I+QRMbeZbojfZrHZZ9OvNZ+tJZajB/TGL3lzs+rLbTLzXoru8Qo5310GLru7k4h+SY0WXmSSKc2z5oh42bvgUzLPQJYyMi5j1NEp2GUL8Grt55p3dRdY7VngF1166t6qkl+dDb5q6Mkf53PhXTsX3i5xU/C5KE9SHkjp7sveXWahNBgEDgQAIgAAIgAAIgAAIVBOYTEBVz5g4sFFg2VHKgsrPV38sFxVyzLVZW93ZY+SWdP4QwcXHmWUWVzSXkySyMJyyJ5eZm1x3Cisl89hJaUGXvp+kbK7idS80oA84LnjZol1rvejSf0gXMloGNKU3f59XlpUlsrrEMRob05vlzbeEMUCamHua3RgNIfuK1jlAdmV5lXp3+UD0vxWFVxi+eE5wD1RIL2le/7iovB/J7xr5q1GfitUqt1qPH/s7f0D7sNFTYgAQAAEQAAEQAAEQAAEQiAgMlFFDSdaLKTND2/HxYkoJK2PElolPIJHouyWuRxIdyeyfTOkcDWNkFpeOMxBJ5SwuzmIhJBcLqlV0zbtkMXW/J8W1mJXnb4Si8C59OeiulTajK/+Hfz/5WNFlJom+Wa2iS4p1XFaXHlHHtWFll0dgOFQ2qs8yqxVe5L4oSi/BHUnSxwtCSVrJv+ZkeSTLqlbRNFaEVX0/B/72bl3LwGnmc1q9W5xPPJgFBEAABEAABEAABJaFwJwF0iyxtMmm+kjax20XWTyaMeWIdqzRcqsbaEB5op+fZFDRBc5AcOlQC6WK5hgfyEaRXHzdmkAhmyssx4y/K9L9KQqrhKRKZr1JX8uC6Aque5PoIkJCmrfYkD5zfqvsysoNG1wmq8uEEnST0mdFomXALox6HAIoGDOxA6F7e40yu9zaZ5jdxblIvKXG9e5yRiWq8V3YKr1yt3SL+OKRtMqjKUSY+J1cRw3hW5nW/ycLjgQBEAABEAABEAABEKgh0C56akZdm2OmWcssRRbnIs0l28mkD2jJ3OqmL8gtfYjrtF7oCRUtZ1wvLhNe2I8rLtGjMS1wuaIB6Qi1ZnIF14EwWZiSRbY+eitUi66GbC49HRVdoniI/4LPPomKsmuipvSpWFsyu6TG9Hzc3B/XucbsPLFkfrJLr8BdozBGeunqShnNaJlj2d2QYyLPbt4VOQu7NfJ4/ELj27IoQ5MSs26s8Ki2VKJWaZP2VW3zzuI/I1rXMosYMCYIgAAIgAAIgAAIgMD6ITCNhBrLo1EiJaZrX0s+tU7MoEmdQuUJt1apMssRpYkdgkiucC4NQiclfKKMoU3js7h47FImk7iDpDlRr7K1J5c+h51YI7nSsWZKRfl1benL5QINL2Z1NheH0w9TLbkS59NoovuuWXR1o2WyRIqiK3P+2md16eA0r1EljP0ak1ldjIHITMjsCvhkG9T7dcRrobdDQWBVZHfx8Ys/8yw74RdCJE4SwsusUqpljAdNyZiQaX2Zo7TOxO+2/u02ITWFPJommast7jwDfAoCIAACIAACIAACIAACUxEYX2tZkSRSDHZqkZX74z38TAitILa6M8R4K+RWcC6XJFLvJR5espxQapKf6+0VZnHxNfEyRBtGrlQxO0YwnRVaQd2jnqJGckXz8BOzZZceqCzDChl1Y0SXdH+I1zzxnRxbtljxRZ256KLyIfmH9tisLjOJfhWzdsxBwdeMTy9lds2zhJEyC8IdVcZIIEXijuLgbJj8Yp5jkuwuO31BerVkeXGG4QWPfwnMQnwFVJstU7tQmkKGFX9zFw5oXubYCcXz29nNJAwMCgIgAAIgAAIgAALrhsB4iTQWRcXftmOnKJ7fLrG6IdvY1c6R67NlZk1loIkWS1y7NEaqNFHPGWUFsWElGZIRXnzMQOjEdZSZXlzhdRgruQZncpkFOSjhevq3GzLcROb6/PlKLimO3D0o74Dg0UzZhN7Cbi9d7M6cUVN6PXTjDowmnIoG902yqz6ri88vlSjW9Ovia6/u2WVOdK84E03O2oov47Dsruz6+6iK0nBIlhdZQNX1t4QSTqQoviqMTsUh4nUq/ob1Z9UfOvLIRZBoI5eA00EABEAABEAABEAABDYAgVpRNA2KNoml//hvMHZVh2b6bGXnSyXb5EoaC6LKMo2GLmR8yeWXshDSa2K9uPg6a7K4Yjab0qJMyOKKzi+VK5oT3G03heRKrzvDbkwml4EfvcaWLDI0SUlL4BW/vsWMrm6Eqj9y51i+mIxpxlldfN6h/br0OOTSpPp1meOocOpPKmV2sQlysiteE71nCtldfJ5E767U9SoKL3NicBNLXiqX6ZWcWypx5BcmdY3sZYia4ddnErVIMBtG1few+JWXDqiPe9DwczhpdmzmEDymAAEQAAEQAAEQAIElItAiahZ3We2CqmYtQ9hUySw7eWsfJRr0ELHVnT+R3DJD5TONSse0CS49miOQzuIyxyV7YS2x5JJ5sju55Z6qlFw9UfkrswZlizoe3qOre7Pqj8hFyOrSwRqeVVk9TVldfvCafl08hsXL7CKwsqWM6ePcGkeUMyavVVxPGn1RFkl60eDEPmFmoTW/H90xjYeLY1d9d5uimvrgNiZTz47xQAAEQAAEQAAEQAAE1orAbGTTVKsZIq343E0Sqzs5JQEK5Y/JWOctt4Q1lLK1KLOhzebNtHSxXKj5WaTjILkMn3ypqvzNWoZsLr22waKr8If81E3pzXT5xuNRxpDYqHw+/bqieG1DdXK/zD+zS0cV3LGhxKMfDc/u4muvzYRLX2OpNDX+4iXnyTSzN0RS9YzpX5stQklumD9O+EwhxYb+R0HL2ofOgfNAAARAAARAAARAAARAwBKYQkINpdksr/hELU27hSCza28QW/qPfxtLMssmHlCcoiLrKxd3UjQ1lykaXePvEw8wnt8ct6iSi8dGbwU5M25cXy5DLjPGkmRzpbiJoispHPgXr7J80YyXeLRM2JheijuSDFI/L56hFBwzvF9XFM8ayC4eg5cUqZ5c0UV2byRLD2mPsKxIS8sdMSOvIstLr0+4tUrSK3ePJ8VXajI2f6sIys6X/fIM/XWdPm8tBdr0q8GIIAACIAACIAACIAACG4XAaCHVAqowWbG5NpurSuRlEuKqGtGPlVvGKASRt2RvmdOH9+Hi58cN2H1oTVlcemBybiDO6AdWlMnH6ncH9uSK1xbeIDK3hr5c0rVrlFypGJP3ekXJokGfu7HLWaCp78440VX4I3xuWV06Dn8zFDO7CiWMZllBVy09+OgSRsJr5j27Mkwk2RWvj3650tldwXmVwivmG36Rq6RX4t5L+9RU1pYs/MLVF7KvGpOzWkUY/51bFGP8BPvzklmsJQs3RR3vgwAIgAAIgAAIgMC6JTBXuTQFxYEBt4orHmqVyKInFf6+n1psGeEgvCoyt/S5Ga6lPl2lPlzy+NNncRkGCXk0ceN5vqZafv64tOQyY7NrWejLFcyfyhJsLbOtEF1jJVfu3kuKrpKMcOgqs7qyf7Q2ZHVl40r066opHYuTh7i92BqVTtaW5EXHlTK7mMRpaVCvTw2sn7/J083g07In5FIhvDL9u1LXrpZj/trLtmkW4itiXPql2yjC6HBjpVgptGCuVAlnyyDs3m09FceDAAiAAAiAAAiAAAhsQAIDBRQnNVZItZBvlld08HKiijs6t6ZQUMiDJjNeUoutzPyqlTN2mkh4cbW2qaZ5vSy4ujlKWVzRMYksrvi4QiZXJsvNTZE7plkSzrBkccaSy7D1N95Y0ZW9B6UeXXbq6j+yx8quiUWXJETWk+xyLiHKTCPCKiG7OJv27C49QvBYFDPdCsJLvEa5+yh1j6TOSd5T8hN9TKkjH3FQxtUIGVbzC7n6u1wz2MTHDOI1cQwYDgRAAARAAARAAARAYDoC8xROrVGPElQ1kzVILCeBCs3nRVlUKaT8HIngW8dpFjPhvNG90fPKlTXWlylqlaInzI5XU/nRepsAAB98SURBVKpoBomyo8IMtLR0WjrJ5dFFN0palibNmHizTSm5+DXmE47P6LIjVsiqtczq6sIcL7vifl163EpBM2Vml5k3bn4WSCeeoZMr73RrqM3uMkTpS8wYEwQOvw7VpYr9ZCneWZkzlfhy4P3KWyXS5GJnxpKs5vd56XtQOwaOAwEQAAEQAAEQAAEQ2LgEZi6hatEOkFW5oVvFX8ShQS7ZOJJLGDJW4znF7K1eqpTKGnOCKxYdseCKjmFQkqWK5sQFk1w9tP4Cx+zYHSiVnQpC1Y2zKNlcDdmdgzO6mv54nVFWl9EpibK0ZDaPuciiQInkTzx2voxxbWUX5+H9VEZQVWZ3eWYlgcUf46XjbU1peJ50XVulV+4enZv4sstqzTqr/UWb2xmyYYxRhy6ITBu1BpwMAiAAAiAAAiAAAiCw/AQmllCtQFqllTR+8g/0ij/ypypFjCQQCbQkHGub0Ndkb8lx8EypkGI8fyel8iV9qYbz0fyN/bj4+bPJ5NKzOAhFyWWCCqBJ9+3kkkuY1wYxz2wuHUaudDEnEcQHwpyzurLxJfp16XMaZVcsTGYvu6K18TJFsgZJdvHz4zWHV1ButF8SWPwuKB0vCy/xmgiisjZzah4ZX3bltTHp4wvd1ZvGav2NnDh+8uyyieJqGgYSrgkXDgYBEAABEAABEACBIoE1lknF+CoOmEJIVUwTHFISRHGX8PQMpbHmlbFFIyzKpNQuekJ5YjeuJKzC+UI+qeNryxT1nBlhZK9PVsokdlY0Y/evSXtyBSPrCcL1CvfQDCUXZ8i+AMkbukp0VYhejzj/kCqKrm6g6j/Ax2Z1mclEOLk/yMX4cmV6UoZY1O8qDKNGdpU4yTKpn0doUB+xz8guhy7Tt0sf05zdZc6ir7hEkV+y0vH04sSXu6a0seW+nFJ8xTTSv5xK90P6TPJJQY7lxphk/qogywetC6FWXiaOAAEQAAEQAAEQAAEQKBBYCwGVCqkkk7JLafijfOz82T/pG8sKu1hq153MHqsQKUEGVSnbipXU8SXVCC5xXbUN583J+VLF/hh7LePyzP6TgZKLx+/Hn2HzeT1pfHdmSwJT/eSy96GfY2wD+tr7d2lElxEM6dSNnOyqKmHUE3BBE170qWWXmTIwcnpCvspUby+JydTZXWGMJYHFvyT54+P1M97C9a7th5b7pTR4jArp1JJctOYiqmI9pf9SW/M1lALE5yAAAiAAAiAAAiAAAktJoFbGZBc3gYwaA69lDVVJdAOkVq0YKB0nlisKOydaXnXlje0lilKccU+z8Kq1ZnHpOUJTFwxYI7lqst/ooHJW2vSSK+A3leQygya/KlXZXIUxUqxSk1aJrkhI5C1C8lMqqoY0ptdxQHYZvlNndxm4wSudgTZOeKXuJzdfRQN7G+hgacXu0kFZX8J1yH41xvyWbDx3YQTUBDKtcek4HARAAARAAARAAARAYBkIrLGEsohaZNRYrFUyyweWna422yo3SDZzJ7Ubo5gCZGapk1v6yCCs2gwuPkeL4BLja8ziksaQyhUhufzlXQvJpa9TqUdXjVAI7tLK8sWiI5hDCaOOYaIyxricL5/bUzxeKGXMZXZJa6nJ7orOy8guc83oAa3Cy8zGX2LGnZ2nQXrF8YUztcifSQTahJKnJVNs7C/g3PktDGcZB8YGARAAARAAARAAARDYWATmKaRyZJtkVekSVcq+IUJKmnroOGK5WaLvliiUdDAxuaGCS5yjsUzRjBFSipvnpzOqavpxpVn4eWUpNuNMLvlyZEtakyWHlZlcZsrMt2eC7wK9mtWiqyQRglukUnbNO6srtYZW2VVTwljDa4jsEscd2ahejxmlc4Vf+nyscxBeJkjx1Zzl14/SIm1qjq05pvZ7UvqdONXniyLQploPxgEBEAABEAABEAABEACBxN/x8wdT+ce7DaxG5tUcUzPesD5MHuHQ7C19bbhgijjldhiM7FRwXblMibO+zPm1DefNsXwHw37KQu+x0rVKZ35lBBt3RcI9lt1hMfHlGHQ/SBeTXI21yubSYdVmdHUHV/8hXym6zJiZ503DOHSU1n5dOo7CTow8lGWSXQHnlmb1BkzwGiO80te7MctLiCu4/q3lrf3J1fd3y3dhwNj/f3vnlhxJqgRR6/3vpDcw3zMbu9cEyiqSjMA9AvJRkvfniEdwAGk4FpBTf4EXZpFNxeF7ydlmVV8EREAEREAEREAEROCHEFiaHTXLJCilst0h+dG3Gym/NGNrC6TNlLKkiskNZ28VGXGz4CoxHN4ZA9lULy4o62q8ujOSqzLrVgjzYYCW9Q3vcpmc22GQey+0FyKiq4oKMgckIKlWyy43xu/Qzatyi64weowQN/89rLcNjDxSv60b8120SdlljTFypbHW9/40cNLrEMNgWaIv/i25ptgNB803+4dxVTtsf245dt9Pd6QGREAEREAEREAEREAERGBAgDwUn80wcugexZJtJyu1sHR4Rxt7B8wWO9Z0TQmuOoDdvyVZXKXdecmF5nOcCYfkWbeSotlcjntz5zl51RBeCW2HQe5nxLXfY6GMLktwZA/GvXy4RHbtPnBoCJWFsstihaTFFVcZa1zfs3aC8NqPm5NW9tzb5oqWUsDHXnHdcfQHDa2Fs/8w393/2eNT+yIgAiIgAiIgAiIgAiJQ3cW9eWOr+s+KreG7SJ00yvWRzd56d05fg1wguEzRt0BwMWvNz+I62rtj2UnJdeyiNHir5KoBUL+oovsoLLqeJrvCwuIS2VUolQmD8qqbVljeeKTenBPDHrlyMSq83sN7RT98UJ58gL6Ow1rnvrWixZcRc9tTeB0ZYd4pj+7su0fxpFio35oqJAIiIAIiIAIiIAIicCuB6CH2zGDvjIXtO/+e0p5cTmzZxsTzFXYf2ztZliQbv8FVex9nPm3yhMosul1yYQbouqLFpDqk9t7pcdek1tGqx+drgNRWZvdF21hKdJlixfQT+JojndkVuAq5hYKuMHrjiD5O7/M4SXY1Rih6nZGVXdaYbC77iR8Lr9LqYaV48xSVXmhdHvo56bqjt1s/UQB9YszUb0sVEgEREAEREAEREAER+GgCmcPv3QPOxIzqjL9ktx9xXmxVldL/y8it6jew3LFuzUHB1cgTKLmSgsuKH86R2xfmcJbk8uahzvRAQDmTDnlbm48QXYitt6f//P3n39RZlq4E3vahRVcjd6zBeBk5y2SXlSEFHmqvceZklyVtjqLmu+0OiDnmwZcZd2hBdlcdkWGIrP9kMnvdmzTXZEx6bU3kMr4OjCeuO/aDofcH+dd2dXtktyomAiIgAiIgAiIgAiIgAiLQEMgevN0DOXHY3+quuoZYZMawX190xORW6amET8mtd/EdLvgVwdrBdz970uixeSu21+iRDCPmzr+umJBczThHawJlco3mPyO5jLDGssyq4GyQzH77mpa06PqKgz58P1x2uXIFfImxMtjPiN3WibKrCSKa3VWqdmNk3++y6hYSpPDar5/Ye1z4XfSxsVp13XGbefTYvfdHjd4/J/6vxRNiOHF4aloEREAEREAEREAEROCXEsgckFejysYAhVYRBftoV2drta2vlFuuZLG+BmhmkR0GXkKlMoqQuNoGTWScMXN7h+Ta8X3i4/PWZDkbj2FsVX2JrsaVhPc2fVD+RbJrL3HeOsT+71gY4uuA/pcZzT5BdtduPQyzst7LZSbLax9jTHq96A7dVl582fzC28TOgos3A2vQ+xG2tL7Ak2NbP1q1KAIiIAIiIAIiIAIi0BPIHlyvIHlVbJTEOoDb/wcUK/q5dQ1x6wElKflt+5lbX22b9bJyqzZYQrbiRVlcZnaZA4DORGumaFwHvC/mPV3VSzrneuGr718sucq6+Lq6uBMbid8i1AEWp+H42UVWTE57q68wFjaJzC5TkDjXGO2yx0HDh+qbiYTZXcakW+y8DC8vZlZ4jca8H+cZ4qvO6uhfKOurbQg/SxfaYdlssVAnRGFqjxPtqIgIiIAIiIAIiIAIiIAIzBDAEmemdb5uSliNmh8+izS6Soge9B7/fFZsfQ3JmxN3rm4SXFas3jVFsyyCBa9oXiS5SvD2YnPnyq/grloqi66vnWTI7syt+ZfoquKBrb4vRx+CiQ7oN7sufJy+sFkmu2prlfceOMMxkt317uk9X947X+2Mnia8rIC+O/bf5moZ5eUUt77zb331OwfOZXKv5XbosdZTBNqq8agdERABERABERABERABEbAILBdSUczAQ0XFXfZtra+wkWPAsbwHs0JulZiY64lN8FQGlzHYwzXCdh7BlcbaHBKKxzLvOvg9Lnd+oplcFar5Lyy5BovmLMnFsjb3ejPuJaKrSgTy5E6Uaw/hw+J3yy7Hnsy828WypCTZdyDWzEwLL3fsx95cqeIsGU56lQCGf2bQmsRLkVvTqB/0t3C2fmmfCxWFcsrPJdVOwapGRUAEREAEREAEROBjCdwun0bksM+A3BkpMgyBkCq1/lnZWlt0OANpKCY84RKUW55vMdcRI61ew8MCipnLyFVFi5c53dY7Yei64mBJrJRc/XxQ+5lc0wxvb++0XexEl+Mu4EbeCtAHdmwYdhlUP0F2VbaHC4UvtpS46maCyu5qJvVu4VVC8YxMUHr5a+4Z8qvfNPTeoHcbLrikzwcLNExAJURABERABERABERABH4sgQcIqQzb/EH+GVLr7Yhci2Vi8WSI/XZXmzl2bO4KwWUJKWtg/oPzR+tkCzGjVUmu8NY6ZJhtb3S9xUG4TVfWDFu6QHaNMkmGEuD7cO9mFtmfFjwM1xqi3aZ9lbE6KmwaKOHVtLNSeDUezb37GuL4Woj26kE8RjLRW4+4zeiewHMWbZFdC5l2o3UQr2h7Ki8CIiACIiACIiACIiACIwJ5ObSW63lxxKwdSo7h4uSytTaCkfe2XnWYDKR2igYPzH8VmxZcpRE8bobfbBaXEUolkZFc2ffdJt/lWpnJVYce2wfG0nn9p0NGVz1Q538hhA7BF3yJ8bfILk+EjK4oZh6s31bG8B2vwSJaKb1esaB1NMik81Y6Wscze+Td58RGy2/RQ0001oVdqSkREAEREAEREAEREAEROJ3AzIF5bXD5g/sWBzr7c2PFcmcvDdDDYj6lUOZWJ3bo97c8IXR4z6qJc5Hg8oTMGe9xlb6QLLxJco1ie1FHi3c3Pfm9Yq6bPqNr4CjoPR86OCNJ0WVPucUT73XVsQ5kQyazywHIZXe9Y6GytJwZoa5BRjO8vHE5VxF34/W+kJmcM+Y9KrQGz8j88jbIGilGb79nP9gVGYbKioAIiIAIiIAIiIAIiMAlBPKH7Ex4gfP/rvlbpFY1Gu6/UVaPnwU2vproShQr28nMgPIFlyWqOK52xtG+LhaK7Htct0iuCsec6/Dj84FFzvL3FiEtup4su1a/1/U82VUiKnO4Una544w8WL+tLE9cGQaKEV5oDuBj5kRiFBJfdgxEw99MmPajfwSvF2RehDyH6BhVXgREQAREQAREQAREQATiBK4VU5EDdnws+xqxQz8WK308VPswocsvMGy/MRKz2VvVyRiPyW8DZqUYKWSuvKpYxnZ1JlcF6i7f3UPv4CMI8POeTS/UehxsKi9k8+oi8BnU3g0f/APZPZfKruaMH752ZwTKZXYV7fLi/BOEVxVJzdIZzXcwy++wIAkvw6zP0Xtq1CboCjF9Ztpl6jxHmjHRqowIiIAIiIAIiIAIiIAInEOA9BqndD53qMdfCLSCpvqcEFuecHrFAuTWSOr42UVPEVw1+v7fzKPzIx67dr1vAYxk1TA1j5Ncw/mqiyG0d6j16bQ46mooug5yIhQy95D6q8mA3ICH9oA0a4fkiojfIruaCfdckckokOG18WalVw0JfEmRusuIFy/qB8dCGDYchluCiW+i+XBVuA/DLaqCCIiACIiACIiACIiACLwJBM/Mp6ObOZRzwSUzpb4bp+IjPAR6ZBz2Q8itoTAhs7FqG6/Bm4jHmVjjWcF1f77kKoybYaK1ERFdcB0Npgf9bjhVdGEx0EUeEFTwkB1oq41iRnaV8U58kdHn5V9ljDCmM8PA+13DPmelV23cXdKM7IFXHetEUf+Y/qj1s+uN7JyKMFcoOq5cL6olAiIgAiIgAiIgAiIgAvcSmDlMr4sc26VonHR53LV7Ta4dP3slsRcjPUNXlLhvQzlvRu2DO0wVllT+7HpjjT4477Iwr1ySkvPCTC4r/qHoQvapQU6vX2eaUFdQdAHvAPd+6EAdzNzJXmGsniMhU7oqoauM7oPsR4ToyhwtrJzZoeufILww+y5oaDRxxhfq89Uj6Z9CazowB3AzRQPlG1RJERABERABERABERABERABlwBhi9wDeb7u1iQtBYiuYEaO8/bVYXidaRheI0tcmXNlUxsImflF8/Pe/dr1M5HFZZkj5j2u10KwF9lofHC+yXe5SugPeZsLSa4Sq/XVRQsf4RvcXwshMfB02VWtyVs5RDOYpt7tenfuSrbARN0tvOpowLXE/sfE+Jj1hvrdLWZSgLV1mBhm/09iTR+Jwc0GrvoiIAIiIAIiIAIiIAIicDoBwvqAGCKCJDucVB+BoUE5cYLYmpEiTxJc1UttsL2vEVriy1gNXsYaenS+wnT/SXLZaGjRVaTExJmYPpQHRReMK9HehmoY8wWyq47Ngj5+qN6vZy8CWnh1sEPveMGJSkgvok1qLhssZwuwfgbofZH9yxmo96RYAmGrqAiIgAiIgAiIgAiIgAgUAilpdBK7JbEsFlohRma21BgWlGqLryd644mwx9cUSy+Hgfv1DEYfLrkqAfTFAm6xRuamJ8lkcm11QqIr4BUOsxs6RAflFBRwwfba4K+UXR5fP4Y1X2YcySD/zbKmb+f33ZgdtqaMdLI9IG67subKlbLso149C76L6T+xkfFMd6YGREAEREAEREAEREAEROCHEZg5hIdRcF7gKFiQcGhq0ONJSC1KfpRC5NtTbdztqANyjB7vd/v4Ha/JLK7B+D1xtIvphkwuK+RVkqu2nVv40Wph0eXJGGZjhw7iQTkFnUWwvXY8s7LLFSWBd7t8MbM2u8vrh5VW4SyvDTScQF42HZoi2n6HETdTaQlmbZp498zWW1YmtIeX9aqGREAEREAEREAEREAEfjuB7AH5Mm6587sZHhQLRq0Qn8D7WjvnxEg2YCSyVxO3OLCcwjN+SRaXI7lGcyvJZc9dVHIV9OwbXX2XAXewq0oflIkOesEAq1wgu3whNRA1AeGVze4axeX9Kgi/A0Y8Xk/HASdzQnwF5FrLhl67BtClMgz/7q4lHi7N2GGonAiIgAiIgAiIgAiIgAicQmChnGLjy0iskeQZ9utmQ3HRUrESFmL8jlQTSyB7q8gMou92pFnB5fXldj9zVbF05s/PWW9y1THu+101/5m5eq95bq32pdKia2uI8BG7PkOygGj8MbKrEwuuJPLsQ0B2la5cNtdkeA1j6GJDvoVaE8RaqFOAeqvLcdgc2Ve7sKkxBPcoO5ZgsyouAiIgAiIgAiIgAiIgAiKwgAAlAoL9ROVNaT7w5TwvHHoshFxCYzh4nA8TXEPkM5ILPoM1uAaKsu1gpt1+ZVDrgVgLW6toTRxE1aSEnhZdUBoYO4mWAqRwuFJ2jSXT5BcZBzA9FE8QXqz04hQU+XYWuTYi8mtbqr5DZEfg/zWj137wDyIqLmmGCOnnIiACIiACIiACIiACv4EAdYA/AUT0oG+GMJmh9ZIOSIq0nRMygx3bzl0E5VaVSzH7sTqDKyO4Sp0Tv6w4av81jWdIriGM/eqNz9v8BlwiugZ+xo2QPvCTQuOpsmskgVz5sCy7q2qet8CxRQ09F81shq81GouE1UZ0fORaqVTY3vdLGHYBC+Q3Lc0h34VqioAIiIAIiIAIiIAIiIAIOASiB/YQyKCMYNsOiT1SJLEc2Myt6kz4h9/R2Lm2Eo/ke1VmsrjK4P0RIdZwfoPrCra3hbp4rQSbRUsg/0aX1XLkjB86tJMNP0p27R2Te9VwKFw+WHhVrwVkkvFzVj/Btt92D24Ccy0nRZjh8+z+EZtU1Hwlmh/fpEqKgAiIgAiIgAiIgAiIwOMIIFFwesCEECCKuGHSYqJvgeyU5We6GihZ4rJpNF9PEVzVXRHibuKq4qiPFyPIf0+TXkvk2ikxhsqu243LMroyXiF02CbFwGrZVX3VWL+c9lVGYE3i1xnraN5z5Y8rNDffDaayvNq1PCG+KipWk6FHuvAGQ2sCtwDeCbukAaYTlREBERABERABERABERCBX0ogcEi3CE1WL03S8sGbokAQISkxMWBOSHFrbvg4+27scak2RBfM4jpInzOzuGpnQ4Cph+eJdttOQ+spdisVLo5bRVdITgQkRlh21UCGsJDYgJKlaX5UNnqdcRT6OKbrhdcGGLJqZ+JK+QX6hbupK4DWTLQ9r3xga6zqEu6XdR2pJREQAREQAREQAREQgV9NICBqVnG6qstpiRUUD2kJYYENQELCA/3c7p4VV2y5dy93Ca46nUBQoffViHlJS67AekPj6OeUCDu0vZeLLsIZ7QKclR7u4b/LwqJkwKTsqmMfCLPuR+EvMwK4w66JrzSi+ENz9T0xbB22XGnWu9IZWPqh/txFFsggA7FdJcUCiFRUBERABERABERABERABEQgSGCJvNr6XHD6jwgHV7EE4mD7Y8u1+PnsrWJkzJkbtzGY7AED6pqiH1LplOEB1xYxT1dILnY8C5f5YeJuF11IrhwipoxVrXVGZpfVbh/jCtkF+xlwmL3SiOYkK4ki9SJl62QfpdOMhgr3b/1ODKzV4N9Ps7hk2QqKakMEREAEREAEREAEROC3EoAiYTUYQkygLhlB4rWReVerbyvSf6Rs288KwfXVnn9lckA5IbjMvm6+qlhj2o8ztN4DazU6z4Gm0XZ4/fwU0eV4h2FQIbEQEAh3yS4ki9qEs9RVRgA5l91VGt3N0zC2wDzYHiimolaskViP9pINxTFa9ZP86F2ugiIgAiIgAiIgAiIgAiIgAtcTWHSCj4oDa6BXZmtt/c/GfbbgsuTPjt0KyTUhuEp86KoiHEQd0W+SXGW8f//5d8XZ/7CXomf4sDwIdJCSXUAkVSWE0bHZXWj8ma8zoiGwb3jVdtY+XH+5+EIwDoov93cQzWOu1a5WYO0v6U+NiIAIiIAIiIAIiIAIiMBvJrBIWI0QzkqhKkXAv+A4ojFFy3vRfqrgqkKpmYWzJRc5n1dJrsP40XrEb+YTLdhFThNdhFc4RBSWBIEDvyWKqOoPebeLEmuJ64xIYkUyvHBb8XUaXRPR8iUiYiFgpcmNLRUf13SuFDH2XMOqJQIiIAIiIAIiIAIiIAI3EiAlwFURLpNATMCJsUfji5ZHYaP2jj+PPzJfRcwgkomH4A/xPUByWcOhMsQ2RMF1hOawJx9sHi2h3c8fJbpSoiRwUD9LdjESCgoO8quMTF8jcZO/0lh73v6h8aCfh1ZpUzjTbqZOM1AY6ioJ5nU0FT+MXgVEQAREQAREQAREQAREQAQiBKIH+kjbRcYwFSYsQSb+TB1uGOArg7txRsruez9LcJX5IrO4DmUNQJSIIub+6ZKrsmBWSK7MqaKrqJGgBUgd6gOdfIrsquzG8ODVyVMyvEpku9UG4wzMT2YZo/6tNjN1zNjIsQW3QQYDXWfZ2OkeVVAEREAEREAEREAEREAE7iNwlqTJjIg+2y+yAJmxZ+pEWKD2I9lbSB5dJrhKIGMKcNyoAdIOXS250BxYVBYtbxf440QXI3hmhEPVNMYX+lgTMSmfKMnQxYLqfIrwSs9t5Lfmd1nEbNTkTN1Du6QIa+uxSzGBRVVEQAREQAREQAREQAREQAQWE6DlVdvvwpM+Eiij4c7UjWBk+vmpgosRQTCTi1wvnyC5SF8XWV6Hsn/+/vPf//oMnakWjcqJsz7MZjpDdlURQ4x+UnZRwicou0qb6HH8ZIYXFW8wy2sndijoxLwQRWYl1mz9YYgncGCWM4FNRURABERABERABERABETgRxFIySlEgJQRqBnr54woGrU7Wz8Sc6SvlXILCpSJN7i28Ufe4qrx4JW2QnJ53cC224klYu3XATO+Y53IasqU/fP11cUv0VVURqYFqk72/J6SCsHOPDkEm4EFsHiixvdxwuu4lqhxdispU4dajE6hlf2tbCs1JmJtptpVJREQAREQAREQAREQARH4iQQSB/yVGDKywOt/ZVvMGDP9ReUWI4zOvKJo9o/9FZRclIRCcs6Jg2r7BslVWTIrK1umNt6ILsmuHiX0BbAAll2FOtFO7yGZOmdmeNFxm9dEc1KVGXN2O4zqndXvWe2ewUBtioAIiIAIiIAIiIAIiIAIxAhkJBDTw1ntor6z/dr1sO1g+vtEwVVEzIL3uJZkcSXNEzM31nq6QnIZous82cW4HG9jpYVAsNP0210LrjLS4ujiDK8aF/qVR8q6QdZgeo5ZUYiHkC4xE3u20zv6zMaqeiIgAiIgAiIgAiIgAiLwqQSyB/qZ8d7RZxvvTP/juhfILULcMJIpekWxdovHR0kuop3pt7gITt4aZsd5rejas+8yurZQCLOR2LmMMLlbdlXV139VkBgsMTiYYRWRNg8VXrSweyH119qMzJmpS8x2ushT40oP6MaKYnkjfHUtAiIgAiIgAiLwKwjMHGh/BaDAIJ/KciauWam14WNjgP4HXfMjsqgygouVXIxgY+719cOk2u3XKoRpL252ru6UXF99/x+HdA/E2riBpAAAAABJRU5ErkJggg==;" parent="1" vertex="1">
          <mxGeometry x="385.38" y="-90" width="379.25" height="210" as="geometry" />
        </mxCell>
        <mxCell id="8g5fnvYGEK1pVDTlB0f--1" value="" style="shape=curlyBracket;whiteSpace=wrap;html=1;rounded=1;labelPosition=left;verticalLabelPosition=middle;align=right;verticalAlign=middle;strokeColor=#EA7317;strokeWidth=2;fontFamily=Verdana;fontSize=16;fontColor=#134451;fillColor=none;size=0.5;rotation=90;" vertex="1" parent="1">
          <mxGeometry x="290" y="30" width="20" height="280" as="geometry" />
        </mxCell>
        <mxCell id="8g5fnvYGEK1pVDTlB0f--2" value="{n} elements" style="text;html=1;strokeColor=none;fillColor=none;align=center;verticalAlign=middle;whiteSpace=wrap;rounded=0;fontSize=10;fontFamily=Verdana;fontColor=#134451;" vertex="1" parent="1">
          <mxGeometry x="240" y="130" width="120" height="30" as="geometry" />
        </mxCell>
        <mxCell id="8g5fnvYGEK1pVDTlB0f--4" value="" style="shape=curlyBracket;whiteSpace=wrap;html=1;rounded=1;labelPosition=left;verticalLabelPosition=middle;align=right;verticalAlign=middle;strokeColor=#EA7317;strokeWidth=2;fontFamily=Verdana;fontSize=16;fontColor=#134451;fillColor=none;size=0.5;rotation=90;" vertex="1" parent="1">
          <mxGeometry x="815" y="15" width="20" height="310" as="geometry" />
        </mxCell>
        <mxCell id="8g5fnvYGEK1pVDTlB0f--5" value="{n} elements" style="text;html=1;strokeColor=none;fillColor=none;align=center;verticalAlign=middle;whiteSpace=wrap;rounded=0;fontSize=10;fontFamily=Verdana;fontColor=#134451;" vertex="1" parent="1">
          <mxGeometry x="750" y="130" width="120" height="30" as="geometry" />
        </mxCell>
      </root>
    </mxGraphModel>
  </diagram>
</mxfile>
